<svg width="267" height="291" viewBox="0 0 267 291" fill="none" xmlns="http://www.w3.org/2000/svg">
<path d="M130.744 205.755C178.731 205.755 217.632 166.855 217.632 118.868C217.632 70.8813 178.731 31.9805 130.744 31.9805C82.7578 31.9805 43.8569 70.8813 43.8569 118.868C43.8569 166.855 82.7578 205.755 130.744 205.755Z" fill="white"/>
<path d="M130.744 218.059C185.525 218.059 229.934 173.65 229.934 118.869C229.934 64.0885 185.525 19.6797 130.744 19.6797C75.9635 19.6797 31.5547 64.0885 31.5547 118.869C31.5547 173.65 75.9635 218.059 130.744 218.059Z" stroke="white" stroke-miterlimit="10"/>
<path d="M130.744 236.737C195.841 236.737 248.613 183.965 248.613 118.868C248.613 53.7715 195.841 1 130.744 1C65.6475 1 12.876 53.7715 12.876 118.868C12.876 183.965 65.6475 236.737 130.744 236.737Z" stroke="white" stroke-miterlimit="10"/>
<path d="M130.744 236.737C195.841 236.737 248.613 183.965 248.613 118.868C248.613 53.7715 195.841 1 130.744 1C65.6475 1 12.876 53.7715 12.876 118.868C12.876 183.965 65.6475 236.737 130.744 236.737Z" stroke="white" stroke-miterlimit="10"/>
<path d="M132.603 58.9985L145.368 43.6777L152.782 62.1898L169.658 51.5665L170.985 71.4674L190.318 66.5786L185.429 85.9116L205.33 87.2388L194.701 104.115L213.219 111.529L197.898 124.294L213.219 137.065L194.701 144.472L205.33 161.349L185.429 162.676L190.318 182.009L170.985 177.12L169.658 197.021L152.782 186.398L145.368 204.916L132.603 189.595L119.832 204.916L112.424 186.398L95.542 197.021L94.221 177.12L74.8818 182.009L79.7706 162.676L59.8759 161.349L70.4992 144.472L51.981 137.065L67.3017 124.294L51.981 111.529L70.4992 104.115L59.8759 87.2388L79.7706 85.9116L74.8818 66.5786L94.221 71.4674L95.542 51.5665L112.424 62.1898L119.832 43.6777L132.603 58.9985Z" fill="#4EB3B2"/>
<path d="M104.35 123.399C112.437 123.399 118.992 116.843 118.992 108.757C118.992 100.671 112.437 94.1152 104.35 94.1152C96.2638 94.1152 89.7085 100.671 89.7085 108.757C89.7085 116.843 96.2638 123.399 104.35 123.399Z" fill="white"/>
<path d="M105.591 121.691C110.752 121.691 114.936 117.507 114.936 112.346C114.936 107.184 110.752 103 105.591 103C100.429 103 96.2451 107.184 96.2451 112.346C96.2451 117.507 100.429 121.691 105.591 121.691Z" fill="#540522"/>
<path d="M155.904 123.399C163.991 123.399 170.546 116.843 170.546 108.757C170.546 100.671 163.991 94.1152 155.904 94.1152C147.818 94.1152 141.263 100.671 141.263 108.757C141.263 116.843 147.818 123.399 155.904 123.399Z" fill="white"/>
<path d="M154.67 121.691C159.831 121.691 164.015 117.507 164.015 112.346C164.015 107.184 159.831 103 154.67 103C149.508 103 145.324 107.184 145.324 112.346C145.324 117.507 149.508 121.691 154.67 121.691Z" fill="#540522"/>
<path d="M126.073 115.405C126.107 115.313 126.171 115.235 126.255 115.185C126.339 115.134 126.438 115.114 126.536 115.127L126.665 115.306C127.023 115.195 127.011 115.201 127.239 115.442C127.517 115.38 127.733 115.411 127.745 115.818C128.079 115.571 128.073 115.571 128.363 115.849C128.727 115.787 128.844 115.849 128.881 116.108C128.898 116.207 128.887 116.308 128.851 116.402C128.816 116.495 128.756 116.577 128.678 116.639C128.394 116.824 128.233 116.602 128.11 116.399L127.813 116.349L127.653 116.053C127.608 116.099 127.553 116.132 127.492 116.15C127.431 116.168 127.366 116.17 127.304 116.156C127.242 116.141 127.185 116.111 127.138 116.069C127.091 116.026 127.055 115.971 127.036 115.911C126.807 115.96 126.585 115.96 126.56 115.633C126.319 115.689 126.122 115.633 126.066 115.386L126.073 115.405Z" fill="#6B322F"/>
<path d="M129.121 116.688L128.948 116.78C128.695 116.601 128.702 116.589 128.831 116.163L129.09 116.064L129.257 116.355C129.572 116.064 129.559 116.077 129.813 116.398C129.973 116.355 130.171 116.262 130.214 116.694C130.164 116.75 130.09 116.898 130.035 116.885C129.724 116.855 129.417 116.789 129.121 116.688V116.688Z" fill="#6B322F"/>
<path d="M124.183 113.454C124.356 113.423 124.529 113.368 124.69 113.349C124.85 113.331 125.06 113.467 125.023 113.707C125.001 113.827 124.945 113.938 124.86 114.026C124.775 114.114 124.667 114.175 124.548 114.201C124.482 114.214 124.415 114.214 124.35 114.201C124.264 114.099 124.204 113.978 124.175 113.848C124.146 113.718 124.149 113.583 124.183 113.454V113.454Z" fill="#6B322F"/>
<path d="M126.14 115.293C125.584 115.571 125.609 115.015 125.442 114.731C125.3 114.731 125.041 114.799 125.09 114.491C125.417 114.176 125.442 114.176 125.553 114.534L126.115 114.657C126.331 114.812 126.251 115.052 126.115 115.318L126.14 115.293Z" fill="#6B322F"/>
<path d="M124.103 112.961L124.381 113.128L124.251 113.492L123.862 113.615C123.695 113.288 123.695 113.282 124.103 112.961Z" fill="#6B322F"/>
<path d="M137.547 113.294L137.714 113.01L138.078 113.133L138.208 113.516C137.887 113.689 137.887 113.683 137.547 113.294Z" fill="#6B322F"/>
<path d="M130.177 116.356C130.285 116.345 130.392 116.326 130.498 116.301L130.64 116.659L130.424 117.004C130.078 116.881 130.09 116.85 130.177 116.356Z" fill="#6B322F"/>
<path d="M125.307 114.127L125.122 114.46C124.77 114.46 124.77 114.46 124.838 114.102C125.029 113.935 125.177 113.911 125.307 114.127Z" fill="#6B322F"/>
<path d="M133.553 116.597C133.501 116.515 133.478 116.418 133.488 116.322C133.498 116.225 133.541 116.135 133.609 116.066C133.683 116.072 133.757 116.072 133.831 116.066C133.961 115.714 133.955 115.72 134.288 115.69C134.399 115.43 134.547 115.264 134.905 115.504C134.905 115.091 134.905 115.091 135.294 115.035C135.473 114.714 135.59 114.653 135.825 114.782C135.913 114.831 135.986 114.903 136.037 114.99C136.088 115.077 136.115 115.175 136.115 115.276C136.115 115.609 135.825 115.603 135.578 115.566L135.368 115.776L135.035 115.727C135.04 115.786 135.031 115.846 135.008 115.902C134.985 115.957 134.948 116.006 134.902 116.044C134.856 116.082 134.801 116.109 134.743 116.121C134.684 116.134 134.623 116.132 134.566 116.115C134.473 116.325 134.337 116.504 134.06 116.338C133.961 116.572 133.8 116.69 133.56 116.578L133.553 116.597Z" fill="#6B322F"/>
<path d="M136.405 114.943V115.134C136.109 115.214 136.103 115.202 135.868 114.856C135.868 114.776 135.924 114.696 135.955 114.591L136.288 114.647C136.288 114.221 136.288 114.214 136.677 114.245C136.763 114.103 136.825 113.887 137.171 114.147C137.171 114.221 137.239 114.375 137.171 114.412C136.93 114.609 136.674 114.787 136.405 114.943V114.943Z" fill="#6B322F"/>
<path d="M130.831 116.67L131.121 116.251C131.269 116.053 131.448 116.072 131.596 116.251C131.663 116.351 131.698 116.469 131.698 116.59C131.698 116.711 131.663 116.829 131.596 116.93C131.553 116.981 131.504 117.027 131.448 117.065C131.321 117.056 131.198 117.015 131.09 116.946C130.982 116.877 130.893 116.782 130.831 116.67V116.67Z" fill="#6B322F"/>
<path d="M133.504 116.454C133.381 117.071 132.942 116.701 132.621 116.645C132.516 116.75 132.412 117.003 132.202 116.75C132.202 116.294 132.202 116.3 132.541 116.436L132.992 116.084C133.239 116.01 133.381 116.213 133.516 116.473L133.504 116.454Z" fill="#6B322F"/>
<path d="M130.417 116.38L130.738 116.312L130.886 116.671L130.689 117.016C130.356 116.893 130.356 116.893 130.417 116.38Z" fill="#6B322F"/>
<path d="M136.855 113.91L137.047 113.639L137.399 113.793L137.497 114.182C137.146 114.33 137.146 114.324 136.855 113.91Z" fill="#6B322F"/>
<path d="M132.084 116.356L132.207 116.714C131.973 116.986 131.96 116.986 131.744 116.714C131.756 116.436 131.831 116.3 132.084 116.356Z" fill="#6B322F"/>
<path d="M137.529 113.375L137.831 113.603C137.794 113.955 137.788 113.961 137.442 113.844C137.294 113.628 137.288 113.511 137.529 113.375Z" fill="#6B322F"/>
<path d="M133.714 105.17C133.714 106.121 133.336 107.033 132.663 107.706C131.991 108.378 131.079 108.756 130.127 108.756C129.176 108.756 128.264 108.378 127.591 107.706C126.919 107.033 126.541 106.121 126.541 105.17C126.541 103.188 130.127 100.065 130.127 96.4785C130.127 100.065 133.714 103.188 133.714 105.17Z" fill="#7F8A44"/>
<path d="M190.953 162.287H75.418V249.996H190.953V162.287Z" fill="#7F8A44"/>
<path d="M200.775 249.994H62.4189V261.636H200.775V249.994Z" fill="#8E564F"/>
<path d="M246.521 249.994H20.0676C8.98457 249.994 0 258.979 0 270.062C0 281.145 8.98457 290.129 20.0676 290.129H246.521C257.604 290.129 266.588 281.145 266.588 270.062C266.588 258.979 257.604 249.994 246.521 249.994Z" fill="#4E868E"/>
<path d="M98.2575 249.994H152.51V290.117H98.2575C92.9353 290.117 87.831 288.003 84.0676 284.239C80.3042 280.476 78.1899 275.372 78.1899 270.049C78.1932 264.729 80.3089 259.628 84.072 255.867C87.835 252.107 92.9374 249.994 98.2575 249.994V249.994Z" fill="#540522"/>
<path d="M148.343 255.816H152.498V283.347H148.343C146.366 283.347 144.469 282.561 143.071 281.163C141.672 279.764 140.887 277.868 140.887 275.89V263.267C140.888 261.29 141.675 259.395 143.073 257.998C144.471 256.601 146.367 255.816 148.343 255.816V255.816Z" fill="white"/>
<path d="M102.091 249.994H98.2575C95.622 249.993 93.0121 250.512 90.5771 251.52C88.142 252.528 85.9294 254.006 84.0658 255.87C82.2022 257.734 80.724 259.946 79.7158 262.381C78.7076 264.816 78.1891 267.426 78.1899 270.062V270.062C78.1891 272.697 78.7076 275.307 79.7158 277.742C80.724 280.177 82.2022 282.39 84.0658 284.253C85.9294 286.117 88.142 287.595 90.5771 288.603C93.0121 289.612 95.622 290.13 98.2575 290.129H102.103L102.091 249.994Z" fill="white"/>
<path d="M160.343 282.488C160.108 282.538 159.942 282.377 159.855 281.914L159.948 281.402C159.822 281.191 159.741 280.956 159.713 280.713C159.684 280.469 159.707 280.222 159.781 279.988C159.659 279.744 159.605 279.471 159.625 279.198C159.644 278.926 159.737 278.663 159.892 278.439C159.534 277.926 159.534 277.92 159.676 277.001C159.497 276.186 159.516 275.828 159.75 275.531C159.985 275.235 160.182 275.34 160.324 275.618C160.422 275.853 160.468 276.106 160.461 276.36C160.453 276.614 160.392 276.864 160.281 277.093L160.355 277.778C160.293 277.982 160.226 278.167 160.145 278.396C160.273 278.609 160.352 278.849 160.375 279.096C160.398 279.344 160.366 279.594 160.281 279.828C160.383 280.034 160.436 280.261 160.436 280.491C160.436 280.721 160.383 280.948 160.281 281.155C160.376 281.36 160.429 281.582 160.438 281.807C160.446 282.033 160.41 282.258 160.33 282.47L160.343 282.488Z" fill="#151A79"/>
<path d="M160.25 274.574C160.25 274.574 160.318 274.753 160.386 274.914C160.275 275.599 160.275 275.599 159.849 275.593C159.799 275.432 159.744 275.253 159.682 275.043L159.917 274.426C159.559 273.809 159.559 273.809 159.836 273.05C159.775 272.661 159.651 272.179 160.071 271.957C160.133 272.056 160.287 272.185 160.287 272.321C160.299 273.025 160.269 273.716 160.25 274.574Z" fill="#151A79"/>
<path d="M159.985 289.03C159.828 288.792 159.686 288.545 159.559 288.29C159.469 288.095 159.426 287.882 159.433 287.667C159.441 287.453 159.499 287.243 159.602 287.055C159.806 286.728 160.071 286.753 160.287 287.141C160.338 287.26 160.379 287.381 160.411 287.506C160.401 288.042 160.254 288.567 159.985 289.03V289.03Z" fill="#151A79"/>
<path d="M160.213 282.5C160.738 283.247 160.275 283.92 160.152 284.679C160.219 284.982 160.448 285.34 160.152 285.716C159.707 285.574 159.689 285.519 159.905 284.747C159.831 284.303 159.75 283.852 159.676 283.432C159.676 282.766 159.929 282.593 160.219 282.494L160.213 282.5Z" fill="#151A79"/>
<path d="M159.713 290.105C159.713 289.815 159.658 289.562 159.627 289.296L159.979 288.889L160.337 289.345C160.226 290.173 160.226 290.173 159.713 290.105Z" fill="#151A79"/>
<path d="M159.713 251.21C159.713 250.92 159.658 250.667 159.627 250.402L159.979 249.994L160.337 250.451C160.226 251.278 160.226 251.278 159.713 251.21Z" fill="#151A79"/>
<path d="M159.713 272.149C159.713 271.865 159.658 271.605 159.627 271.34L159.985 270.914L160.343 271.371C160.226 272.204 160.226 272.204 159.713 272.149Z" fill="#151A79"/>
<path d="M159.757 285.846L160.133 285.691C160.362 286.346 160.362 286.346 160.041 286.79C159.788 286.704 159.664 286.457 159.757 285.846Z" fill="#151A79"/>
<path d="M160.343 263.902C160.108 263.952 159.942 263.791 159.855 263.322L159.948 262.816C159.822 262.605 159.741 262.371 159.713 262.127C159.684 261.883 159.707 261.636 159.781 261.402C159.659 261.158 159.605 260.885 159.625 260.612C159.644 260.34 159.737 260.077 159.892 259.853C159.534 259.334 159.534 259.334 159.676 258.408C159.497 257.594 159.516 257.242 159.75 256.945C159.985 256.649 160.182 256.754 160.324 257.032C160.421 257.266 160.468 257.518 160.46 257.771C160.453 258.024 160.392 258.273 160.281 258.501C160.281 258.742 160.33 258.964 160.355 259.186C160.38 259.408 160.226 259.581 160.145 259.841C160.273 260.054 160.352 260.293 160.376 260.541C160.399 260.789 160.367 261.039 160.281 261.273C160.383 261.479 160.436 261.706 160.436 261.936C160.436 262.166 160.383 262.393 160.281 262.6C160.376 262.805 160.429 263.026 160.438 263.252C160.446 263.478 160.41 263.703 160.33 263.915L160.343 263.902Z" fill="#151A79"/>
<path d="M160.25 255.988C160.25 255.988 160.318 256.167 160.386 256.328C160.275 257.007 160.275 257.007 159.849 257.007C159.799 256.846 159.744 256.667 159.682 256.457L159.917 255.84C159.559 255.223 159.559 255.223 159.836 254.458C159.775 254.075 159.651 253.593 160.071 253.371C160.133 253.47 160.287 253.599 160.287 253.735C160.299 254.439 160.269 255.13 160.25 255.988Z" fill="#151A79"/>
<path d="M159.985 270.445C159.83 270.206 159.687 269.959 159.559 269.704C159.469 269.509 159.426 269.296 159.433 269.082C159.441 268.867 159.499 268.658 159.602 268.47C159.806 268.143 160.071 268.167 160.287 268.55C160.338 268.67 160.379 268.794 160.411 268.92C160.4 269.456 160.254 269.981 159.985 270.445V270.445Z" fill="#151A79"/>
<path d="M160.213 263.914C160.738 264.661 160.275 265.328 160.152 266.093C160.219 266.39 160.448 266.748 160.152 267.124C159.707 266.982 159.689 266.933 159.905 266.161C159.831 265.717 159.75 265.26 159.676 264.846C159.676 264.18 159.929 264.007 160.219 263.908L160.213 263.914Z" fill="#151A79"/>
<path d="M159.713 271.531C159.713 271.247 159.658 270.988 159.627 270.723L159.985 270.297L160.343 270.754C160.226 271.587 160.226 271.587 159.713 271.531Z" fill="#151A79"/>
<path d="M159.713 253.55C159.713 253.26 159.658 253.007 159.627 252.741L159.979 252.334L160.337 252.791C160.226 253.63 160.226 253.63 159.713 253.55Z" fill="#151A79"/>
<path d="M159.757 267.26L160.133 267.105C160.362 267.76 160.362 267.76 160.041 268.198C159.788 268.112 159.664 267.871 159.757 267.26Z" fill="#151A79"/>
<path d="M159.757 251.391L160.133 251.236C160.362 251.891 160.362 251.891 160.041 252.335C159.788 252.249 159.664 252.002 159.757 251.391Z" fill="#151A79"/>
<path d="M137.979 260.55C137.738 260.606 137.571 260.414 137.491 259.871L137.584 259.254C137.328 258.739 137.266 258.15 137.411 257.594C137.618 257.205 137.706 256.764 137.666 256.325C137.625 255.886 137.457 255.469 137.183 255.124C137.127 254.933 137.133 254.68 137.041 254.174C136.553 253.39 136.331 253.124 136.318 252.705C136.318 252.408 136.504 252.242 136.831 252.439C137.095 252.623 137.308 252.871 137.452 253.159C137.595 253.447 137.664 253.766 137.652 254.087C137.804 254.331 137.894 254.607 137.916 254.893C137.937 255.179 137.889 255.466 137.775 255.729C138.041 256.251 138.092 256.856 137.917 257.415C138.121 257.915 138.121 258.476 137.917 258.976C138.109 259.47 138.127 260.014 137.967 260.519L137.979 260.55Z" fill="#FFE2E9"/>
<path d="M135.874 251.594L136.282 251.779C136.813 252.471 136.763 252.495 136.436 252.748C136.269 252.62 136.094 252.502 135.911 252.397C135.811 252.182 135.693 251.975 135.56 251.779C134.788 251.674 134.825 251.68 134.121 251.088C133.905 251.032 133.652 251.032 133.436 250.964C133.327 250.946 133.224 250.903 133.135 250.837C133.046 250.772 132.974 250.686 132.924 250.588C133.062 250.493 133.225 250.439 133.393 250.434C134.309 250.591 135.166 250.992 135.874 251.594Z" fill="#FFE2E9"/>
<path d="M137.621 268.241C137.464 267.958 137.322 267.668 137.195 267.371C137.104 267.138 137.061 266.89 137.069 266.641C137.076 266.392 137.134 266.146 137.238 265.92C137.442 265.531 137.707 265.562 137.924 266.019C137.975 266.158 138.016 266.3 138.047 266.445C138.039 267.068 137.894 267.681 137.621 268.241V268.241Z" fill="#FFE2E9"/>
<path d="M137.85 260.562C138.375 261.445 137.912 262.229 137.782 263.124C137.856 263.476 138.084 263.896 137.782 264.359C137.338 264.192 137.319 264.13 137.535 263.223C137.461 262.704 137.381 262.167 137.307 261.68C137.307 260.896 137.56 260.686 137.85 260.575V260.562Z" fill="#FFE2E9"/>
<path d="M137.35 269.5L137.263 268.549L137.615 268.074L137.973 268.611C137.862 269.58 137.862 269.58 137.35 269.5Z" fill="#FFE2E9"/>
<path d="M136.787 268.322L137.497 268.94L137.565 269.526L136.948 269.378C136.355 268.612 136.355 268.612 136.787 268.322Z" fill="#FFE2E9"/>
<path d="M133.053 250.951C132.754 250.938 132.454 250.956 132.158 251.007C132 250.892 131.833 250.791 131.658 250.704C131.818 250.553 131.992 250.417 132.177 250.297C133.22 250.389 133.195 250.47 133.053 250.951Z" fill="#FFE2E9"/>
<path d="M137.393 264.495L137.77 264.316C137.998 265.082 137.998 265.082 137.677 265.607C137.424 265.502 137.3 265.218 137.393 264.495Z" fill="#FFE2E9"/>
<path d="M127.146 256.872C127.344 256.73 127.56 256.872 127.875 257.304C127.937 257.476 128.005 257.674 128.085 257.865C128.561 258.186 128.924 258.648 129.122 259.186C129.384 259.358 129.607 259.584 129.774 259.849C129.941 260.114 130.049 260.412 130.091 260.723C130.745 260.989 130.745 260.989 131.325 261.927C132.06 262.544 132.307 262.884 132.35 263.303C132.387 263.606 132.165 263.748 131.844 263.587C131.332 263.279 130.953 262.79 130.782 262.217L130.221 261.6L129.924 260.865C129.663 260.734 129.43 260.551 129.241 260.329C129.051 260.106 128.908 259.848 128.819 259.569C128.591 259.42 128.397 259.225 128.249 258.997C128.102 258.768 128.003 258.511 127.961 258.242C127.743 258.073 127.561 257.861 127.429 257.619C127.296 257.377 127.215 257.11 127.19 256.834L127.146 256.872Z" fill="#FFE2E9"/>
<path d="M132.664 264.47L132.3 264.254C131.868 263.569 131.874 263.562 132.201 263.297L132.744 263.686L133.016 264.371C133.732 264.667 133.757 264.692 134.133 265.55C134.479 265.852 134.942 266.167 134.806 266.667C134.683 266.624 134.467 266.612 134.356 266.488C133.812 265.889 133.3 265.254 132.664 264.47Z" fill="#FFE2E9"/>
<path d="M131.102 250.816C130.871 251.027 130.654 251.254 130.454 251.495C130.148 251.831 129.748 252.07 129.306 252.18C128.905 252.266 128.689 252.087 128.936 251.593C129.022 251.46 129.119 251.334 129.226 251.217C129.518 251.031 129.84 250.896 130.177 250.816C130.483 250.759 130.796 250.759 131.102 250.816V250.816Z" fill="#FFE2E9"/>
<path d="M127.27 256.811C127.07 256.651 126.922 256.436 126.844 256.193C126.81 256.06 126.793 255.923 126.795 255.786C126.803 255.672 126.817 255.559 126.838 255.446C126.963 254.997 127.141 254.564 127.369 254.156C127.418 253.804 127.369 253.255 127.881 253.002C128.183 253.397 128.128 253.391 127.609 254.15C127.511 254.648 127.494 255.159 127.56 255.662C127.56 255.86 127.56 255.977 127.56 256.101C127.563 256.209 127.548 256.318 127.517 256.422C127.481 256.583 127.395 256.728 127.27 256.835V256.811Z" fill="#FFE2E9"/>
<path d="M132.362 250.907C132.063 250.942 131.768 251.002 131.479 251.086C131.294 251 131.146 250.938 130.942 250.858C131.097 250.691 131.251 250.512 131.399 250.383C131.7 250.329 132.01 250.35 132.3 250.445C132.418 250.543 132.393 250.648 132.362 250.907Z" fill="#FFE2E9"/>
<path d="M134.948 266.285L135.646 266.939C135.646 267.149 135.683 267.316 135.701 267.557L135.084 267.396C134.51 266.594 134.51 266.594 134.948 266.285Z" fill="#FFE2E9"/>
<path d="M128.3 253.086L127.887 253.012C128.134 252.222 128.195 252.198 128.782 252.037C128.887 252.327 128.769 252.574 128.3 253.086Z" fill="#FFE2E9"/>
<path d="M136.614 268.198C136.553 268.34 136.503 268.469 136.454 268.587C135.769 268.173 135.769 268.173 135.658 267.568C135.911 267.475 136.195 267.605 136.614 268.198Z" fill="#FFE2E9"/>
<path d="M137.195 279.191C137.429 279.136 137.596 279.321 137.683 279.87L137.59 280.487C137.847 281.002 137.906 281.593 137.757 282.148C137.882 282.444 137.937 282.766 137.917 283.087C137.898 283.408 137.805 283.72 137.645 284C137.793 284.208 137.876 284.455 137.886 284.71C137.851 285.077 137.737 285.433 137.553 285.753C137.368 286.765 137.022 287.148 136.627 287.284C136.331 287.389 136.17 287.185 136.238 286.851C136.393 286.335 136.658 285.859 137.016 285.456C137.072 285.211 137.105 284.961 137.115 284.71C137.227 284.485 137.32 284.252 137.392 284.012C137.132 283.491 137.084 282.889 137.257 282.333C137.05 281.833 137.05 281.271 137.257 280.771C137.065 280.275 137.047 279.729 137.207 279.222L137.195 279.191Z" fill="#FFE2E9"/>
<path d="M135.503 287.685L135.688 287.333C136.306 286.888 136.256 286.845 136.602 287.117C136.508 287.328 136.403 287.534 136.287 287.734C136.061 287.851 135.826 287.95 135.584 288.03C135.232 288.722 135.133 288.802 134.182 288.882C133.968 289.003 133.737 289.09 133.497 289.141C133.384 289.167 133.267 289.16 133.158 289.122C133.048 289.084 132.952 289.015 132.88 288.925C132.991 288.857 133.108 288.678 133.256 288.654C134.073 288.517 134.844 288.185 135.503 287.685V287.685Z" fill="#FFE2E9"/>
<path d="M137.553 271.531C137.711 271.813 137.853 272.104 137.979 272.402C138.069 272.633 138.112 272.88 138.104 273.128C138.097 273.376 138.04 273.62 137.936 273.846C137.732 274.235 137.467 274.21 137.251 273.753C137.198 273.613 137.156 273.469 137.127 273.321C137.135 272.701 137.281 272.089 137.553 271.531V271.531Z" fill="#FFE2E9"/>
<path d="M137.324 279.173C136.793 278.296 137.263 277.506 137.386 276.617C137.318 276.259 137.09 275.84 137.386 275.383C137.83 275.556 137.849 275.617 137.633 276.519C137.707 277.043 137.787 277.574 137.861 278.068C137.861 278.852 137.608 279.056 137.318 279.173H137.324Z" fill="#FFE2E9"/>
<path d="M137.825 270.242C137.825 270.575 137.88 270.859 137.911 271.187L137.559 271.668L137.201 271.131C137.312 270.156 137.312 270.156 137.825 270.242Z" fill="#FFE2E9"/>
<path d="M136.436 271.087L137.022 270.334L137.64 270.223L137.529 270.84C136.763 271.531 136.763 271.531 136.436 271.087Z" fill="#FFE2E9"/>
<path d="M133.115 289.266C132.788 289.336 132.455 289.373 132.121 289.377C131.958 289.259 131.805 289.127 131.665 288.982C131.856 288.897 132.04 288.796 132.214 288.68C133.115 288.815 133.134 288.723 133.115 289.266Z" fill="#FFE2E9"/>
<path d="M137.763 275.236L137.386 275.415C137.158 274.643 137.158 274.644 137.479 274.125C137.763 274.236 137.874 274.526 137.763 275.236Z" fill="#FFE2E9"/>
<path d="M127.887 283.155C127.646 283.118 127.541 282.884 127.72 282.353C127.831 282.199 127.955 282.026 128.085 281.865C128.13 281.288 128.401 280.752 128.838 280.372C128.907 280.061 129.049 279.771 129.252 279.525C129.455 279.28 129.712 279.085 130.004 278.958C130.085 278.26 130.091 278.248 130.875 277.483C131.338 276.625 131.622 276.316 132.023 276.193C132.319 276.106 132.498 276.298 132.399 276.637C132.196 277.193 131.799 277.657 131.282 277.946L130.844 278.625L130.226 279.094C130.123 279.664 129.814 280.176 129.356 280.532C129.24 281.05 128.937 281.508 128.504 281.816C128.432 282.315 128.218 282.782 127.887 283.162V283.155Z" fill="#FFE2E9"/>
<path d="M133.115 275.655C133.115 275.655 133.035 275.858 132.961 276.044C132.343 276.581 132.343 276.587 132.041 276.309L132.331 275.692L132.948 275.309C133.127 274.556 133.152 274.519 133.948 274.031C134.201 273.642 134.485 273.136 134.973 273.223C134.973 273.352 134.973 273.562 134.856 273.686L133.115 275.655Z" fill="#FFE2E9"/>
<path d="M131.122 288.865C130.797 288.947 130.462 288.978 130.128 288.958C129.858 288.934 129.599 288.842 129.375 288.689C129.151 288.537 128.971 288.33 128.85 288.087C128.677 287.649 128.912 287.507 129.362 287.631C129.498 287.665 129.63 287.71 129.757 287.766C130.072 288.026 130.276 288.155 130.455 288.303C130.634 288.452 130.801 288.618 131.122 288.865Z" fill="#FFE2E9"/>
<path d="M127.745 283.125C127.785 283.328 127.804 283.535 127.8 283.742C127.809 283.816 127.809 283.891 127.8 283.964C127.806 284.059 127.806 284.154 127.8 284.248C127.729 284.656 127.714 285.071 127.757 285.483C127.942 285.792 128.282 286.039 128.269 286.526C127.819 286.625 127.695 286.563 127.572 285.631C127.322 285.158 127.151 284.647 127.066 284.119C127.055 283.937 127.081 283.754 127.14 283.582C127.188 283.474 127.255 283.376 127.337 283.292C127.4 283.238 127.472 283.197 127.551 283.171C127.629 283.146 127.712 283.136 127.794 283.143L127.745 283.125Z" fill="#FFE2E9"/>
<path d="M132.35 289.308C132.017 289.336 131.682 289.336 131.35 289.308C131.195 289.142 131.084 289.012 130.955 288.851C131.155 288.789 131.351 288.712 131.541 288.623C131.806 288.676 132.065 288.756 132.313 288.864C132.418 288.926 132.399 289.049 132.35 289.308Z" fill="#FFE2E9"/>
<path d="M134.59 273.137L135.164 272.372L135.745 272.248L135.652 272.865C134.924 273.538 134.924 273.538 134.59 273.137Z" fill="#FFE2E9"/>
<path d="M127.979 286.864C128.054 286.728 128.134 286.611 128.202 286.506C128.819 287 128.819 286.944 128.905 287.543C128.671 287.66 128.331 287.537 127.979 286.864Z" fill="#FFE2E9"/>
<path d="M136.331 271.277L136.726 271.401C136.374 272.117 136.38 272.117 135.788 272.29C135.671 272.043 135.769 271.746 136.331 271.277Z" fill="#FFE2E9"/>
<path d="M110.109 262.18C111.258 262.18 112.189 261.249 112.189 260.1C112.189 258.951 111.258 258.02 110.109 258.02C108.96 258.02 108.029 258.951 108.029 260.1C108.029 261.249 108.96 262.18 110.109 262.18Z" stroke="#FFEBC4" stroke-miterlimit="10"/>
<path d="M110.109 282.18C111.258 282.18 112.189 281.249 112.189 280.1C112.189 278.951 111.258 278.02 110.109 278.02C108.96 278.02 108.029 278.951 108.029 280.1C108.029 281.249 108.96 282.18 110.109 282.18Z" stroke="#FFEBC4" stroke-miterlimit="10"/>
<path d="M117.418 262.18C118.566 262.18 119.498 261.249 119.498 260.1C119.498 258.951 118.566 258.02 117.418 258.02C116.269 258.02 115.337 258.951 115.337 260.1C115.337 261.249 116.269 262.18 117.418 262.18Z" stroke="#FFEBC4" stroke-miterlimit="10"/>
<path d="M117.418 282.18C118.566 282.18 119.498 281.249 119.498 280.1C119.498 278.951 118.566 278.02 117.418 278.02C116.269 278.02 115.337 278.951 115.337 280.1C115.337 281.249 116.269 282.18 117.418 282.18Z" stroke="#FFEBC4" stroke-miterlimit="10"/>
<path d="M124.727 262.18C125.876 262.18 126.807 261.249 126.807 260.1C126.807 258.951 125.876 258.02 124.727 258.02C123.578 258.02 122.646 258.951 122.646 260.1C122.646 261.249 123.578 262.18 124.727 262.18Z" stroke="#FFEBC4" stroke-miterlimit="10"/>
<path d="M124.727 282.18C125.876 282.18 126.807 281.249 126.807 280.1C126.807 278.951 125.876 278.02 124.727 278.02C123.578 278.02 122.646 278.951 122.646 280.1C122.646 281.249 123.578 282.18 124.727 282.18Z" stroke="#FFEBC4" stroke-miterlimit="10"/>
<path d="M123.702 276.154C123.61 276.211 123.501 276.229 123.396 276.206C123.291 276.183 123.199 276.12 123.14 276.031V275.747C122.77 275.531 122.77 275.531 122.726 275.13C122.461 274.92 122.282 274.667 122.547 274.315C122.121 274.185 122.115 274.179 122.084 273.698C121.77 273.352 121.726 273.167 121.887 272.944C121.948 272.859 122.036 272.797 122.137 272.769C122.238 272.741 122.346 272.748 122.442 272.79C122.788 272.951 122.733 273.253 122.671 273.537L122.868 273.852L122.788 274.247C122.857 274.266 122.922 274.298 122.978 274.341C123.035 274.385 123.082 274.439 123.118 274.501C123.153 274.563 123.176 274.631 123.185 274.702C123.194 274.773 123.19 274.845 123.171 274.914C123.387 275.08 123.578 275.259 123.405 275.58C123.52 275.631 123.613 275.721 123.666 275.834C123.72 275.948 123.73 276.077 123.696 276.198L123.702 276.154Z" fill="#FFE2E9"/>
<path d="M122.177 272.248L122.362 272.371C122.362 272.748 122.362 272.748 121.986 272.89L121.727 272.674L121.844 272.297C121.4 272.124 121.393 272.112 121.517 271.637C121.387 271.464 121.183 271.266 121.517 271.02C121.597 271.02 121.764 271.057 121.788 271.124C121.943 271.458 122.035 271.81 122.177 272.248Z" fill="#FFE2E9"/>
<path d="M124.559 279.555C124.378 279.493 124.201 279.418 124.029 279.333C123.974 279.307 123.926 279.269 123.887 279.223C123.847 279.177 123.818 279.123 123.801 279.065C123.783 279.007 123.778 278.946 123.785 278.886C123.793 278.826 123.813 278.768 123.843 278.716C123.873 278.66 123.914 278.61 123.963 278.57C124.012 278.53 124.069 278.5 124.13 278.482C124.191 278.464 124.255 278.459 124.318 278.466C124.381 278.473 124.442 278.493 124.498 278.525C124.565 278.561 124.628 278.607 124.683 278.66C124.722 278.81 124.731 278.967 124.71 279.12C124.689 279.274 124.638 279.422 124.559 279.555V279.555Z" fill="#FFE2E9"/>
<path d="M123.566 276.204C124.183 276.395 123.887 276.889 123.906 277.315C124.023 277.438 124.307 277.537 124.116 277.821C123.665 277.901 123.646 277.883 123.708 277.426L123.251 276.846C123.134 276.512 123.338 276.34 123.585 276.191L123.566 276.204Z" fill="#FFE2E9"/>
<path d="M124.498 280.174L124.276 279.798L124.529 279.477L124.943 279.581C124.998 280.026 124.998 280.026 124.498 280.174Z" fill="#FFE2E9"/>
<path d="M117.392 260.785L117.164 260.415L117.417 260.094L117.837 260.199C117.911 260.643 117.911 260.643 117.392 260.785Z" fill="#FFE2E9"/>
<path d="M121.226 271.217L121.004 270.841L121.257 270.52L121.671 270.624C121.714 271.069 121.714 271.069 121.226 271.217Z" fill="#FFE2E9"/>
<path d="M123.769 278.026L124.09 277.822C124.423 278.069 124.423 278.069 124.201 278.403C123.948 278.446 123.788 278.365 123.769 278.026Z" fill="#FFE2E9"/>
<path d="M120.319 266.895C120.227 266.952 120.118 266.97 120.013 266.947C119.908 266.924 119.816 266.861 119.757 266.772V266.488C119.387 266.272 119.387 266.272 119.343 265.84C119.072 265.636 118.893 265.383 119.164 265.031C118.732 264.895 118.732 264.895 118.701 264.414C118.387 264.068 118.337 263.883 118.504 263.655C118.566 263.571 118.655 263.51 118.755 263.482C118.856 263.454 118.963 263.46 119.059 263.5C119.399 263.667 119.343 263.963 119.288 264.247L119.479 264.568L119.399 264.963C119.538 265.001 119.657 265.092 119.73 265.217C119.803 265.341 119.824 265.49 119.788 265.63C120.004 265.796 120.195 265.976 120.022 266.296C120.137 266.347 120.229 266.438 120.281 266.551C120.334 266.665 120.343 266.794 120.306 266.914L120.319 266.895Z" fill="#FFE2E9"/>
<path d="M118.788 262.982L118.98 263.106C118.98 263.488 118.98 263.488 118.597 263.63L118.344 263.414L118.455 263.032C118.017 262.865 118.004 262.846 118.134 262.371C117.998 262.205 117.795 262.007 118.134 261.754C118.208 261.785 118.381 261.797 118.406 261.859C118.554 262.198 118.628 262.55 118.788 262.982Z" fill="#FFE2E9"/>
<path d="M121.171 270.297C120.99 270.231 120.812 270.154 120.64 270.068C120.585 270.042 120.537 270.004 120.498 269.958C120.459 269.912 120.429 269.858 120.412 269.8C120.395 269.742 120.389 269.681 120.397 269.621C120.404 269.561 120.424 269.503 120.455 269.451C120.517 269.339 120.621 269.255 120.745 269.218C120.868 269.181 121.001 269.194 121.115 269.254C121.183 269.292 121.245 269.34 121.3 269.395C121.34 269.547 121.348 269.704 121.326 269.859C121.304 270.014 121.251 270.163 121.171 270.297Z" fill="#FFE2E9"/>
<path d="M120.202 266.946C120.819 267.137 120.523 267.631 120.535 268.051C120.658 268.18 120.936 268.279 120.745 268.563C120.3 268.643 120.276 268.619 120.337 268.162L119.887 267.588C119.769 267.255 119.967 267.082 120.22 266.934L120.202 266.946Z" fill="#FFE2E9"/>
<path d="M121.097 270.914L120.868 270.544L121.121 270.223L121.541 270.328C121.609 270.76 121.609 270.76 121.097 270.914Z" fill="#FFE2E9"/>
<path d="M117.844 261.951L117.615 261.581L117.868 261.254L118.288 261.359C118.337 261.809 118.337 261.809 117.844 261.951Z" fill="#FFE2E9"/>
<path d="M120.38 268.766L120.708 268.562C121.041 268.809 121.041 268.809 120.819 269.143C120.566 269.186 120.405 269.106 120.38 268.766Z" fill="#FFE2E9"/>
<path d="M117.492 260.858L117.819 260.654C118.152 260.901 118.152 260.901 117.93 261.235C117.677 261.278 117.516 261.198 117.492 260.858Z" fill="#FFE2E9"/>
<path d="M111.949 266.261C112.034 266.206 112.137 266.185 112.237 266.2C112.337 266.216 112.428 266.269 112.492 266.347V266.594C112.844 266.767 112.844 266.767 112.869 267.143C113.122 267.316 113.288 267.526 113.004 267.847C113.424 267.946 113.424 267.952 113.437 268.396C113.727 268.687 113.77 268.841 113.597 269.051C113.53 269.128 113.442 269.185 113.343 269.213C113.244 269.242 113.14 269.241 113.041 269.211C112.714 269.082 112.782 268.816 112.85 268.594L112.671 268.322L112.77 267.97C112.706 267.963 112.645 267.941 112.59 267.907C112.536 267.873 112.49 267.826 112.456 267.772C112.423 267.717 112.402 267.655 112.395 267.592C112.388 267.528 112.396 267.463 112.418 267.403C112.214 267.267 112.035 267.119 112.214 266.829C111.986 266.705 111.856 266.538 111.961 266.279L111.949 266.261Z" fill="#FFE2E9"/>
<path d="M113.276 269.631L113.097 269.532C113.097 269.199 113.097 269.199 113.498 269.057L113.739 269.236L113.609 269.575C114.035 269.705 114.041 269.717 113.899 270.143C114.023 270.285 114.214 270.452 113.85 270.692C113.776 270.692 113.615 270.692 113.591 270.606C113.473 270.297 113.393 270.007 113.276 269.631Z" fill="#FFE2E9"/>
<path d="M111.257 263.328C111.431 263.376 111.602 263.433 111.769 263.501C111.822 263.519 111.869 263.55 111.907 263.59C111.944 263.631 111.972 263.679 111.987 263.733C112.002 263.786 112.004 263.842 111.993 263.896C111.982 263.95 111.958 264.001 111.924 264.044C111.855 264.148 111.751 264.224 111.632 264.26C111.513 264.296 111.384 264.29 111.269 264.242C111.205 264.213 111.144 264.176 111.09 264.131C111.058 263.993 111.056 263.85 111.085 263.711C111.114 263.572 111.172 263.442 111.257 263.328V263.328Z" fill="#FFE2E9"/>
<path d="M112.066 266.21C111.449 266.075 111.782 265.593 111.782 265.254C111.671 265.149 111.399 265.075 111.597 264.815C112.041 264.723 112.066 264.741 111.986 265.149L112.406 265.636C112.504 265.926 112.301 266.081 112.048 266.223L112.066 266.21Z" fill="#FFE2E9"/>
<path d="M111.344 262.773L111.547 263.094L111.282 263.391L110.874 263.317C110.85 262.922 110.85 262.922 111.344 262.773Z" fill="#FFE2E9"/>
<path d="M117.455 279.494L117.659 279.809L117.393 280.105L116.986 280.031C116.961 279.642 116.961 279.642 117.455 279.494Z" fill="#FFE2E9"/>
<path d="M114.165 270.494L114.369 270.815L114.11 271.111L113.702 271.037C113.69 270.642 113.69 270.642 114.165 270.494Z" fill="#FFE2E9"/>
<path d="M111.967 264.619L111.64 264.816C111.319 264.613 111.319 264.613 111.554 264.31C111.838 264.261 111.961 264.323 111.967 264.619Z" fill="#FFE2E9"/>
<path d="M114.868 274.253C114.953 274.196 115.055 274.173 115.156 274.188C115.256 274.203 115.347 274.255 115.412 274.333V274.58C115.763 274.759 115.763 274.759 115.788 275.13C116.041 275.303 116.208 275.519 115.93 275.84C116.344 275.938 116.344 275.938 116.356 276.383C116.646 276.673 116.689 276.833 116.517 277.037C116.45 277.115 116.362 277.172 116.263 277.201C116.164 277.229 116.059 277.228 115.961 277.198C115.634 277.068 115.702 276.802 115.77 276.58L115.597 276.315L115.689 275.963C115.627 275.954 115.566 275.931 115.513 275.896C115.46 275.861 115.416 275.814 115.382 275.76C115.349 275.706 115.327 275.646 115.32 275.583C115.312 275.52 115.318 275.456 115.338 275.395C115.134 275.259 114.955 275.105 115.14 274.821C114.912 274.691 114.776 274.531 114.881 274.272L114.868 274.253Z" fill="#FFE2E9"/>
<path d="M116.202 277.623L116.017 277.518C116.017 277.191 116.017 277.191 116.418 277.043L116.659 277.228L116.529 277.561C116.955 277.691 116.967 277.703 116.819 278.129C116.943 278.271 117.134 278.438 116.77 278.679C116.696 278.679 116.535 278.679 116.51 278.599C116.393 278.321 116.313 278 116.202 277.623Z" fill="#FFE2E9"/>
<path d="M114.177 271.314C114.35 271.37 114.529 271.419 114.69 271.487C114.743 271.505 114.791 271.536 114.83 271.577C114.868 271.618 114.897 271.667 114.912 271.721C114.927 271.775 114.929 271.832 114.917 271.887C114.905 271.942 114.88 271.994 114.844 272.037C114.775 272.14 114.672 272.217 114.552 272.253C114.433 272.289 114.305 272.282 114.19 272.234C114.125 272.204 114.065 272.164 114.011 272.117C113.978 271.979 113.976 271.836 114.005 271.697C114.034 271.559 114.093 271.428 114.177 271.314V271.314Z" fill="#FFE2E9"/>
<path d="M114.986 274.205C114.368 274.063 114.702 273.587 114.708 273.248C114.591 273.143 114.319 273.063 114.523 272.81C114.961 272.717 114.986 272.736 114.905 273.137L115.325 273.624C115.424 273.915 115.22 274.075 114.967 274.242L114.986 274.205Z" fill="#FFE2E9"/>
<path d="M114.264 270.766L114.467 271.08L114.202 271.377L113.801 271.303C113.77 270.914 113.77 270.914 114.264 270.766Z" fill="#FFE2E9"/>
<path d="M117.084 278.488L117.288 278.803L117.029 279.099L116.621 279.025C116.591 278.636 116.591 278.636 117.084 278.488Z" fill="#FFE2E9"/>
<path d="M114.886 272.611L114.559 272.803C114.244 272.599 114.244 272.599 114.473 272.303C114.726 272.247 114.88 272.315 114.886 272.611Z" fill="#FFE2E9"/>
<path d="M117.393 279.432L117.066 279.623C116.745 279.419 116.745 279.419 116.979 279.123C117.22 279.068 117.393 279.136 117.393 279.432Z" fill="#FFE2E9"/>
<path d="M110.504 274.482C110.264 274.482 110.097 274.439 110.017 274.278L110.103 274.099C109.832 273.877 109.832 273.877 109.937 273.599C109.758 273.408 109.677 273.21 110.054 273.05C109.69 272.871 109.69 272.871 109.838 272.544C109.659 272.254 109.677 272.13 109.912 272.025C110.004 271.987 110.103 271.97 110.202 271.976C110.302 271.981 110.399 272.008 110.486 272.056C110.751 272.235 110.597 272.414 110.443 272.575L110.517 272.821L110.307 273.05C110.554 273.18 110.603 273.352 110.443 273.55C110.585 273.704 110.702 273.859 110.443 274.019C110.616 274.173 110.683 274.328 110.492 274.488L110.504 274.482Z" fill="#FFE2E9"/>
<path d="M110.405 271.691L110.541 271.809C110.43 272.049 110.43 272.049 110.004 272.049L109.838 271.852L110.078 271.642C109.72 271.438 109.714 271.426 109.998 271.154C109.936 271.018 109.813 270.852 110.233 270.771C110.294 270.809 110.449 270.852 110.449 270.901C110.451 271.165 110.437 271.429 110.405 271.691V271.691Z" fill="#FFE2E9"/>
<path d="M110.14 276.784C109.995 276.706 109.855 276.62 109.72 276.525C109.535 276.383 109.56 276.204 109.763 276.093C109.867 276.031 109.985 275.998 110.106 275.998C110.227 275.998 110.345 276.031 110.448 276.093C110.494 276.131 110.536 276.175 110.572 276.222C110.498 276.519 110.461 276.562 110.14 276.784Z" fill="#FFE2E9"/>
<path d="M110.368 274.489C110.899 274.748 110.436 274.982 110.306 275.254C110.38 275.359 110.609 275.489 110.306 275.618C109.856 275.569 109.843 275.55 110.059 275.279L109.831 274.816C109.831 274.581 110.084 274.519 110.368 274.482V274.489Z" fill="#FFE2E9"/>
<path d="M109.868 277.166L109.788 276.883L110.14 276.734L110.492 276.895C110.387 277.191 110.387 277.191 109.868 277.166Z" fill="#FFE2E9"/>
<path d="M109.868 263.452L109.788 263.168L110.14 263.02L110.492 263.18C110.387 263.507 110.387 263.507 109.868 263.452Z" fill="#FFE2E9"/>
<path d="M109.868 270.828L109.788 270.544L110.14 270.402L110.492 270.563C110.387 270.853 110.387 270.853 109.868 270.828Z" fill="#FFE2E9"/>
<path d="M109.918 275.661L110.295 275.611C110.523 275.84 110.523 275.84 110.202 275.994C109.943 275.963 109.826 275.883 109.918 275.661Z" fill="#FFE2E9"/>
<path d="M110.504 267.927C110.264 267.927 110.097 267.883 110.017 267.723L110.103 267.544C109.832 267.322 109.832 267.322 109.937 267.044C109.758 266.853 109.677 266.655 110.054 266.495C109.69 266.316 109.69 266.316 109.838 265.988C109.659 265.705 109.677 265.575 109.912 265.47C110.004 265.434 110.103 265.418 110.202 265.423C110.301 265.428 110.398 265.455 110.486 265.501C110.751 265.686 110.597 265.859 110.443 266.019L110.517 266.266L110.307 266.495C110.554 266.624 110.603 266.797 110.443 267.001C110.585 267.149 110.702 267.303 110.443 267.464C110.616 267.618 110.683 267.772 110.492 267.933L110.504 267.927Z" fill="#FFE2E9"/>
<path d="M110.405 265.137L110.541 265.254C110.43 265.495 110.43 265.495 110.004 265.495L109.838 265.297L110.078 265.087C109.72 264.883 109.714 264.871 109.998 264.606C109.936 264.464 109.813 264.297 110.233 264.217C110.294 264.254 110.449 264.297 110.449 264.346C110.451 264.61 110.437 264.874 110.405 265.137V265.137Z" fill="#FFE2E9"/>
<path d="M110.14 270.235C109.998 270.142 109.844 270.068 109.72 269.969C109.597 269.871 109.56 269.648 109.763 269.537C109.869 269.479 109.989 269.45 110.11 269.456C110.231 269.461 110.348 269.5 110.449 269.568C110.494 269.605 110.536 269.646 110.572 269.692C110.498 269.963 110.461 270.006 110.14 270.235Z" fill="#FFE2E9"/>
<path d="M110.368 267.932C110.899 268.191 110.436 268.432 110.306 268.697C110.38 268.802 110.609 268.932 110.306 269.062C109.856 269.012 109.843 268.994 110.059 268.722L109.831 268.259C109.831 268.025 110.084 267.963 110.368 267.926V267.932Z" fill="#FFE2E9"/>
<path d="M109.868 270.612L109.788 270.328L110.14 270.18L110.492 270.346C110.387 270.636 110.387 270.636 109.868 270.612Z" fill="#FFE2E9"/>
<path d="M109.868 264.272L109.788 263.988L110.14 263.846L110.492 264.006C110.387 264.296 110.387 264.296 109.868 264.272Z" fill="#FFE2E9"/>
<path d="M109.918 269.112L110.295 269.057C110.523 269.285 110.523 269.285 110.202 269.439C109.943 269.415 109.826 269.328 109.918 269.112Z" fill="#FFE2E9"/>
<path d="M109.918 263.507L110.295 263.451C110.523 263.686 110.523 263.686 110.202 263.84C109.943 263.815 109.826 263.729 109.918 263.507Z" fill="#FFE2E9"/>
<path d="M115.85 263.254C115.952 263.265 116.046 263.313 116.115 263.389C116.183 263.466 116.221 263.565 116.22 263.667L116.053 263.853C116.214 264.217 116.214 264.217 115.992 264.519C116.072 264.809 116.06 265.081 115.64 265.137C115.893 265.476 115.893 265.482 115.64 265.828C115.677 266.235 115.603 266.383 115.337 266.445C115.237 266.459 115.134 266.444 115.041 266.403C114.949 266.362 114.869 266.295 114.813 266.211C114.646 265.896 114.868 265.742 115.084 265.593L115.121 265.272L115.424 265.063C115.38 265.016 115.347 264.959 115.328 264.898C115.309 264.837 115.304 264.772 115.313 264.708C115.323 264.645 115.347 264.584 115.383 264.531C115.419 264.478 115.467 264.434 115.523 264.402C115.455 264.167 115.411 263.939 115.739 263.834C115.646 263.593 115.652 263.384 115.899 263.254H115.85Z" fill="#FFE2E9"/>
<path d="M114.695 266.686L114.621 266.489C114.837 266.236 114.837 266.236 115.238 266.384L115.306 266.68L114.991 266.853C115.238 267.229 115.232 267.242 114.849 267.47C114.849 267.655 114.886 267.902 114.461 267.853C114.417 267.791 114.294 267.686 114.312 267.625C114.405 267.334 114.541 267.044 114.695 266.686Z" fill="#FFE2E9"/>
<path d="M117.22 260.562C117.321 260.712 117.414 260.866 117.498 261.025C117.526 261.073 117.541 261.127 117.544 261.182C117.547 261.237 117.536 261.292 117.513 261.342C117.49 261.392 117.455 261.436 117.412 261.47C117.369 261.504 117.318 261.527 117.263 261.538C117.146 261.572 117.02 261.564 116.908 261.515C116.795 261.467 116.703 261.381 116.646 261.272C116.618 261.207 116.597 261.139 116.584 261.069C116.649 260.944 116.739 260.835 116.848 260.748C116.958 260.66 117.085 260.597 117.22 260.562V260.562Z" fill="#FFE2E9"/>
<path d="M115.98 263.29C115.597 262.784 116.134 262.673 116.375 262.377C116.375 262.222 116.202 261.988 116.517 261.92C116.918 262.136 116.924 262.167 116.597 262.42V263.037C116.486 263.321 116.227 263.309 115.943 263.253L115.98 263.29Z" fill="#FFE2E9"/>
<path d="M117.64 260.192L117.591 260.568L117.202 260.624L116.937 260.303C117.165 259.988 117.165 259.988 117.64 260.192Z" fill="#FFE2E9"/>
<path d="M111.529 276.913L111.48 277.29L111.091 277.345L110.825 277.024C111.054 276.703 111.054 276.703 111.529 276.913Z" fill="#FFE2E9"/>
<path d="M114.819 267.914L114.77 268.291L114.375 268.346L114.116 268.031C114.344 267.71 114.344 267.71 114.819 267.914Z" fill="#FFE2E9"/>
<path d="M116.923 262.008L116.547 261.946C116.436 261.588 116.436 261.588 116.812 261.508C117.035 261.656 117.109 261.779 116.923 262.008Z" fill="#FFE2E9"/>
<path d="M112.93 271.242C113.159 271.304 113.294 271.427 113.294 271.656L113.134 271.847C113.294 272.205 113.294 272.205 113.066 272.508C113.152 272.804 113.14 273.069 112.72 273.125C112.973 273.471 112.973 273.471 112.72 273.816C112.757 274.23 112.683 274.372 112.418 274.433C112.317 274.45 112.213 274.437 112.12 274.396C112.027 274.354 111.948 274.285 111.893 274.199C111.727 273.89 111.949 273.73 112.165 273.582L112.202 273.261L112.504 273.057C112.46 273.009 112.428 272.953 112.408 272.891C112.389 272.829 112.384 272.764 112.394 272.7C112.403 272.636 112.427 272.575 112.463 272.521C112.499 272.468 112.547 272.423 112.603 272.39C112.529 272.156 112.492 271.927 112.819 271.822C112.72 271.582 112.727 271.372 112.98 271.242H112.93Z" fill="#FFE2E9"/>
<path d="M111.776 274.673L111.702 274.482C111.912 274.229 111.912 274.229 112.319 274.371L112.387 274.667L112.072 274.84C112.319 275.217 112.313 275.235 111.931 275.457C111.931 275.643 111.968 275.896 111.542 275.846C111.498 275.785 111.375 275.673 111.393 275.618C111.486 275.322 111.622 275.038 111.776 274.673Z" fill="#FFE2E9"/>
<path d="M114.307 268.551C114.41 268.699 114.505 268.854 114.591 269.014C114.618 269.062 114.634 269.116 114.636 269.171C114.639 269.227 114.628 269.282 114.606 269.333C114.583 269.383 114.548 269.428 114.505 269.462C114.462 269.497 114.411 269.521 114.356 269.532C114.238 269.563 114.112 269.553 114 269.504C113.888 269.455 113.796 269.369 113.739 269.261C113.711 269.195 113.69 269.127 113.677 269.057C113.741 268.933 113.83 268.825 113.939 268.737C114.047 268.65 114.172 268.587 114.307 268.551V268.551Z" fill="#FFE2E9"/>
<path d="M113.072 271.278C112.696 270.778 113.233 270.661 113.474 270.365C113.474 270.21 113.301 269.982 113.616 269.914C114.017 270.13 114.017 270.155 113.696 270.414V271.031C113.591 271.315 113.332 271.309 113.079 271.247L113.072 271.278Z" fill="#FFE2E9"/>
<path d="M114.72 268.187L114.671 268.563L114.276 268.613L114.017 268.298C114.245 267.977 114.245 267.977 114.72 268.187Z" fill="#FFE2E9"/>
<path d="M111.899 275.907L111.85 276.284L111.455 276.339L111.195 276.019C111.424 275.698 111.424 275.698 111.899 275.907Z" fill="#FFE2E9"/>
<path d="M114.004 270L113.627 269.932C113.516 269.574 113.516 269.574 113.893 269.494C114.115 269.618 114.189 269.766 114.004 270Z" fill="#FFE2E9"/>
<path d="M111.51 276.821L111.134 276.753C111.023 276.395 111.023 276.395 111.399 276.314C111.621 276.469 111.696 276.586 111.51 276.821Z" fill="#FFE2E9"/>
<path d="M119.177 276.42C119.071 276.406 118.975 276.351 118.909 276.267C118.843 276.183 118.813 276.076 118.825 275.97L119.004 275.747C118.862 275.34 118.862 275.34 119.103 274.988C119.035 274.655 119.06 274.371 119.492 274.247C119.251 273.871 119.251 273.871 119.554 273.457C119.554 272.994 119.616 272.84 119.893 272.754C119.994 272.731 120.1 272.742 120.193 272.786C120.287 272.829 120.364 272.903 120.412 272.994C120.566 273.34 120.332 273.531 120.103 273.716L120.048 274.081L119.733 274.334C119.774 274.392 119.803 274.459 119.819 274.529C119.834 274.599 119.836 274.671 119.823 274.742C119.81 274.812 119.784 274.88 119.745 274.94C119.706 275 119.656 275.052 119.597 275.093C119.659 275.358 119.683 275.618 119.35 275.754C119.408 275.869 119.42 276.003 119.385 276.127C119.35 276.252 119.269 276.358 119.159 276.426L119.177 276.42Z" fill="#FFE2E9"/>
<path d="M120.529 272.452L120.597 272.668C120.368 272.965 120.368 272.965 119.979 272.823L119.924 272.489L120.257 272.273C120.029 271.86 120.029 271.841 120.436 271.557C120.436 271.341 120.436 271.063 120.85 271.094C120.893 271.168 121.01 271.279 120.992 271.347C120.862 271.693 120.708 272.026 120.529 272.452Z" fill="#FFE2E9"/>
<path d="M117.646 279.555C117.56 279.383 117.455 279.216 117.387 279.037C117.358 278.98 117.342 278.917 117.34 278.853C117.338 278.789 117.35 278.725 117.376 278.666C117.401 278.607 117.439 278.555 117.486 278.512C117.534 278.47 117.591 278.438 117.652 278.42C117.771 278.379 117.901 278.384 118.016 278.436C118.131 278.488 118.221 278.581 118.27 278.697C118.293 278.77 118.31 278.844 118.319 278.92C118.255 279.065 118.162 279.196 118.046 279.305C117.931 279.414 117.795 279.499 117.646 279.555V279.555Z" fill="#FFE2E9"/>
<path d="M119.054 276.383C119.418 276.938 118.856 277.111 118.597 277.444C118.597 277.623 118.757 277.876 118.43 277.969C118.035 277.747 118.035 277.716 118.375 277.407V276.673C118.504 276.339 118.763 276.339 119.054 276.389V276.383Z" fill="#FFE2E9"/>
<path d="M117.202 280.001L117.27 279.569L117.671 279.488L117.924 279.834C117.671 280.21 117.671 280.21 117.202 280.001Z" fill="#FFE2E9"/>
<path d="M124.282 260.624L124.35 260.192L124.751 260.111L125.004 260.457C124.757 260.834 124.757 260.834 124.282 260.624Z" fill="#FFE2E9"/>
<path d="M120.479 271.049L120.547 270.617L120.949 270.537L121.202 270.883C120.942 271.259 120.942 271.259 120.479 271.049Z" fill="#FFE2E9"/>
<path d="M118.01 277.896L118.387 277.952C118.479 278.353 118.479 278.353 118.103 278.464C117.887 278.322 117.819 278.168 118.01 277.896Z" fill="#FFE2E9"/>
<path d="M122.565 267.162C122.459 267.148 122.363 267.093 122.297 267.008C122.231 266.924 122.201 266.817 122.214 266.711L122.386 266.489C122.245 266.081 122.244 266.081 122.491 265.723C122.417 265.396 122.442 265.106 122.88 264.989C122.633 264.612 122.633 264.606 122.936 264.199C122.936 263.736 123.004 263.581 123.275 263.495C123.377 263.471 123.484 263.482 123.579 263.525C123.674 263.569 123.752 263.643 123.8 263.736C123.954 264.081 123.72 264.273 123.491 264.452L123.436 264.822L123.115 265.069C123.199 265.188 123.233 265.335 123.208 265.479C123.184 265.622 123.104 265.75 122.985 265.835C123.041 266.1 123.072 266.359 122.732 266.489C122.79 266.605 122.802 266.738 122.767 266.862C122.732 266.987 122.651 267.094 122.541 267.162H122.565Z" fill="#FFE2E9"/>
<path d="M123.918 263.191L123.979 263.401C123.751 263.704 123.751 263.704 123.362 263.556L123.307 263.222L123.634 263.012C123.405 262.593 123.412 262.58 123.813 262.296C123.813 262.08 123.813 261.796 124.233 261.833C124.27 261.901 124.393 262.019 124.368 262.086C124.245 262.432 124.091 262.765 123.918 263.191Z" fill="#FFE2E9"/>
<path d="M121.035 270.297C120.936 270.132 120.847 269.961 120.77 269.784C120.742 269.727 120.727 269.664 120.725 269.601C120.724 269.537 120.736 269.474 120.761 269.415C120.786 269.356 120.824 269.304 120.871 269.261C120.918 269.218 120.974 269.186 121.035 269.167C121.154 269.123 121.285 269.127 121.401 269.179C121.516 269.231 121.607 269.327 121.652 269.445C121.679 269.516 121.698 269.591 121.708 269.667C121.643 269.812 121.551 269.942 121.435 270.05C121.32 270.158 121.183 270.242 121.035 270.297Z" fill="#FFE2E9"/>
<path d="M122.436 267.125C122.801 267.68 122.245 267.853 121.986 268.187C121.986 268.359 122.146 268.619 121.819 268.711C121.424 268.489 121.418 268.458 121.764 268.15V267.415C121.887 267.082 122.153 267.082 122.436 267.131V267.125Z" fill="#FFE2E9"/>
<path d="M120.584 270.741L120.652 270.309L121.053 270.229L121.306 270.574C121.059 270.951 121.059 270.951 120.584 270.741Z" fill="#FFE2E9"/>
<path d="M123.856 261.792L123.924 261.36L124.326 261.273L124.579 261.625C124.332 262.002 124.332 262.002 123.856 261.792Z" fill="#FFE2E9"/>
<path d="M121.405 268.637L121.788 268.686C121.88 269.094 121.88 269.093 121.498 269.205C121.275 269.063 121.201 268.908 121.405 268.637Z" fill="#FFE2E9"/>
<path d="M124.294 260.729L124.677 260.784C124.769 261.185 124.769 261.185 124.386 261.296C124.183 261.167 124.09 261 124.294 260.729Z" fill="#FFE2E9"/>
<path d="M157.417 162.176C141.047 166.521 123.826 166.521 107.455 162.176Z" fill="#4EB3B2"/>
<path d="M116.775 164.744C116.775 164.38 117.01 164.164 117.609 164.127L118.226 164.355C118.503 164.21 118.811 164.135 119.124 164.135C119.437 164.135 119.745 164.21 120.022 164.355C120.726 164.183 121.436 164.127 121.936 164.75C122.639 164.287 122.639 164.294 123.788 164.615C124.825 164.442 125.263 164.504 125.639 164.874C125.701 164.934 125.746 165.009 125.772 165.092C125.797 165.174 125.801 165.262 125.784 165.347C125.767 165.431 125.729 165.51 125.673 165.576C125.618 165.643 125.547 165.694 125.467 165.726C124.788 166.084 124.183 165.781 123.615 165.503L122.744 165.54L121.961 165.133C121.685 165.296 121.37 165.382 121.05 165.382C120.73 165.382 120.415 165.296 120.14 165.133C119.867 165.249 119.567 165.289 119.274 165.248C118.98 165.206 118.703 165.086 118.473 164.899C118.203 165.003 117.912 165.041 117.624 165.01C117.336 164.979 117.06 164.879 116.819 164.72L116.775 164.744Z" fill="#6B322F"/>
<path d="M126.727 165.694L126.288 165.866C125.436 165.644 125.436 165.644 125.492 165.008L126.202 164.805L126.924 165.212C127.689 164.724 127.727 164.712 128.665 165.175C129.152 165.095 129.757 164.947 130.023 165.582C129.893 165.675 129.726 165.897 129.554 165.891C128.683 165.86 127.813 165.805 126.727 165.694Z" fill="#6B322F"/>
<path d="M108.783 162.571C109.135 162.441 109.462 162.287 109.832 162.176C110.094 162.1 110.371 162.098 110.633 162.17C110.896 162.241 111.133 162.385 111.32 162.583C111.659 162.972 111.548 163.349 110.999 163.565C110.837 163.609 110.672 163.638 110.505 163.651C109.834 163.475 109.233 163.098 108.783 162.571V162.571Z" fill="#6B322F"/>
<path d="M116.776 164.54C115.72 165.157 114.986 164.348 114.085 163.978C113.696 163.978 113.177 164.268 112.794 163.762C113.103 163.145 113.171 163.145 114.06 163.632C114.634 163.632 115.214 163.632 115.745 163.583C116.572 163.737 116.726 164.132 116.782 164.577L116.776 164.54Z" fill="#6B322F"/>
<path d="M107.585 161.836L108.591 161.978L108.955 162.595L108.264 162.972C107.288 162.564 107.288 162.558 107.585 161.836Z" fill="#6B322F"/>
<path d="M155.85 162.212L156.8 161.842L157.418 162.212L156.998 162.879C155.955 162.996 155.955 162.984 155.85 162.212Z" fill="#6B322F"/>
<path d="M129.837 165.033L130.849 164.922L131.356 165.459L130.738 165.984C129.738 165.811 129.738 165.805 129.837 165.033Z" fill="#6B322F"/>
<path d="M112.764 163.126L112.838 163.743C111.961 163.916 111.955 163.916 111.511 163.329C111.702 162.947 112.035 162.829 112.764 163.126Z" fill="#6B322F"/>
<path d="M140.232 165.687C140.14 165.335 140.325 165.069 140.893 164.896L141.51 164.971C141.745 164.766 142.025 164.619 142.328 164.543C142.63 164.467 142.947 164.463 143.251 164.532C143.868 164.193 144.572 163.989 145.208 164.464C145.775 163.847 145.782 163.847 146.954 163.896C147.924 163.483 148.362 163.44 148.806 163.717C148.879 163.762 148.94 163.824 148.983 163.898C149.027 163.972 149.051 164.056 149.054 164.141C149.057 164.227 149.039 164.312 149.001 164.389C148.963 164.466 148.907 164.532 148.837 164.582C148.269 165.088 147.603 164.946 146.985 164.81L146.14 165.045L145.288 164.841C145.058 165.064 144.772 165.221 144.46 165.295C144.148 165.369 143.822 165.357 143.516 165.261C143.281 165.442 143 165.554 142.704 165.585C142.409 165.615 142.111 165.563 141.843 165.433C141.605 165.596 141.332 165.701 141.046 165.74C140.76 165.779 140.468 165.75 140.195 165.656L140.232 165.687Z" fill="#6B322F"/>
<path d="M150.109 164.249L149.72 164.521C148.843 164.521 148.843 164.521 148.738 163.904L149.356 163.539L150.158 163.762C150.775 163.095 150.818 163.095 151.837 163.323C152.294 163.132 152.849 162.829 153.257 163.391C153.152 163.508 153.041 163.762 152.874 163.799C152.072 163.965 151.207 164.083 150.109 164.249Z" fill="#6B322F"/>
<path d="M131.954 165.472C132.269 165.262 132.571 165.033 132.886 164.854C133.122 164.718 133.391 164.649 133.664 164.657C133.936 164.664 134.201 164.748 134.429 164.897C134.849 165.2 134.831 165.595 134.349 165.928C134.2 166.007 134.046 166.073 133.886 166.126C133.19 166.112 132.515 165.883 131.954 165.472V165.472Z" fill="#6B322F"/>
<path d="M140.195 165.496C139.318 166.361 138.411 165.719 137.448 165.589C137.078 165.713 136.633 166.071 136.146 165.682C136.294 165.003 136.362 164.978 137.343 165.262L138.966 164.811C139.806 164.762 140.053 165.114 140.201 165.527L140.195 165.496Z" fill="#6B322F"/>
<path d="M130.615 165.045L131.628 164.934L132.134 165.464L131.554 165.995C130.51 165.816 130.51 165.816 130.615 165.045Z" fill="#6B322F"/>
<path d="M152.991 162.89L153.954 162.551L154.571 162.952L154.127 163.569C153.065 163.65 153.071 163.643 152.991 162.89Z" fill="#6B322F"/>
<path d="M135.954 165.064L136.17 165.619C135.355 165.996 135.355 166.002 134.781 165.533C134.88 165.15 135.182 164.959 135.954 165.064Z" fill="#6B322F"/>
<path d="M155.664 162.336L155.985 162.836C155.263 163.373 155.257 163.361 154.603 163.021C154.615 162.626 154.868 162.385 155.664 162.336Z" fill="#6B322F"/>
<path d="M111.664 166.366C111.664 166.002 111.985 165.816 112.769 165.86L113.572 166.168C114.36 165.946 115.201 166.016 115.942 166.366C116.88 166.279 117.794 166.286 118.473 166.983C119.405 166.582 119.405 166.6 120.905 166.983C122.281 166.891 122.855 166.983 123.318 167.378C123.652 167.668 123.571 168.051 123.084 168.224C122.183 168.539 121.38 168.181 120.615 167.866L119.448 167.829L118.417 167.341C118.025 167.478 117.608 167.531 117.193 167.498C116.779 167.465 116.376 167.347 116.01 167.15C115.634 167.235 115.245 167.241 114.866 167.168C114.488 167.095 114.129 166.943 113.812 166.724C113.063 166.862 112.289 166.724 111.633 166.335L111.664 166.366Z" fill="#6B322F"/>
<path d="M124.844 168.273L124.226 168.421C123.097 168.15 123.097 168.15 123.171 167.514L124.115 167.354L125.072 167.798C126.097 167.36 126.14 167.341 127.38 167.841C128.035 167.779 128.843 167.65 129.189 168.292C129.022 168.384 128.794 168.594 128.572 168.588C127.442 168.52 126.282 168.446 124.844 168.273Z" fill="#6B322F"/>
<path d="M101.239 162.854C101.702 162.786 102.128 162.699 102.615 162.656C102.967 162.633 103.32 162.681 103.652 162.799C103.984 162.917 104.289 163.101 104.547 163.341C104.979 163.798 104.837 164.162 104.115 164.28C103.91 164.299 103.703 164.299 103.498 164.28C102.637 164.001 101.861 163.511 101.239 162.854V162.854Z" fill="#6B322F"/>
<path d="M111.683 166.168C110.282 166.656 109.331 165.736 108.152 165.211C107.64 165.211 106.961 165.372 106.467 164.792C106.875 164.211 106.961 164.224 108.128 164.86C108.875 164.94 109.64 165.014 110.344 165.063C111.424 165.329 111.622 165.755 111.689 166.211L111.683 166.168Z" fill="#6B322F"/>
<path d="M99.7019 161.855C100.152 161.991 100.572 162.102 100.998 162.213L101.467 162.93L100.56 163.176C99.3006 162.547 99.3068 162.528 99.7019 161.855Z" fill="#6B322F"/>
<path d="M163.318 162.539L164.553 161.965L165.374 162.212L164.843 162.983C163.46 163.317 163.46 163.298 163.318 162.539Z" fill="#6B322F"/>
<path d="M128.979 167.743L130.325 167.645L130.997 168.188C130.707 168.373 130.448 168.552 130.214 168.706C128.825 168.521 128.831 168.509 128.979 167.743Z" fill="#6B322F"/>
<path d="M106.424 164.127L106.516 164.744C105.368 164.744 105.356 164.744 104.788 164.127C105.047 163.781 105.473 163.719 106.424 164.127Z" fill="#6B322F"/>
<path d="M142.806 168.139C142.683 167.793 142.924 167.521 143.677 167.293H144.541C145.208 166.821 146.023 166.602 146.837 166.676C147.689 166.274 148.584 165.99 149.43 166.398C150.17 165.7 150.177 165.731 151.726 165.614C152.997 165.077 153.578 164.997 154.133 165.194C154.547 165.355 154.596 165.744 154.189 166.065C153.448 166.682 152.572 166.589 151.757 166.54C151.368 166.657 151.022 166.781 150.652 166.879L149.516 166.768C149.191 167.029 148.815 167.219 148.412 167.325C148.009 167.432 147.588 167.452 147.177 167.385C146.853 167.594 146.488 167.731 146.107 167.787C145.726 167.844 145.337 167.818 144.967 167.713C144.303 168.093 143.525 168.22 142.775 168.071L142.806 168.139Z" fill="#6B322F"/>
<path d="M155.867 165.588L155.361 165.921C154.207 166.026 154.207 166.026 154.065 165.403L154.904 164.946L155.96 165.057C156.775 164.279 156.818 164.279 158.157 164.347C158.775 164.069 159.478 163.68 160.009 164.174C159.873 164.316 159.732 164.594 159.515 164.656C158.411 165.001 157.281 165.254 155.867 165.588Z" fill="#6B322F"/>
<path d="M131.794 168.205C132.214 168.008 132.59 167.773 133.028 167.588C133.35 167.441 133.7 167.365 134.053 167.365C134.407 167.365 134.756 167.441 135.078 167.588C135.64 167.884 135.621 168.273 134.973 168.613C134.773 168.696 134.566 168.765 134.356 168.816C133.464 168.832 132.583 168.621 131.794 168.205V168.205Z" fill="#6B322F"/>
<path d="M142.757 167.947C141.597 168.885 140.387 168.28 139.109 168.213C138.609 168.342 138.029 168.725 137.368 168.348C137.572 167.663 137.652 167.639 138.961 167.885L141.121 167.342C142.232 167.25 142.559 167.571 142.775 167.96L142.757 167.947Z" fill="#6B322F"/>
<path d="M130.01 167.769L131.362 167.67L132.035 168.207L131.263 168.725C129.874 168.54 129.874 168.54 130.01 167.769Z" fill="#6B322F"/>
<path d="M159.602 163.731L160.837 163.219L161.645 163.515L161.071 164.256C159.707 164.515 159.713 164.509 159.602 163.731Z" fill="#6B322F"/>
<path d="M137.146 167.744L137.436 168.287C136.356 168.688 136.35 168.701 135.584 168.244C135.689 167.867 136.084 167.658 137.146 167.744Z" fill="#6B322F"/>
<path d="M163.071 162.707L163.497 163.151C162.565 163.837 162.559 163.824 161.701 163.602C161.713 163.195 162.04 162.892 163.071 162.707Z" fill="#6B322F"/>
<path d="M75.418 162.176C66.6083 162.176 57.9965 164.788 50.6715 169.683C43.3465 174.577 37.6374 181.534 34.2661 189.673C30.8948 197.812 30.0127 206.768 31.7314 215.408C33.4501 224.048 37.6923 231.985 43.9217 238.215C50.1511 244.444 58.0878 248.686 66.7282 250.405C75.3686 252.124 84.3246 251.242 92.4637 247.87C100.603 244.499 107.559 238.79 112.454 231.465C117.348 224.14 119.96 215.528 119.96 206.718C119.96 194.905 115.268 183.575 106.914 175.222C98.561 166.869 87.2314 162.176 75.418 162.176V162.176ZM75.418 225.52C71.6993 225.52 68.0641 224.418 64.9721 222.352C61.8801 220.286 59.4702 217.349 58.0471 213.914C56.624 210.478 56.2516 206.697 56.9771 203.05C57.7026 199.403 59.4933 196.053 62.1229 193.423C64.7524 190.794 68.1026 189.003 71.7499 188.277C75.3971 187.552 79.1776 187.924 82.6133 189.347C86.0489 190.77 88.9854 193.18 91.0514 196.272C93.1174 199.364 94.2202 203 94.2202 206.718C94.2202 209.187 93.7338 211.632 92.7889 213.914C91.844 216.195 90.4591 218.267 88.7131 220.013C86.9672 221.759 84.8945 223.144 82.6133 224.089C80.3321 225.034 77.8871 225.52 75.418 225.52Z" fill="#7F8A44"/>
<path d="M195.287 162.176C186.477 162.176 177.866 164.788 170.541 169.683C163.216 174.577 157.507 181.534 154.135 189.673C150.764 197.812 149.882 206.768 151.601 215.408C153.319 224.048 157.561 231.985 163.791 238.215C170.02 244.444 177.957 248.686 186.597 250.405C195.238 252.124 204.194 251.242 212.333 247.87C220.472 244.499 227.428 238.79 232.323 231.465C237.217 224.14 239.83 215.528 239.83 206.718C239.828 194.905 235.135 183.577 226.782 175.224C218.429 166.871 207.1 162.177 195.287 162.176ZM195.287 225.52C191.568 225.522 187.932 224.42 184.84 222.355C181.747 220.289 179.336 217.353 177.912 213.918C176.488 210.482 176.115 206.702 176.839 203.054C177.564 199.406 179.354 196.055 181.984 193.425C184.613 190.795 187.963 189.004 191.611 188.278C195.258 187.552 199.039 187.924 202.475 189.347C205.911 190.77 208.848 193.18 210.914 196.272C212.98 199.364 214.083 202.999 214.083 206.718C214.083 211.704 212.103 216.485 208.578 220.011C205.054 223.537 200.273 225.519 195.287 225.52V225.52Z" fill="#7F8A44"/>
<path d="M159.954 225.885H101.955V249.995H159.954V225.885Z" fill="#4EB3B2"/>
<path d="M122.201 230.724C122.281 230.49 122.485 230.44 122.868 230.483C122.99 230.555 123.118 230.617 123.251 230.669C123.426 230.561 123.623 230.492 123.828 230.469C124.033 230.446 124.24 230.467 124.436 230.533C124.638 230.413 124.873 230.359 125.108 230.379C125.342 230.399 125.565 230.491 125.744 230.644C126.17 230.286 126.176 230.286 126.979 230.428C127.664 230.255 127.96 230.274 128.213 230.502C128.257 230.539 128.291 230.587 128.311 230.641C128.332 230.694 128.339 230.752 128.332 230.809C128.324 230.866 128.303 230.92 128.269 230.967C128.236 231.014 128.191 231.051 128.139 231.076C127.947 231.173 127.733 231.22 127.517 231.213C127.302 231.207 127.091 231.147 126.905 231.039L126.325 231.107L125.781 230.897C125.609 231.021 125.408 231.099 125.197 231.123C124.987 231.147 124.773 231.116 124.578 231.033C124.406 231.139 124.208 231.195 124.007 231.195C123.805 231.195 123.607 231.139 123.436 231.033C123.224 231.122 122.988 231.14 122.766 231.083C122.543 231.026 122.345 230.898 122.201 230.718V230.724Z" fill="#6B322F"/>
<path d="M128.985 231.001L128.702 231.136C128.127 231.025 128.127 231.025 128.127 230.599L128.597 230.433L129.097 230.667C129.59 230.309 129.615 230.309 130.251 230.593C130.578 230.525 130.985 230.402 131.171 230.828C131.084 230.889 130.979 231.038 130.868 231.044C130.288 231.05 129.739 231.019 128.985 231.001Z" fill="#6B322F"/>
<path d="M122.733 226.014C122.603 226.207 122.495 226.414 122.412 226.631C122.364 226.775 122.283 226.906 122.176 227.013C122.069 227.12 121.938 227.201 121.795 227.249C121.504 227.347 121.239 227.249 121.251 226.823C121.27 226.698 121.308 226.578 121.362 226.465C121.551 226.274 121.778 226.127 122.029 226.032C122.259 225.97 122.5 225.964 122.733 226.014V226.014Z" fill="#6B322F"/>
<path d="M122.257 230.6C122.068 230.625 121.876 230.59 121.708 230.501C121.539 230.411 121.403 230.271 121.319 230.1C121.166 229.772 121.078 229.418 121.059 229.057C120.911 228.835 120.627 228.44 120.924 228.125C121.146 228.205 121.251 228.242 121.288 228.341C121.325 228.44 121.288 228.594 121.288 228.958C121.453 229.275 121.695 229.544 121.992 229.742C122.123 229.849 122.22 229.992 122.272 230.153C122.323 230.314 122.327 230.487 122.282 230.65L122.257 230.6Z" fill="#6B322F"/>
<path d="M123.627 226.124C123.415 226.147 123.207 226.201 123.01 226.285C122.878 226.198 122.737 226.123 122.59 226.063C122.664 225.896 122.757 225.738 122.868 225.594C123.269 225.55 123.485 225.594 123.553 225.655C123.621 225.717 123.652 225.853 123.627 226.124Z" fill="#6B322F"/>
<path d="M142.998 235.551C142.775 235.67 142.538 235.761 142.294 235.823C142.157 235.727 142.029 235.62 141.911 235.502C142.031 235.385 142.141 235.257 142.238 235.119C142.837 235.113 142.849 235.033 142.998 235.551Z" fill="#6B322F"/>
<path d="M131.035 230.465L131.714 230.385L132.053 230.73L131.671 231.088C130.973 230.983 130.973 230.983 131.035 230.465Z" fill="#6B322F"/>
<path d="M121.344 228.051C121.214 228.076 121.086 228.109 120.961 228.15C120.794 227.533 120.856 227.453 121.294 227.23C121.492 227.422 121.51 227.607 121.344 228.051Z" fill="#6B322F"/>
<path d="M137.954 231.094C137.917 230.859 138.047 230.692 138.442 230.606L138.868 230.699C139.037 230.577 139.234 230.499 139.44 230.47C139.646 230.441 139.857 230.462 140.053 230.532C140.255 230.412 140.489 230.359 140.722 230.379C140.956 230.399 141.177 230.491 141.356 230.643C141.486 230.503 141.653 230.4 141.837 230.347C142.111 230.337 142.384 230.398 142.627 230.526C143.417 230.563 143.732 230.878 143.769 231.217C143.806 231.557 143.578 231.618 143.337 231.6C142.899 231.6 142.72 231.328 142.411 231.094C142.245 231.072 142.077 231.072 141.911 231.094L141.368 230.878C141.192 231.007 140.986 231.088 140.769 231.112C140.552 231.136 140.333 231.102 140.133 231.013C139.965 231.115 139.771 231.168 139.575 231.168C139.378 231.168 139.185 231.115 139.016 231.013C138.848 231.107 138.661 231.16 138.469 231.169C138.278 231.177 138.086 231.141 137.911 231.063L137.954 231.094Z" fill="#6B322F"/>
<path d="M143.868 232.13L143.627 232.001C143.418 231.563 143.368 231.575 143.664 231.254C143.828 231.317 143.984 231.4 144.127 231.501C144.18 231.688 144.207 231.881 144.208 232.075C144.479 232.223 144.609 232.353 144.658 232.507C144.7 232.751 144.654 233.003 144.529 233.217C144.59 233.544 144.529 234.056 144.09 234.044C144.09 233.945 143.961 233.797 143.992 233.711C144.151 233.187 144.107 232.623 143.868 232.13V232.13Z" fill="#6B322F"/>
<path d="M132.46 230.736C132.664 230.594 132.856 230.44 133.078 230.31C133.238 230.22 133.419 230.177 133.602 230.184C133.786 230.192 133.963 230.251 134.115 230.353C134.393 230.563 134.374 230.822 134.047 231.038C133.949 231.093 133.846 231.137 133.738 231.168C133.28 231.15 132.836 231 132.46 230.736V230.736Z" fill="#6B322F"/>
<path d="M137.942 230.965C137.325 231.496 136.751 231.033 136.09 230.903C135.837 230.971 135.535 231.199 135.22 230.903C135.337 230.452 135.386 230.44 136.028 230.656L137.133 230.428C137.695 230.428 137.843 230.675 137.923 230.965H137.942Z" fill="#6B322F"/>
<path d="M131.591 230.465L132.27 230.385L132.609 230.73L132.226 231.088C131.498 230.983 131.498 230.983 131.591 230.465Z" fill="#6B322F"/>
<path d="M144.479 234.056C144.412 234.303 144.308 234.538 144.17 234.754C144.006 234.784 143.838 234.797 143.671 234.791C143.677 234.624 143.667 234.456 143.64 234.291C144.053 233.877 144.004 233.803 144.479 234.056Z" fill="#6B322F"/>
<path d="M135.133 230.514L135.263 230.891C134.714 231.113 134.714 231.113 134.343 230.792C134.411 230.539 134.621 230.416 135.133 230.514Z" fill="#6B322F"/>
<path d="M143.127 235.44C143.031 235.348 142.94 235.251 142.855 235.15C143.207 234.718 143.139 234.742 143.627 234.749C143.756 234.965 143.676 235.267 143.127 235.44Z" fill="#6B322F"/>
<path d="M136.96 244.78C136.96 245.014 136.886 245.187 136.584 245.267L136.257 245.175C135.855 245.453 135.855 245.453 135.343 245.348C134.991 245.527 134.627 245.607 134.337 245.23C134.004 245.588 134.004 245.588 133.405 245.446C132.874 245.625 132.646 245.607 132.454 245.372C132.419 245.331 132.393 245.284 132.377 245.232C132.361 245.181 132.355 245.127 132.36 245.073C132.365 245.02 132.381 244.968 132.407 244.921C132.433 244.873 132.468 244.832 132.51 244.798C132.843 244.533 133.164 244.687 133.466 244.841L133.911 244.767L134.331 244.977C134.448 244.854 134.602 244.774 134.77 244.75C134.938 244.725 135.109 244.757 135.257 244.841C135.534 244.699 135.825 244.582 136.115 244.841C136.235 244.748 136.381 244.693 136.533 244.684C136.685 244.676 136.836 244.713 136.966 244.792L136.96 244.78Z" fill="#6B322F"/>
<path d="M131.837 244.872L132.059 244.736C132.498 244.847 132.497 244.847 132.497 245.273L132.139 245.44L131.751 245.205C131.374 245.563 131.349 245.563 130.862 245.286C130.609 245.347 130.3 245.471 130.152 245.051C130.22 244.989 130.3 244.835 130.386 244.835C130.831 244.823 131.281 244.854 131.837 244.872Z" fill="#6B322F"/>
<path d="M141.196 245.137C141.046 245.289 140.888 245.431 140.72 245.563C140.603 245.653 140.458 245.698 140.311 245.69C140.164 245.682 140.024 245.621 139.918 245.52C139.867 245.476 139.828 245.421 139.802 245.359C139.777 245.297 139.766 245.23 139.772 245.163C139.777 245.096 139.798 245.032 139.833 244.975C139.868 244.917 139.916 244.869 139.974 244.834C140.048 244.786 140.126 244.745 140.208 244.711C140.578 244.729 140.929 244.881 141.196 245.137V245.137Z" fill="#6B322F"/>
<path d="M136.967 244.909C137.454 244.384 137.886 244.847 138.38 244.977C138.572 244.903 138.806 244.674 139.047 244.977C138.954 245.421 138.923 245.44 138.43 245.224L137.578 245.452C137.146 245.452 137.035 245.199 136.96 244.909H136.967Z" fill="#6B322F"/>
<path d="M141.893 245.409L141.368 245.495L141.103 245.143C141.214 245.014 141.312 244.896 141.399 244.785C141.936 244.896 141.936 244.896 141.893 245.409Z" fill="#6B322F"/>
<path d="M122.948 249.643C123.106 249.658 123.266 249.658 123.424 249.643C123.491 249.767 123.567 249.887 123.652 250.001C123.551 250.124 123.438 250.236 123.312 250.334C122.72 250.155 122.751 250.112 122.948 249.643Z" fill="#6B322F"/>
<path d="M130.257 245.409L129.732 245.495C129.64 245.365 129.566 245.273 129.467 245.143L129.763 244.785C130.3 244.896 130.3 244.896 130.257 245.409Z" fill="#6B322F"/>
<path d="M139.134 245.366L139.035 244.989C139.461 244.761 139.461 244.761 139.745 245.082C139.689 245.335 139.529 245.458 139.134 245.366Z" fill="#6B322F"/>
<path d="M124.924 244.78C124.924 245.014 124.85 245.187 124.548 245.267L124.22 245.175C123.825 245.459 123.801 245.434 123.332 245.366C123.023 245.595 122.819 245.755 122.393 245.57C122.313 246.051 122.332 245.99 121.869 246.286C121.733 246.767 121.702 246.903 121.418 247.008C121.369 247.032 121.316 247.046 121.262 247.048C121.208 247.05 121.154 247.04 121.104 247.02C121.054 246.999 121.008 246.968 120.971 246.929C120.934 246.89 120.905 246.843 120.887 246.792C120.846 246.595 120.88 246.389 120.983 246.215C121.086 246.042 121.25 245.913 121.443 245.854C121.533 245.709 121.636 245.573 121.751 245.446C121.916 245.397 122.086 245.366 122.257 245.354C122.318 245.172 122.448 245.021 122.619 244.933C122.789 244.845 122.988 244.828 123.171 244.885C123.311 244.782 123.474 244.716 123.646 244.693C123.725 244.685 123.805 244.694 123.88 244.721C123.955 244.748 124.023 244.791 124.078 244.848C124.199 244.754 124.345 244.7 124.497 244.691C124.649 244.682 124.8 244.719 124.93 244.798L124.924 244.78Z" fill="#6B322F"/>
<path d="M120.844 247.563L120.721 247.304C120.9 246.804 120.943 246.828 121.338 246.946C121.357 247.068 121.388 247.188 121.431 247.304C121.331 247.407 121.245 247.523 121.177 247.649C121.566 248.001 121.542 247.927 121.437 248.47C121.597 248.674 121.844 248.804 121.616 249.192C121.529 249.192 121.35 249.192 121.289 249.118C120.967 248.666 120.81 248.117 120.844 247.563V247.563Z" fill="#6B322F"/>
<path d="M129.159 245.137C129.009 245.289 128.85 245.431 128.683 245.563C128.566 245.653 128.421 245.698 128.274 245.69C128.127 245.682 127.987 245.621 127.881 245.52C127.83 245.476 127.791 245.421 127.765 245.359C127.74 245.297 127.729 245.23 127.735 245.163C127.74 245.096 127.761 245.032 127.796 244.975C127.831 244.917 127.879 244.869 127.936 244.834C128.011 244.786 128.089 244.745 128.171 244.711C128.541 244.729 128.891 244.881 129.159 245.137V245.137Z" fill="#6B322F"/>
<path d="M124.93 244.909C125.418 244.384 125.85 244.847 126.344 244.977C126.535 244.903 126.769 244.674 127.01 244.977C126.918 245.421 126.887 245.44 126.393 245.224L125.541 245.452C125.109 245.452 124.998 245.199 124.924 244.909H124.93Z" fill="#6B322F"/>
<path d="M129.856 245.409L129.331 245.495L129.066 245.143L129.362 244.785C129.899 244.896 129.899 244.896 129.856 245.409Z" fill="#6B322F"/>
<path d="M121.831 248.883C121.948 248.987 122.076 249.078 122.213 249.154C122.201 249.298 122.201 249.443 122.213 249.587C122.06 249.629 121.903 249.657 121.744 249.673C121.355 249.173 121.411 249.154 121.831 248.883Z" fill="#6B322F"/>
<path d="M127.097 245.366L126.998 244.989C127.424 244.761 127.424 244.761 127.708 245.082C127.652 245.335 127.492 245.458 127.097 245.366Z" fill="#6B322F"/>
<path d="M122.825 249.655C122.825 249.797 122.825 249.927 122.825 250.044C122.319 250.106 122.276 250.044 122.208 249.637C122.362 249.458 122.523 249.439 122.825 249.655Z" fill="#6B322F"/>
<path d="M132.01 235.113C132.072 235.347 131.868 235.514 131.263 235.594L130.603 235.508C130.02 235.765 129.37 235.824 128.751 235.674C128.426 235.794 128.079 235.846 127.733 235.827C127.387 235.807 127.049 235.718 126.738 235.563C126.072 235.921 126.072 235.921 124.887 235.773C124.493 235.854 124.091 235.893 123.689 235.89C123.479 235.883 123.271 235.846 123.072 235.779C122.782 235.687 122.683 235.434 123.072 235.162C123.243 235.064 123.432 235.001 123.627 234.977C123.789 234.958 123.953 234.958 124.115 234.977C124.43 235.009 124.742 235.067 125.047 235.15L125.936 235.075L126.776 235.292C127.357 235.027 128.014 234.979 128.627 235.156C129.182 234.946 129.795 234.946 130.35 235.156C130.897 234.957 131.495 234.94 132.053 235.106L132.01 235.113Z" fill="#6B322F"/>
<path d="M121.714 235.964L121.806 235.822C121.876 235.728 121.95 235.637 122.029 235.55C122.289 235.396 122.59 235.323 122.893 235.341C123.029 235.378 123.047 235.483 123.09 235.692C122.727 236.008 122.286 236.221 121.813 236.31C121.689 236.705 121.695 236.896 121.615 237.081C121.535 237.266 121.393 237.433 121.232 237.896C121.288 238.402 121.597 238.828 121.418 239.297C121.294 239.223 121.066 239.137 120.986 238.945C120.776 238.435 120.733 237.872 120.864 237.336C120.995 236.8 121.292 236.32 121.714 235.964Z" fill="#6B322F"/>
<path d="M140.485 235.495C140.164 235.637 139.868 235.791 139.522 235.914C139.005 236.1 138.437 236.084 137.93 235.871C137.504 235.667 137.535 235.408 138.035 235.192C138.19 235.137 138.349 235.093 138.51 235.062C139.191 235.072 139.863 235.219 140.485 235.495Z" fill="#6B322F"/>
<path d="M132.029 235.267C132.998 234.736 133.88 235.199 134.85 235.328C135.28 235.158 135.759 235.158 136.189 235.328C136.004 235.779 135.936 235.791 134.955 235.575L133.257 235.804C132.393 235.804 132.164 235.551 132.022 235.267H132.029Z" fill="#6B322F"/>
<path d="M141.874 235.766L140.825 235.846L140.3 235.501L140.918 235.143C141.961 235.248 141.961 235.248 141.874 235.766Z" fill="#6B322F"/>
<path d="M143.522 244.901C143.22 245.146 142.872 245.327 142.498 245.432C142.291 245.361 142.094 245.263 141.911 245.142C142.096 245.028 142.264 244.889 142.411 244.729C142.868 244.673 143.078 244.537 143.214 244.55C143.349 244.562 143.417 244.661 143.522 244.901Z" fill="#6B322F"/>
<path d="M121.64 238.951C121.816 239.202 122.043 239.412 122.307 239.568C122.364 239.763 122.449 239.948 122.56 240.118C122.316 240.152 122.069 240.152 121.825 240.118C121.381 239.686 121.27 239.389 121.263 239.241C121.257 239.093 121.399 239.038 121.64 238.951Z" fill="#6B322F"/>
<path d="M136.356 235.729L136.158 235.352C137.01 235.124 137.01 235.124 137.584 235.451C137.467 235.692 137.146 235.809 136.356 235.729Z" fill="#6B322F"/>
<path d="M131.628 240.742C131.566 240.501 131.776 240.334 132.374 240.254L133.035 240.341C133.617 240.083 134.268 240.024 134.887 240.174C135.212 240.054 135.559 240.002 135.905 240.022C136.251 240.043 136.59 240.134 136.899 240.291C137.566 239.927 137.572 239.927 138.751 240.075C139.806 239.896 140.263 239.915 140.646 240.149C140.93 240.316 140.893 240.575 140.535 240.723C139.912 240.92 139.241 240.904 138.627 240.68L137.745 240.754L136.905 240.544C136.322 240.8 135.668 240.848 135.053 240.68C134.498 240.887 133.887 240.887 133.331 240.68C132.783 240.878 132.186 240.896 131.628 240.729V240.742Z" fill="#6B322F"/>
<path d="M141.874 240.667L141.436 240.803C140.553 240.692 140.553 240.692 140.553 240.266L141.269 240.1C141.541 240.186 141.788 240.254 142.041 240.346C142.319 240.205 142.64 240.17 142.942 240.248C143.279 240.393 143.558 240.647 143.732 240.97C143.964 241.13 144.156 241.341 144.294 241.587C144.356 241.695 144.384 241.82 144.374 241.945C144.365 242.069 144.317 242.188 144.238 242.285C144.152 242.174 143.961 242.087 143.899 241.951C143.716 241.569 143.429 241.246 143.071 241.019C142.713 240.792 142.298 240.67 141.874 240.667Z" fill="#6B322F"/>
<path d="M123.152 240.335C123.498 240.255 123.769 240.076 124.115 239.958C124.633 239.776 125.2 239.791 125.707 240.002C126.133 240.205 126.102 240.471 125.602 240.687C125.447 240.737 125.288 240.779 125.127 240.81C124.777 240.795 124.428 240.753 124.084 240.687C123.946 240.657 123.81 240.618 123.677 240.57C123.494 240.511 123.318 240.432 123.152 240.335Z" fill="#6B322F"/>
<path d="M131.591 240.605C130.621 241.136 129.739 240.673 128.776 240.544C128.345 240.721 127.861 240.721 127.43 240.544C127.615 240.093 127.683 240.081 128.665 240.297L130.368 240.068C131.233 240.068 131.455 240.321 131.603 240.605H131.591Z" fill="#6B322F"/>
<path d="M122.091 239.514C122.338 239.705 122.625 239.84 122.93 239.909C123.044 240.076 123.181 240.225 123.337 240.353C123.115 240.455 122.877 240.522 122.634 240.551C122.078 240.285 121.875 240.038 121.825 239.896C121.776 239.754 121.887 239.68 122.091 239.514Z" fill="#6B322F"/>
<path d="M144.553 241.957C144.701 242.321 144.767 242.713 144.745 243.105C144.608 243.281 144.448 243.437 144.269 243.568C144.23 243.352 144.157 243.144 144.053 242.951C144.133 242.5 144.053 242.266 144.127 242.136C144.201 242.006 144.263 241.994 144.553 241.957Z" fill="#6B322F"/>
<path d="M127.27 240.155L127.467 240.531C126.621 240.76 126.621 240.76 126.047 240.439C126.171 240.186 126.486 240.05 127.27 240.155Z" fill="#6B322F"/>
<path d="M143.696 244.711C143.563 244.661 143.433 244.603 143.307 244.538C143.554 244.211 143.603 244.026 143.708 243.921C143.854 243.783 144.013 243.659 144.183 243.551C144.242 243.607 144.283 243.679 144.3 243.758C144.318 243.837 144.312 243.92 144.282 243.995C144.17 244.292 143.964 244.543 143.696 244.711V244.711Z" fill="#6B322F"/>
<path d="M102.542 245.402C102.399 245.441 102.247 245.428 102.113 245.365C101.979 245.301 101.873 245.192 101.813 245.056L101.943 244.748C101.535 244.377 101.535 244.377 101.696 243.902C101.424 243.575 101.301 243.242 101.863 242.97C101.325 242.661 101.325 242.655 101.542 242.106C101.276 241.612 101.301 241.402 101.653 241.223C101.788 241.157 101.938 241.127 102.089 241.137C102.24 241.146 102.385 241.195 102.511 241.279C102.912 241.581 102.677 241.896 102.449 242.161L102.56 242.569L102.245 242.964C102.327 242.994 102.4 243.044 102.457 243.11C102.515 243.175 102.556 243.254 102.576 243.338C102.596 243.423 102.595 243.512 102.573 243.596C102.551 243.68 102.508 243.758 102.449 243.822C102.665 244.081 102.838 244.346 102.449 244.618C102.702 244.877 102.801 245.137 102.523 245.408L102.542 245.402Z" fill="#6B322F"/>
<path d="M102.399 240.667L102.603 240.871C102.436 241.278 102.436 241.278 101.794 241.278L101.548 240.945L101.906 240.587C101.369 240.235 101.362 240.217 101.782 239.76C101.69 239.525 101.504 239.241 102.134 239.105C102.227 239.167 102.461 239.241 102.461 239.322C102.473 239.717 102.43 240.13 102.399 240.667Z" fill="#6B322F"/>
<path d="M101.998 249.309C101.788 249.161 101.553 249.025 101.381 248.865C101.318 248.822 101.268 248.764 101.235 248.696C101.202 248.628 101.188 248.552 101.194 248.476C101.201 248.401 101.227 248.328 101.271 248.267C101.314 248.205 101.373 248.155 101.442 248.124C101.598 248.026 101.779 247.979 101.962 247.987C102.146 247.996 102.322 248.061 102.467 248.173C102.539 248.238 102.603 248.31 102.658 248.389C102.535 248.871 102.479 248.945 101.998 249.309Z" fill="#6B322F"/>
<path d="M102.344 245.409C103.14 245.859 102.443 246.26 102.251 246.717C102.356 246.896 102.696 247.112 102.251 247.334C101.579 247.248 101.56 247.217 101.881 246.754L101.542 245.964C101.542 245.563 101.918 245.458 102.35 245.402L102.344 245.409Z" fill="#6B322F"/>
<path d="M101.591 249.976L101.467 249.489L101.992 249.248L102.529 249.52C102.368 250.02 102.369 250.02 101.591 249.976Z" fill="#6B322F"/>
<path d="M101.591 226.613L101.467 226.126L101.992 225.885L102.529 226.156C102.368 226.656 102.369 226.656 101.591 226.613Z" fill="#6B322F"/>
<path d="M101.591 239.186L101.467 238.698L101.992 238.451L102.529 238.729C102.368 239.223 102.369 239.223 101.591 239.186Z" fill="#6B322F"/>
<path d="M101.665 247.421L102.226 247.328C102.566 247.717 102.566 247.717 102.084 247.989C101.702 247.933 101.523 247.785 101.665 247.421Z" fill="#6B322F"/>
<path d="M102.542 234.236C102.399 234.275 102.247 234.262 102.113 234.199C101.979 234.135 101.873 234.026 101.813 233.89L101.943 233.582C101.535 233.211 101.535 233.211 101.696 232.736C101.424 232.409 101.301 232.076 101.863 231.804C101.325 231.495 101.325 231.489 101.542 230.94C101.276 230.446 101.301 230.236 101.653 230.057C101.788 229.991 101.938 229.961 102.089 229.971C102.24 229.98 102.385 230.029 102.511 230.113C102.912 230.415 102.677 230.73 102.449 230.995L102.56 231.403L102.245 231.798C102.327 231.828 102.4 231.878 102.457 231.944C102.515 232.009 102.556 232.088 102.576 232.172C102.596 232.257 102.595 232.346 102.573 232.43C102.551 232.514 102.508 232.592 102.449 232.656C102.665 232.915 102.838 233.18 102.449 233.452C102.702 233.711 102.801 233.971 102.523 234.242L102.542 234.236Z" fill="#6B322F"/>
<path d="M102.399 229.484L102.603 229.687C102.436 230.095 102.436 230.095 101.794 230.095L101.548 229.761L101.906 229.403C101.369 229.052 101.362 229.033 101.782 228.576C101.69 228.342 101.504 228.058 102.134 227.922C102.227 227.984 102.461 228.058 102.461 228.138C102.473 228.552 102.43 228.94 102.399 229.484Z" fill="#6B322F"/>
<path d="M101.998 238.198C101.788 238.05 101.553 237.914 101.381 237.753C101.318 237.711 101.268 237.653 101.235 237.584C101.202 237.516 101.188 237.44 101.194 237.365C101.201 237.29 101.227 237.217 101.271 237.155C101.314 237.093 101.373 237.044 101.442 237.013C101.598 236.915 101.779 236.867 101.962 236.876C102.146 236.885 102.322 236.95 102.467 237.062C102.539 237.126 102.603 237.199 102.658 237.278C102.535 237.704 102.479 237.778 101.998 238.198Z" fill="#6B322F"/>
<path d="M102.344 234.243C103.14 234.693 102.443 235.094 102.251 235.551C102.356 235.73 102.696 235.946 102.251 236.168C101.579 236.082 101.56 236.051 101.881 235.588L101.542 234.798C101.542 234.397 101.918 234.292 102.35 234.236L102.344 234.243Z" fill="#6B322F"/>
<path d="M101.591 238.816L101.467 238.329L101.992 238.088L102.529 238.359C102.368 238.853 102.369 238.853 101.591 238.816Z" fill="#6B322F"/>
<path d="M101.591 228.02L101.467 227.532L101.992 227.285L102.529 227.563C102.368 228.057 102.369 228.057 101.591 228.02Z" fill="#6B322F"/>
<path d="M101.665 236.255L102.226 236.162C102.566 236.551 102.566 236.551 102.084 236.823C101.702 236.767 101.523 236.619 101.665 236.255Z" fill="#6B322F"/>
<path d="M101.665 226.718L102.226 226.625C102.566 227.02 102.566 227.02 102.084 227.285C101.702 227.236 101.523 227.088 101.665 226.718Z" fill="#6B322F"/>
<path d="M98.7514 245.402C98.6087 245.441 98.4567 245.428 98.323 245.364C98.1893 245.301 98.0828 245.192 98.023 245.056L98.1588 244.748C97.7453 244.377 97.7452 244.377 97.9057 243.902C97.6341 243.575 97.5107 243.241 98.0724 242.97C97.5354 242.661 97.5354 242.655 97.7514 242.106C97.486 241.612 97.5168 241.402 97.8625 241.223C97.999 241.157 98.1505 241.127 98.302 241.137C98.4535 241.146 98.5998 241.195 98.7267 241.279C99.1218 241.581 98.8934 241.896 98.665 242.161L98.7761 242.569L98.4551 242.964C98.5368 242.994 98.6096 243.044 98.6673 243.11C98.725 243.175 98.7657 243.254 98.7858 243.338C98.806 243.423 98.8049 243.512 98.7828 243.596C98.7606 243.68 98.7181 243.758 98.6588 243.822C98.8749 244.081 99.0477 244.346 98.6588 244.618C98.9181 244.877 99.0168 245.136 98.7329 245.408L98.7514 245.402Z" fill="#6B322F"/>
<path d="M98.6094 240.667L98.8131 240.871C98.6464 241.278 98.6464 241.278 98.0106 241.278L97.7575 240.945L98.1156 240.587C97.5785 240.235 97.5724 240.217 97.9983 239.76C97.8995 239.525 97.7143 239.241 98.3501 239.105C98.4427 239.167 98.6711 239.241 98.6711 239.322C98.6834 239.717 98.6402 240.13 98.6094 240.667Z" fill="#6B322F"/>
<path d="M98.2083 249.311C97.9984 249.162 97.7639 249.027 97.591 248.866C97.5282 248.824 97.4779 248.766 97.4452 248.697C97.4124 248.629 97.3985 248.553 97.4048 248.478C97.4111 248.402 97.4373 248.33 97.4809 248.268C97.5245 248.206 97.5839 248.157 97.6528 248.125C97.8093 248.028 97.9917 247.98 98.1759 247.989C98.3601 247.998 98.5371 248.063 98.6836 248.175C98.754 248.239 98.8162 248.312 98.8688 248.391C98.7453 248.872 98.6959 248.946 98.2083 249.311Z" fill="#6B322F"/>
<path d="M98.5538 245.409C99.3501 245.859 98.6526 246.26 98.4613 246.717C98.5662 246.896 98.9119 247.112 98.4983 247.334C97.8255 247.248 97.8007 247.217 98.1279 246.754L97.7822 245.964C97.7822 245.563 98.1588 245.458 98.5909 245.402L98.5538 245.409Z" fill="#6B322F"/>
<path d="M97.8071 249.976L97.6836 249.489L98.2021 249.248L98.7391 249.52C98.5787 250.02 98.5786 250.02 97.8071 249.976Z" fill="#6B322F"/>
<path d="M97.8071 226.613L97.6836 226.126L98.2021 225.885L98.7391 226.156C98.5787 226.656 98.5786 226.656 97.8071 226.613Z" fill="#6B322F"/>
<path d="M97.8071 239.186L97.6836 238.698L98.2021 238.451L98.7391 238.729C98.5787 239.223 98.5786 239.223 97.8071 239.186Z" fill="#6B322F"/>
<path d="M97.8748 247.421L98.4427 247.328C98.7822 247.717 98.7822 247.717 98.3007 247.989C97.918 247.933 97.7328 247.785 97.8748 247.421Z" fill="#6B322F"/>
<path d="M98.7514 234.236C98.6087 234.275 98.4567 234.262 98.323 234.198C98.1893 234.135 98.0828 234.026 98.023 233.89L98.1588 233.582C97.7453 233.211 97.7452 233.211 97.9057 232.736C97.6341 232.409 97.5107 232.075 98.0724 231.804C97.5354 231.495 97.5354 231.489 97.7514 230.94C97.486 230.446 97.5168 230.236 97.8625 230.057C97.999 229.991 98.1505 229.961 98.302 229.971C98.4535 229.98 98.5998 230.029 98.7267 230.113C99.1218 230.415 98.8934 230.73 98.665 230.995L98.7761 231.403L98.4551 231.798C98.5368 231.828 98.6096 231.878 98.6673 231.944C98.725 232.009 98.7657 232.088 98.7858 232.172C98.806 232.257 98.8049 232.346 98.7828 232.43C98.7606 232.514 98.7181 232.592 98.6588 232.656C98.8749 232.915 99.0477 233.18 98.6588 233.452C98.9181 233.711 99.0168 233.97 98.7329 234.242L98.7514 234.236Z" fill="#6B322F"/>
<path d="M98.6094 229.484L98.8131 229.687C98.6464 230.095 98.6464 230.095 98.0106 230.095L97.7575 229.761L98.1156 229.403C97.5785 229.052 97.5724 229.033 97.9983 228.576C97.8995 228.342 97.7143 228.058 98.3501 227.922C98.4427 227.984 98.6711 228.058 98.6711 228.138C98.6834 228.552 98.6402 228.94 98.6094 229.484Z" fill="#6B322F"/>
<path d="M98.2083 238.199C97.9984 238.051 97.7639 237.915 97.591 237.755C97.5282 237.713 97.4779 237.654 97.4452 237.586C97.4124 237.518 97.3985 237.442 97.4048 237.366C97.4111 237.291 97.4373 237.219 97.4809 237.157C97.5245 237.095 97.5839 237.046 97.6528 237.014C97.8093 236.917 97.9917 236.869 98.1759 236.878C98.3601 236.887 98.5371 236.952 98.6836 237.064C98.754 237.128 98.8162 237.2 98.8688 237.28C98.7453 237.705 98.6959 237.78 98.2083 238.199Z" fill="#6B322F"/>
<path d="M98.5538 234.243C99.3501 234.693 98.6526 235.094 98.4613 235.551C98.5662 235.73 98.9119 235.946 98.4983 236.168C97.8255 236.082 97.8007 236.051 98.1279 235.588L97.7822 234.798C97.7822 234.397 98.1588 234.292 98.5909 234.236L98.5538 234.243Z" fill="#6B322F"/>
<path d="M97.8071 238.816L97.6836 238.329L98.2021 238.088L98.7391 238.359C98.5787 238.853 98.5786 238.853 97.8071 238.816Z" fill="#6B322F"/>
<path d="M97.8071 228.02L97.6836 227.532L98.2021 227.285L98.7391 227.563C98.5787 228.057 98.5786 228.057 97.8071 228.02Z" fill="#6B322F"/>
<path d="M97.8748 236.255L98.4427 236.162C98.7822 236.551 98.7822 236.551 98.3007 236.823C97.918 236.767 97.7328 236.619 97.8748 236.255Z" fill="#6B322F"/>
<path d="M97.8748 226.718L98.4427 226.625C98.7822 227.02 98.7822 227.02 98.3007 227.285C97.918 227.236 97.7328 227.088 97.8748 226.718Z" fill="#6B322F"/>
<path d="M164.306 245.403C164.163 245.442 164.011 245.429 163.877 245.365C163.744 245.302 163.637 245.192 163.577 245.057L163.713 244.748C163.3 244.378 163.3 244.378 163.46 243.903C163.195 243.575 163.071 243.242 163.633 242.971C163.096 242.662 163.09 242.656 163.312 242.106C163.047 241.613 163.071 241.403 163.423 241.224C163.562 241.153 163.718 241.122 163.873 241.133C164.028 241.144 164.178 241.196 164.306 241.285C164.701 241.588 164.473 241.903 164.244 242.168L164.355 242.575L164.034 242.971C164.117 243 164.191 243.049 164.25 243.115C164.308 243.18 164.35 243.259 164.37 243.344C164.39 243.429 164.389 243.518 164.366 243.603C164.343 243.688 164.299 243.765 164.238 243.829C164.46 244.088 164.633 244.353 164.238 244.625C164.497 244.884 164.596 245.143 164.312 245.415L164.306 245.403Z" fill="#6B322F"/>
<path d="M164.183 240.667L164.386 240.871C164.22 241.278 164.22 241.278 163.584 241.278L163.331 240.945C163.46 240.822 163.572 240.704 163.689 240.587C163.152 240.235 163.152 240.217 163.572 239.76C163.473 239.525 163.288 239.241 163.923 239.105C164.016 239.167 164.244 239.241 164.251 239.322C164.263 239.717 164.213 240.13 164.183 240.667Z" fill="#6B322F"/>
<path d="M163.788 249.309C163.574 249.172 163.368 249.024 163.171 248.865C163.108 248.822 163.058 248.763 163.026 248.695C162.994 248.626 162.98 248.55 162.987 248.474C162.994 248.399 163.021 248.327 163.065 248.265C163.109 248.203 163.169 248.155 163.239 248.124C163.394 248.026 163.575 247.979 163.759 247.987C163.942 247.996 164.118 248.061 164.263 248.173C164.335 248.238 164.399 248.31 164.455 248.389C164.306 248.871 164.269 248.945 163.788 249.309Z" fill="#6B322F"/>
<path d="M164.133 245.409C164.923 245.859 164.231 246.26 164.034 246.717C164.139 246.896 164.485 247.112 164.071 247.334C163.398 247.248 163.38 247.217 163.701 246.754C163.583 246.489 163.466 246.211 163.355 245.964C163.355 245.563 163.738 245.458 164.164 245.402L164.133 245.409Z" fill="#6B322F"/>
<path d="M163.38 249.976L163.257 249.489L163.782 249.248L164.312 249.52C164.152 250.02 164.152 250.02 163.38 249.976Z" fill="#6B322F"/>
<path d="M163.38 226.613L163.257 226.126L163.782 225.885L164.312 226.156C164.152 226.656 164.152 226.656 163.38 226.613Z" fill="#6B322F"/>
<path d="M163.38 239.186C163.337 239.013 163.294 238.859 163.257 238.698L163.782 238.451L164.312 238.729C164.152 239.223 164.152 239.223 163.38 239.186Z" fill="#6B322F"/>
<path d="M163.454 247.421L164.016 247.328C164.355 247.717 164.355 247.717 163.874 247.989C163.491 247.933 163.312 247.785 163.454 247.421Z" fill="#6B322F"/>
<path d="M164.306 234.236C164.163 234.275 164.011 234.262 163.877 234.199C163.744 234.135 163.637 234.026 163.577 233.89L163.713 233.582C163.3 233.211 163.3 233.211 163.46 232.736C163.195 232.409 163.071 232.076 163.633 231.804C163.096 231.495 163.09 231.489 163.312 230.94C163.047 230.446 163.071 230.236 163.423 230.057C163.559 229.991 163.709 229.961 163.86 229.971C164.01 229.98 164.155 230.029 164.281 230.113C164.676 230.415 164.448 230.73 164.219 230.995L164.331 231.403L164.01 231.798C164.092 231.827 164.166 231.877 164.225 231.942C164.284 232.007 164.325 232.086 164.345 232.171C164.365 232.257 164.364 232.346 164.341 232.43C164.318 232.515 164.274 232.593 164.213 232.656C164.435 232.915 164.608 233.18 164.213 233.452C164.472 233.711 164.571 233.971 164.287 234.242L164.306 234.236Z" fill="#6B322F"/>
<path d="M164.183 229.484C164.183 229.484 164.294 229.589 164.386 229.687C164.22 230.095 164.22 230.095 163.584 230.095L163.331 229.761L163.689 229.403C163.152 229.052 163.152 229.033 163.572 228.576C163.473 228.342 163.288 228.058 163.923 227.922C164.016 227.984 164.244 228.058 164.251 228.138C164.263 228.552 164.213 228.94 164.183 229.484Z" fill="#6B322F"/>
<path d="M163.788 238.198C163.574 238.061 163.368 237.912 163.171 237.753C163.108 237.711 163.058 237.652 163.026 237.583C162.994 237.515 162.98 237.439 162.987 237.363C162.994 237.288 163.021 237.215 163.065 237.154C163.109 237.092 163.169 237.043 163.239 237.013C163.394 236.915 163.575 236.867 163.759 236.876C163.942 236.885 164.118 236.95 164.263 237.062C164.335 237.126 164.399 237.199 164.455 237.278C164.306 237.704 164.269 237.778 163.788 238.198Z" fill="#6B322F"/>
<path d="M164.133 234.243C164.923 234.693 164.231 235.094 164.034 235.551C164.139 235.73 164.485 235.946 164.071 236.168C163.398 236.082 163.38 236.051 163.701 235.588C163.583 235.323 163.466 235.045 163.355 234.798C163.355 234.397 163.738 234.292 164.164 234.236L164.133 234.243Z" fill="#6B322F"/>
<path d="M163.38 238.816L163.257 238.329L163.782 238.088L164.312 238.359C164.152 238.853 164.152 238.853 163.38 238.816Z" fill="#6B322F"/>
<path d="M163.38 228.02C163.337 227.847 163.294 227.693 163.257 227.532L163.782 227.285L164.312 227.563C164.152 228.057 164.152 228.057 163.38 228.02Z" fill="#6B322F"/>
<path d="M163.454 236.255L164.016 236.162C164.355 236.551 164.355 236.551 163.874 236.823C163.491 236.767 163.312 236.619 163.454 236.255Z" fill="#6B322F"/>
<path d="M163.454 226.718L164.016 226.625C164.355 227.02 164.355 227.02 163.874 227.285C163.491 227.236 163.312 227.088 163.454 226.718Z" fill="#6B322F"/>
<path d="M160.541 245.402C160.398 245.441 160.246 245.428 160.112 245.365C159.978 245.301 159.872 245.192 159.812 245.056L159.942 244.748C159.534 244.377 159.534 244.377 159.695 243.902C159.423 243.575 159.3 243.242 159.862 242.97C159.324 242.661 159.325 242.655 159.541 242.106C159.275 241.612 159.3 241.402 159.652 241.223C159.787 241.157 159.938 241.127 160.088 241.137C160.239 241.146 160.384 241.195 160.51 241.279C160.911 241.581 160.676 241.896 160.448 242.161L160.559 242.569L160.244 242.964C160.326 242.994 160.399 243.044 160.456 243.11C160.514 243.175 160.555 243.254 160.575 243.338C160.595 243.423 160.594 243.512 160.572 243.596C160.55 243.68 160.507 243.758 160.448 243.822C160.664 244.081 160.837 244.346 160.448 244.618C160.701 244.877 160.8 245.137 160.522 245.408L160.541 245.402Z" fill="#6B322F"/>
<path d="M160.399 240.667L160.602 240.871C160.436 241.278 160.436 241.278 159.794 241.278L159.547 240.945L159.899 240.587C159.368 240.235 159.362 240.217 159.781 239.76C159.689 239.525 159.504 239.241 160.133 239.105C160.226 239.167 160.46 239.241 160.46 239.322C160.473 239.717 160.429 240.13 160.399 240.667Z" fill="#6B322F"/>
<path d="M159.985 249.309C159.769 249.161 159.54 249.025 159.367 248.865C159.305 248.822 159.255 248.763 159.223 248.695C159.19 248.626 159.177 248.55 159.184 248.474C159.191 248.399 159.218 248.327 159.262 248.265C159.306 248.203 159.366 248.155 159.435 248.124C159.591 248.026 159.772 247.979 159.955 247.987C160.139 247.996 160.315 248.061 160.46 248.173C160.532 248.238 160.596 248.31 160.651 248.389C160.534 248.871 160.478 248.945 159.985 249.309Z" fill="#6B322F"/>
<path d="M160.343 245.409C161.133 245.859 160.442 246.26 160.25 246.717C160.349 246.896 160.695 247.112 160.281 247.334C159.608 247.248 159.59 247.217 159.911 246.754C159.8 246.489 159.676 246.211 159.571 245.964C159.571 245.563 159.948 245.458 160.38 245.402L160.343 245.409Z" fill="#6B322F"/>
<path d="M159.59 249.976L159.466 249.489L159.991 249.248L160.528 249.52C160.368 250.02 160.368 250.02 159.59 249.976Z" fill="#6B322F"/>
<path d="M159.59 226.613L159.466 226.126L159.991 225.885L160.528 226.156C160.368 226.656 160.368 226.656 159.59 226.613Z" fill="#6B322F"/>
<path d="M159.59 239.186C159.547 239.013 159.51 238.859 159.466 238.698L159.991 238.451L160.528 238.729C160.368 239.223 160.368 239.223 159.59 239.186Z" fill="#6B322F"/>
<path d="M159.664 247.421L160.225 247.328C160.565 247.717 160.565 247.717 160.083 247.989C159.701 247.933 159.522 247.785 159.664 247.421Z" fill="#6B322F"/>
<path d="M160.541 234.236C160.398 234.275 160.246 234.262 160.112 234.199C159.978 234.135 159.872 234.026 159.812 233.89L159.942 233.582C159.534 233.211 159.534 233.211 159.695 232.736C159.423 232.409 159.3 232.076 159.862 231.804C159.324 231.495 159.325 231.489 159.541 230.94C159.275 230.446 159.3 230.236 159.652 230.057C159.787 229.991 159.938 229.961 160.088 229.971C160.239 229.98 160.384 230.029 160.51 230.113C160.911 230.415 160.676 230.73 160.448 230.995L160.559 231.403L160.244 231.798C160.326 231.828 160.399 231.878 160.456 231.944C160.514 232.009 160.555 232.088 160.575 232.172C160.595 232.257 160.594 232.346 160.572 232.43C160.55 232.514 160.507 232.592 160.448 232.656C160.664 232.915 160.837 233.18 160.448 233.452C160.701 233.711 160.8 233.971 160.522 234.242L160.541 234.236Z" fill="#6B322F"/>
<path d="M160.399 229.484L160.602 229.687C160.436 230.095 160.436 230.095 159.794 230.095L159.547 229.761L159.899 229.403C159.368 229.052 159.362 229.033 159.781 228.576C159.689 228.342 159.504 228.058 160.133 227.922C160.226 227.984 160.46 228.058 160.46 228.138C160.473 228.552 160.429 228.94 160.399 229.484Z" fill="#6B322F"/>
<path d="M159.985 238.198C159.769 238.05 159.54 237.914 159.367 237.753C159.305 237.711 159.255 237.652 159.223 237.583C159.19 237.515 159.177 237.439 159.184 237.363C159.191 237.288 159.218 237.215 159.262 237.154C159.306 237.092 159.366 237.043 159.435 237.013C159.591 236.915 159.772 236.867 159.955 236.876C160.139 236.885 160.315 236.95 160.46 237.062C160.532 237.126 160.596 237.199 160.651 237.278C160.534 237.704 160.478 237.778 159.985 238.198Z" fill="#6B322F"/>
<path d="M160.343 234.243C161.133 234.693 160.442 235.094 160.25 235.551C160.349 235.73 160.695 235.946 160.281 236.168C159.608 236.082 159.59 236.051 159.911 235.588C159.8 235.323 159.676 235.045 159.571 234.798C159.571 234.397 159.948 234.292 160.38 234.236L160.343 234.243Z" fill="#6B322F"/>
<path d="M159.59 238.816L159.466 238.329L159.991 238.088L160.528 238.359C160.368 238.853 160.368 238.853 159.59 238.816Z" fill="#6B322F"/>
<path d="M159.59 228.02C159.547 227.847 159.51 227.693 159.466 227.532L159.991 227.285L160.528 227.563C160.368 228.057 160.368 228.057 159.59 228.02Z" fill="#6B322F"/>
<path d="M159.664 236.255L160.225 236.162C160.565 236.551 160.565 236.551 160.083 236.823C159.701 236.767 159.522 236.619 159.664 236.255Z" fill="#6B322F"/>
<path d="M159.664 226.718L160.225 226.625C160.565 227.02 160.565 227.02 160.083 227.285C159.701 227.236 159.522 227.088 159.664 226.718Z" fill="#6B322F"/>
</svg>
