<svg width="20" height="21" viewBox="0 0 20 21" fill="none" xmlns="http://www.w3.org/2000/svg">
<path d="M13 5.90039C14.1046 5.90039 15 6.79582 15 7.90039M19 7.90039C19 11.2141 16.3137 13.9004 13 13.9004C12.3938 13.9004 11.8087 13.8105 11.2571 13.6433L9 15.9004H7V17.9004H5V19.9004H2C1.44772 19.9004 1 19.4527 1 18.9004V16.3146C1 16.0494 1.10536 15.795 1.29289 15.6075L7.25707 9.64332C7.08989 9.09174 7 8.50656 7 7.90039C7 4.58668 9.68629 1.90039 13 1.90039C16.3137 1.90039 19 4.58668 19 7.90039Z" stroke="#747776" stroke-width="2" stroke-linecap="round" stroke-linejoin="round"/>
</svg>
