<svg width="240" height="261" viewBox="0 0 240 261" fill="none" xmlns="http://www.w3.org/2000/svg">
<path d="M118.008 184.51C161.016 184.51 195.881 149.645 195.881 106.638C195.881 63.6302 161.016 28.7656 118.008 28.7656C75.0008 28.7656 40.1362 63.6302 40.1362 106.638C40.1362 149.645 75.0008 184.51 118.008 184.51Z" fill="white"/>
<path d="M118.009 195.536C167.106 195.536 206.907 155.735 206.907 106.638C206.907 57.5412 167.106 17.7402 118.009 17.7402C68.9118 17.7402 29.1108 57.5412 29.1108 106.638C29.1108 155.735 68.9118 195.536 118.009 195.536Z" stroke="white" stroke-miterlimit="10"/>
<path d="M118.009 212.277C176.351 212.277 223.648 164.981 223.648 106.639C223.648 48.296 176.351 1 118.009 1C59.6662 1 12.3701 48.296 12.3701 106.639C12.3701 164.981 59.6662 212.277 118.009 212.277Z" stroke="white" stroke-miterlimit="10"/>
<path d="M119.674 52.9791L131.115 39.248L137.759 55.8393L152.885 46.3183L154.074 64.1543L171.401 59.7728L167.02 77.0998L184.856 78.2893L175.329 93.4145L191.926 100.059L178.195 111.499L191.926 122.946L175.329 129.584L184.856 144.71L167.02 145.899L171.401 163.226L154.074 158.845L152.885 176.681L137.759 167.16L131.115 183.756L119.674 170.025L108.228 183.756L101.589 167.16L86.4587 176.681L85.2748 158.845L67.9422 163.226L72.3237 145.899L54.4932 144.71L64.0143 129.584L47.4175 122.946L61.1485 111.499L47.4175 100.059L64.0143 93.4145L54.4932 78.2893L72.3237 77.0998L67.9422 59.7728L85.2748 64.1543L86.4587 46.3183L101.589 55.8393L108.228 39.248L119.674 52.9791Z" fill="#4EB3B2"/>
<path d="M94.353 110.698C101.6 110.698 107.476 104.823 107.476 97.5757C107.476 90.3283 101.6 84.4531 94.353 84.4531C87.1056 84.4531 81.2305 90.3283 81.2305 97.5757C81.2305 104.823 87.1056 110.698 94.353 110.698Z" fill="white"/>
<path d="M95.4652 103.179C100.091 103.179 103.841 99.4295 103.841 94.8036C103.841 90.1777 100.091 86.4277 95.4652 86.4277C90.8394 86.4277 87.0894 90.1777 87.0894 94.8036C87.0894 99.4295 90.8394 103.179 95.4652 103.179Z" fill="#540522"/>
<path d="M140.559 110.698C147.806 110.698 153.681 104.823 153.681 97.5757C153.681 90.3283 147.806 84.4531 140.559 84.4531C133.311 84.4531 127.436 90.3283 127.436 97.5757C127.436 104.823 133.311 110.698 140.559 110.698Z" fill="white"/>
<path d="M139.452 103.179C144.077 103.179 147.827 99.4295 147.827 94.8036C147.827 90.1777 144.077 86.4277 139.452 86.4277C134.826 86.4277 131.076 90.1777 131.076 94.8036C131.076 99.4295 134.826 103.179 139.452 103.179Z" fill="#540522"/>
<path d="M113.822 103.534C113.853 103.451 113.91 103.382 113.986 103.336C114.061 103.291 114.15 103.273 114.237 103.285L114.353 103.445C114.674 103.346 114.663 103.351 114.868 103.567C115.117 103.512 115.31 103.539 115.321 103.904C115.62 103.683 115.614 103.683 115.874 103.932C116.201 103.877 116.306 103.932 116.339 104.164C116.354 104.253 116.345 104.343 116.312 104.427C116.28 104.511 116.227 104.584 116.157 104.64C115.902 104.806 115.758 104.607 115.648 104.424L115.382 104.38L115.238 104.115C115.198 104.156 115.149 104.185 115.094 104.202C115.039 104.218 114.981 104.22 114.926 104.207C114.87 104.194 114.819 104.167 114.777 104.129C114.734 104.09 114.703 104.042 114.685 103.987C114.48 104.032 114.281 104.032 114.259 103.738C114.043 103.788 113.866 103.738 113.816 103.517L113.822 103.534Z" fill="#6B322F"/>
<path d="M116.554 104.684L116.399 104.767C116.172 104.606 116.178 104.595 116.294 104.214L116.527 104.125L116.676 104.385C116.958 104.125 116.947 104.136 117.174 104.424C117.318 104.385 117.495 104.302 117.533 104.689C117.489 104.739 117.423 104.872 117.373 104.861C117.094 104.833 116.819 104.774 116.554 104.684Z" fill="#6B322F"/>
<path d="M112.129 101.785C112.284 101.757 112.439 101.708 112.582 101.691C112.726 101.674 112.914 101.796 112.881 102.012C112.862 102.119 112.811 102.219 112.735 102.298C112.659 102.376 112.562 102.431 112.455 102.454C112.397 102.465 112.337 102.465 112.278 102.454C112.201 102.363 112.147 102.255 112.121 102.138C112.095 102.021 112.098 101.9 112.129 101.785Z" fill="#6B322F"/>
<path d="M113.882 103.434C113.384 103.683 113.406 103.185 113.256 102.931C113.129 102.931 112.897 102.991 112.941 102.715C113.234 102.433 113.256 102.433 113.356 102.754L113.859 102.864C114.053 103.002 113.981 103.218 113.859 103.456L113.882 103.434Z" fill="#6B322F"/>
<path d="M112.056 101.344L112.305 101.493L112.189 101.82L111.84 101.93C111.691 101.637 111.691 101.631 112.056 101.344Z" fill="#6B322F"/>
<path d="M124.106 101.641L124.255 101.387L124.582 101.497L124.698 101.84C124.41 101.995 124.41 101.99 124.106 101.641Z" fill="#6B322F"/>
<path d="M117.5 104.388C117.597 104.377 117.693 104.361 117.788 104.338L117.915 104.659L117.721 104.969C117.412 104.858 117.423 104.83 117.5 104.388Z" fill="#6B322F"/>
<path d="M113.136 102.39L112.97 102.688C112.654 102.688 112.654 102.688 112.715 102.368C112.887 102.218 113.019 102.196 113.136 102.39Z" fill="#6B322F"/>
<path d="M120.526 104.603C120.479 104.53 120.458 104.443 120.467 104.357C120.476 104.27 120.515 104.189 120.576 104.127C120.642 104.133 120.709 104.133 120.775 104.127C120.891 103.812 120.886 103.818 121.185 103.79C121.284 103.558 121.417 103.408 121.738 103.624C121.738 103.253 121.738 103.253 122.086 103.204C122.247 102.916 122.352 102.861 122.562 102.977C122.641 103.021 122.706 103.085 122.752 103.163C122.798 103.241 122.822 103.329 122.822 103.419C122.822 103.718 122.562 103.713 122.341 103.679L122.153 103.867L121.854 103.823C121.859 103.877 121.85 103.931 121.83 103.98C121.809 104.03 121.777 104.073 121.735 104.108C121.694 104.142 121.645 104.166 121.592 104.177C121.54 104.188 121.485 104.186 121.434 104.172C121.351 104.36 121.229 104.52 120.98 104.371C120.891 104.581 120.748 104.686 120.532 104.587L120.526 104.603Z" fill="#6B322F"/>
<path d="M123.082 103.119V103.291C122.816 103.363 122.811 103.352 122.601 103.042C122.601 102.97 122.65 102.898 122.678 102.804L122.977 102.854C122.977 102.472 122.977 102.466 123.325 102.494C123.403 102.367 123.458 102.173 123.768 102.405C123.768 102.472 123.829 102.61 123.768 102.643C123.552 102.82 123.323 102.979 123.082 103.119Z" fill="#6B322F"/>
<path d="M118.087 104.669L118.347 104.293C118.48 104.116 118.64 104.132 118.773 104.293C118.832 104.383 118.864 104.489 118.864 104.597C118.864 104.705 118.832 104.811 118.773 104.901C118.734 104.948 118.69 104.989 118.64 105.023C118.526 105.014 118.415 104.978 118.319 104.916C118.222 104.854 118.143 104.769 118.087 104.669Z" fill="#6B322F"/>
<path d="M120.482 104.475C120.372 105.028 119.979 104.696 119.691 104.646C119.597 104.74 119.503 104.967 119.315 104.74C119.315 104.331 119.315 104.336 119.619 104.458L120.023 104.143C120.244 104.076 120.372 104.259 120.493 104.491L120.482 104.475Z" fill="#6B322F"/>
<path d="M117.716 104.409L118.003 104.348L118.136 104.669L117.959 104.978C117.66 104.868 117.66 104.868 117.716 104.409Z" fill="#6B322F"/>
<path d="M123.486 102.195L123.657 101.951L123.973 102.089L124.061 102.438C123.746 102.571 123.746 102.565 123.486 102.195Z" fill="#6B322F"/>
<path d="M119.209 104.386L119.32 104.707C119.109 104.95 119.098 104.95 118.905 104.707C118.916 104.458 118.982 104.336 119.209 104.386Z" fill="#6B322F"/>
<path d="M124.089 101.715L124.36 101.92C124.327 102.235 124.321 102.24 124.011 102.135C123.879 101.942 123.873 101.837 124.089 101.715Z" fill="#6B322F"/>
<path d="M120.67 94.3617C120.67 95.2142 120.331 96.0317 119.728 96.6345C119.125 97.2373 118.308 97.5759 117.455 97.5759C116.603 97.5759 115.785 97.2373 115.183 96.6345C114.58 96.0317 114.241 95.2142 114.241 94.3617C114.241 92.5858 117.455 89.7865 117.455 86.5723C117.455 89.7865 120.67 92.5858 120.67 94.3617Z" fill="#7F8A44"/>
<path d="M171.971 145.551H68.4233V224.159H171.971V145.551Z" fill="#7F8A44"/>
<path d="M180.773 224.158H56.7729V234.592H180.773V224.158Z" fill="#8E564F"/>
<path d="M221.772 224.158H18.8155C8.88243 224.158 0.830078 232.211 0.830078 242.144C0.830078 252.077 8.88243 260.129 18.8155 260.129H221.772C231.705 260.129 239.758 252.077 239.758 242.144C239.758 232.211 231.705 224.158 221.772 224.158Z" fill="#4E868E"/>
<path d="M88.8926 224.158H137.516V260.118H88.8926C84.1226 260.118 79.548 258.223 76.175 254.85C72.8021 251.477 70.9072 246.903 70.9072 242.133C70.9102 237.364 72.8064 232.793 76.179 229.422C79.5516 226.052 84.1245 224.158 88.8926 224.158Z" fill="#540522"/>
<path d="M133.782 229.377H137.505V254.051H133.782C132.009 254.051 130.309 253.347 129.056 252.094C127.803 250.84 127.099 249.14 127.099 247.368V236.054C127.1 234.283 127.805 232.584 129.058 231.332C130.311 230.08 132.01 229.377 133.782 229.377Z" fill="white"/>
<path d="M92.3282 224.158H88.8926C86.5306 224.157 84.1915 224.622 82.0091 225.526C79.8267 226.429 77.8437 227.754 76.1734 229.424C74.5032 231.095 73.1784 233.078 72.2748 235.26C71.3712 237.442 70.9065 239.782 70.9072 242.144C70.9065 244.506 71.3712 246.845 72.2748 249.027C73.1784 251.21 74.5032 253.193 76.1734 254.863C77.8437 256.533 79.8267 257.858 82.0091 258.761C84.1915 259.665 86.5306 260.13 88.8926 260.129H92.3392L92.3282 224.158Z" fill="white"/>
<path d="M144.536 253.279C144.326 253.323 144.176 253.18 144.099 252.765L144.182 252.305C144.069 252.117 143.997 251.906 143.971 251.688C143.946 251.47 143.967 251.248 144.033 251.039C143.923 250.819 143.875 250.575 143.892 250.331C143.91 250.086 143.993 249.851 144.132 249.65C143.811 249.191 143.811 249.185 143.939 248.361C143.778 247.631 143.795 247.31 144.005 247.044C144.215 246.779 144.392 246.873 144.519 247.122C144.607 247.332 144.648 247.559 144.642 247.787C144.635 248.015 144.58 248.239 144.481 248.444L144.547 249.058C144.492 249.241 144.431 249.407 144.359 249.611C144.474 249.803 144.544 250.017 144.565 250.239C144.586 250.461 144.557 250.685 144.481 250.895C144.572 251.08 144.619 251.283 144.619 251.489C144.619 251.696 144.572 251.899 144.481 252.084C144.566 252.268 144.614 252.467 144.621 252.669C144.629 252.871 144.596 253.073 144.525 253.262L144.536 253.279Z" fill="#151A79"/>
<path d="M144.454 246.187C144.454 246.187 144.514 246.348 144.575 246.492C144.476 247.106 144.476 247.106 144.094 247.1C144.05 246.956 144 246.796 143.945 246.608L144.155 246.055C143.834 245.501 143.834 245.501 144.083 244.821C144.028 244.472 143.917 244.041 144.293 243.842C144.348 243.93 144.487 244.047 144.487 244.168C144.498 244.799 144.47 245.418 144.454 246.187Z" fill="#151A79"/>
<path d="M144.215 259.142C144.075 258.928 143.947 258.706 143.833 258.478C143.753 258.303 143.714 258.112 143.721 257.92C143.728 257.728 143.779 257.54 143.872 257.371C144.055 257.078 144.293 257.1 144.486 257.449C144.531 257.555 144.568 257.664 144.597 257.775C144.588 258.256 144.457 258.726 144.215 259.142Z" fill="#151A79"/>
<path d="M144.42 253.293C144.891 253.962 144.476 254.565 144.365 255.246C144.426 255.517 144.631 255.837 144.365 256.175C143.967 256.048 143.95 255.998 144.144 255.306C144.077 254.908 144.005 254.504 143.939 254.128C143.939 253.531 144.166 253.376 144.426 253.287L144.42 253.293Z" fill="#151A79"/>
<path d="M143.972 260.107C143.972 259.847 143.922 259.621 143.895 259.383L144.21 259.018L144.531 259.427C144.431 260.168 144.431 260.168 143.972 260.107Z" fill="#151A79"/>
<path d="M143.972 225.248C143.972 224.988 143.922 224.761 143.895 224.523L144.21 224.158L144.531 224.568C144.431 225.309 144.431 225.309 143.972 225.248Z" fill="#151A79"/>
<path d="M143.972 244.013C143.972 243.758 143.922 243.526 143.895 243.288L144.215 242.906L144.536 243.316C144.431 244.062 144.431 244.062 143.972 244.013Z" fill="#151A79"/>
<path d="M144.011 256.289L144.349 256.15C144.554 256.737 144.554 256.737 144.266 257.135C144.039 257.058 143.928 256.836 144.011 256.289Z" fill="#151A79"/>
<path d="M144.536 236.623C144.326 236.667 144.176 236.523 144.099 236.103L144.182 235.649C144.069 235.461 143.997 235.25 143.971 235.032C143.946 234.813 143.967 234.592 144.033 234.382C143.923 234.163 143.875 233.919 143.892 233.674C143.91 233.43 143.993 233.195 144.132 232.994C143.811 232.529 143.811 232.529 143.939 231.699C143.778 230.969 143.795 230.654 144.005 230.388C144.215 230.122 144.392 230.216 144.519 230.465C144.607 230.675 144.648 230.901 144.641 231.128C144.635 231.355 144.58 231.578 144.481 231.782C144.481 231.998 144.525 232.197 144.547 232.396C144.569 232.595 144.431 232.75 144.359 232.983C144.474 233.174 144.544 233.388 144.566 233.611C144.587 233.833 144.558 234.057 144.481 234.266C144.572 234.451 144.619 234.655 144.619 234.861C144.619 235.067 144.572 235.271 144.481 235.456C144.566 235.639 144.614 235.838 144.621 236.04C144.629 236.243 144.596 236.444 144.525 236.634L144.536 236.623Z" fill="#151A79"/>
<path d="M144.454 229.529C144.454 229.529 144.514 229.69 144.575 229.834C144.476 230.442 144.476 230.442 144.094 230.442C144.05 230.298 144 230.138 143.945 229.95L144.155 229.397C143.834 228.843 143.834 228.843 144.083 228.157C144.028 227.814 143.917 227.383 144.293 227.184C144.348 227.272 144.487 227.388 144.487 227.51C144.498 228.141 144.47 228.76 144.454 229.529Z" fill="#151A79"/>
<path d="M144.215 242.486C144.076 242.272 143.949 242.05 143.833 241.822C143.753 241.648 143.714 241.456 143.721 241.264C143.728 241.072 143.779 240.884 143.872 240.716C144.055 240.422 144.293 240.445 144.486 240.788C144.531 240.895 144.568 241.006 144.597 241.12C144.587 241.6 144.456 242.07 144.215 242.486Z" fill="#151A79"/>
<path d="M144.42 236.632C144.891 237.302 144.476 237.899 144.365 238.585C144.426 238.851 144.631 239.172 144.365 239.509C143.967 239.382 143.95 239.338 144.144 238.646C144.077 238.248 144.005 237.838 143.939 237.468C143.939 236.87 144.166 236.715 144.426 236.627L144.42 236.632Z" fill="#151A79"/>
<path d="M143.972 243.46C143.972 243.205 143.922 242.973 143.895 242.735L144.215 242.354L144.536 242.763C144.431 243.51 144.431 243.51 143.972 243.46Z" fill="#151A79"/>
<path d="M143.972 227.344C143.972 227.084 143.922 226.857 143.895 226.619L144.21 226.254L144.531 226.663C144.431 227.416 144.431 227.416 143.972 227.344Z" fill="#151A79"/>
<path d="M144.011 239.632L144.349 239.494C144.554 240.081 144.554 240.081 144.266 240.473C144.039 240.396 143.928 240.18 144.011 239.632Z" fill="#151A79"/>
<path d="M144.011 225.41L144.349 225.271C144.554 225.858 144.554 225.858 144.266 226.256C144.039 226.179 143.928 225.957 144.011 225.41Z" fill="#151A79"/>
<path d="M124.493 233.62C124.277 233.67 124.128 233.498 124.056 233.011L124.139 232.458C123.91 231.997 123.855 231.468 123.984 230.97C124.169 230.621 124.249 230.226 124.213 229.833C124.176 229.44 124.026 229.066 123.779 228.757C123.73 228.585 123.735 228.359 123.652 227.905C123.215 227.202 123.016 226.964 123.005 226.588C123.005 226.323 123.171 226.173 123.464 226.35C123.701 226.515 123.892 226.737 124.021 226.995C124.149 227.253 124.211 227.539 124.2 227.827C124.336 228.045 124.417 228.293 124.437 228.55C124.456 228.806 124.413 229.063 124.311 229.299C124.549 229.767 124.594 230.309 124.438 230.809C124.62 231.258 124.62 231.76 124.438 232.209C124.61 232.651 124.626 233.139 124.482 233.592L124.493 233.62Z" fill="#FFE2E9"/>
<path d="M122.607 225.591L122.972 225.757C123.448 226.376 123.403 226.399 123.11 226.625C122.961 226.51 122.804 226.405 122.64 226.31C122.55 226.117 122.445 225.932 122.325 225.757C121.633 225.663 121.666 225.668 121.036 225.137C120.842 225.087 120.615 225.087 120.422 225.027C120.324 225.01 120.232 224.971 120.152 224.913C120.072 224.854 120.007 224.777 119.962 224.689C120.087 224.604 120.232 224.556 120.383 224.551C121.204 224.692 121.972 225.051 122.607 225.591Z" fill="#FFE2E9"/>
<path d="M124.172 240.511C124.032 240.258 123.904 239.998 123.79 239.731C123.709 239.523 123.67 239.301 123.677 239.077C123.684 238.854 123.735 238.634 123.829 238.431C124.012 238.083 124.249 238.11 124.443 238.52C124.489 238.644 124.526 238.772 124.554 238.901C124.547 239.46 124.416 240.009 124.172 240.511Z" fill="#FFE2E9"/>
<path d="M124.377 233.629C124.848 234.42 124.433 235.123 124.317 235.925C124.383 236.24 124.588 236.616 124.317 237.031C123.918 236.882 123.902 236.827 124.095 236.013C124.029 235.549 123.957 235.067 123.891 234.63C123.891 233.928 124.117 233.74 124.377 233.64V233.629Z" fill="#FFE2E9"/>
<path d="M123.929 241.639L123.852 240.787L124.167 240.361L124.488 240.843C124.388 241.711 124.388 241.711 123.929 241.639Z" fill="#FFE2E9"/>
<path d="M123.425 240.584L124.061 241.137L124.122 241.663L123.569 241.53C123.038 240.844 123.038 240.844 123.425 240.584Z" fill="#FFE2E9"/>
<path d="M120.078 225.014C119.81 225.002 119.541 225.019 119.276 225.064C119.135 224.961 118.985 224.871 118.828 224.793C118.972 224.657 119.127 224.535 119.293 224.428C120.228 224.511 120.206 224.583 120.078 225.014Z" fill="#FFE2E9"/>
<path d="M123.967 237.155L124.305 236.994C124.51 237.68 124.51 237.68 124.222 238.15C123.995 238.056 123.884 237.802 123.967 237.155Z" fill="#FFE2E9"/>
<path d="M114.784 230.321C114.961 230.194 115.155 230.321 115.437 230.708C115.492 230.863 115.553 231.04 115.625 231.212C116.052 231.499 116.377 231.913 116.555 232.396C116.79 232.549 116.989 232.752 117.139 232.99C117.289 233.227 117.386 233.495 117.423 233.773C118.01 234.011 118.01 234.011 118.53 234.852C119.188 235.405 119.409 235.709 119.448 236.086C119.481 236.357 119.282 236.484 118.994 236.34C118.535 236.064 118.196 235.626 118.043 235.112L117.539 234.559L117.274 233.9C117.039 233.783 116.831 233.619 116.661 233.42C116.491 233.22 116.363 232.989 116.283 232.739C116.079 232.605 115.905 232.43 115.773 232.226C115.64 232.021 115.552 231.79 115.514 231.549C115.319 231.398 115.156 231.208 115.037 230.991C114.918 230.774 114.845 230.534 114.823 230.288L114.784 230.321Z" fill="#FFE2E9"/>
<path d="M119.729 237.131L119.403 236.938C119.016 236.324 119.021 236.318 119.314 236.08L119.801 236.429L120.045 237.043C120.686 237.308 120.709 237.33 121.046 238.099C121.356 238.37 121.771 238.653 121.649 239.101C121.538 239.062 121.345 239.051 121.245 238.94C120.758 238.404 120.299 237.834 119.729 237.131Z" fill="#FFE2E9"/>
<path d="M118.33 224.893C118.122 225.082 117.928 225.286 117.749 225.502C117.474 225.804 117.116 226.017 116.72 226.116C116.36 226.193 116.167 226.033 116.388 225.59C116.465 225.471 116.552 225.358 116.648 225.253C116.91 225.087 117.198 224.965 117.5 224.893C117.774 224.843 118.055 224.843 118.33 224.893Z" fill="#FFE2E9"/>
<path d="M114.895 230.267C114.716 230.124 114.583 229.932 114.513 229.714C114.482 229.594 114.467 229.472 114.469 229.349C114.476 229.247 114.489 229.145 114.508 229.044C114.62 228.641 114.779 228.253 114.983 227.888C115.028 227.573 114.983 227.08 115.443 226.854C115.714 227.208 115.664 227.202 115.199 227.883C115.111 228.329 115.096 228.787 115.155 229.238C115.155 229.415 115.155 229.52 115.155 229.631C115.157 229.728 115.144 229.825 115.116 229.918C115.084 230.063 115.007 230.193 114.895 230.289V230.267Z" fill="#FFE2E9"/>
<path d="M119.458 224.977C119.191 225.008 118.926 225.062 118.667 225.137C118.501 225.06 118.369 225.005 118.186 224.933C118.324 224.783 118.463 224.623 118.595 224.507C118.865 224.458 119.143 224.477 119.403 224.562C119.508 224.651 119.486 224.745 119.458 224.977Z" fill="#FFE2E9"/>
<path d="M121.777 238.758L122.402 239.344C122.402 239.532 122.435 239.682 122.451 239.897L121.898 239.754C121.384 239.034 121.384 239.034 121.777 238.758Z" fill="#FFE2E9"/>
<path d="M115.818 226.929L115.448 226.862C115.669 226.154 115.724 226.132 116.25 225.988C116.344 226.248 116.239 226.47 115.818 226.929Z" fill="#FFE2E9"/>
<path d="M123.27 240.473C123.215 240.601 123.171 240.717 123.126 240.822C122.512 240.451 122.512 240.451 122.413 239.909C122.639 239.826 122.894 239.942 123.27 240.473Z" fill="#FFE2E9"/>
<path d="M123.79 250.325C124.001 250.275 124.15 250.441 124.227 250.933L124.144 251.487C124.374 251.948 124.428 252.477 124.294 252.975C124.406 253.241 124.455 253.528 124.438 253.816C124.421 254.104 124.337 254.384 124.194 254.635C124.326 254.821 124.401 255.042 124.41 255.271C124.378 255.6 124.276 255.919 124.111 256.206C123.945 257.113 123.635 257.456 123.281 257.578C123.016 257.672 122.872 257.489 122.933 257.19C123.071 256.728 123.309 256.301 123.63 255.94C123.68 255.72 123.71 255.496 123.718 255.271C123.819 255.07 123.903 254.861 123.967 254.646C123.734 254.178 123.691 253.639 123.846 253.141C123.66 252.693 123.66 252.189 123.846 251.741C123.673 251.297 123.658 250.807 123.801 250.353L123.79 250.325Z" fill="#FFE2E9"/>
<path d="M122.274 257.938L122.44 257.623C122.993 257.224 122.949 257.186 123.259 257.429C123.175 257.618 123.08 257.803 122.977 257.982C122.774 258.088 122.563 258.176 122.346 258.248C122.031 258.868 121.942 258.939 121.09 259.011C120.898 259.12 120.691 259.198 120.476 259.244C120.375 259.267 120.27 259.26 120.172 259.226C120.074 259.192 119.988 259.131 119.923 259.05C120.022 258.989 120.128 258.829 120.26 258.807C120.992 258.684 121.683 258.386 122.274 257.938Z" fill="#FFE2E9"/>
<path d="M124.111 243.461C124.253 243.714 124.38 243.974 124.493 244.241C124.574 244.448 124.612 244.67 124.605 244.892C124.598 245.115 124.547 245.333 124.454 245.536C124.272 245.884 124.034 245.862 123.84 245.453C123.792 245.327 123.755 245.197 123.729 245.065C123.737 244.509 123.867 243.961 124.111 243.461Z" fill="#FFE2E9"/>
<path d="M123.906 250.309C123.43 249.523 123.851 248.815 123.961 248.019C123.9 247.698 123.696 247.321 123.961 246.912C124.36 247.067 124.376 247.122 124.183 247.93C124.249 248.4 124.321 248.876 124.387 249.319C124.387 250.021 124.161 250.204 123.901 250.309H123.906Z" fill="#FFE2E9"/>
<path d="M124.355 242.303C124.355 242.602 124.404 242.856 124.432 243.149L124.117 243.581L123.796 243.1C123.895 242.225 123.895 242.225 124.355 242.303Z" fill="#FFE2E9"/>
<path d="M123.11 243.062L123.635 242.387L124.189 242.287L124.089 242.84C123.403 243.46 123.403 243.46 123.11 243.062Z" fill="#FFE2E9"/>
<path d="M120.134 259.356C119.841 259.418 119.542 259.451 119.243 259.455C119.096 259.349 118.96 259.231 118.833 259.101C119.005 259.025 119.17 258.934 119.326 258.83C120.134 258.952 120.15 258.869 120.134 259.356Z" fill="#FFE2E9"/>
<path d="M124.299 246.779L123.962 246.939C123.757 246.248 123.757 246.248 124.045 245.783C124.299 245.883 124.399 246.143 124.299 246.779Z" fill="#FFE2E9"/>
<path d="M115.448 253.878C115.232 253.845 115.138 253.635 115.298 253.159C115.398 253.021 115.509 252.866 115.625 252.722C115.666 252.204 115.908 251.724 116.3 251.383C116.362 251.105 116.489 250.845 116.671 250.625C116.853 250.404 117.084 250.23 117.345 250.116C117.417 249.491 117.423 249.48 118.125 248.794C118.54 248.025 118.795 247.748 119.154 247.638C119.42 247.56 119.58 247.732 119.492 248.036C119.31 248.534 118.954 248.951 118.491 249.209L118.098 249.817L117.545 250.238C117.452 250.749 117.174 251.208 116.764 251.527C116.661 251.991 116.389 252.401 116.001 252.678C115.937 253.124 115.744 253.543 115.448 253.884V253.878Z" fill="#FFE2E9"/>
<path d="M120.134 247.157C120.134 247.157 120.062 247.34 119.995 247.506C119.442 247.987 119.442 247.993 119.171 247.744L119.431 247.19L119.984 246.847C120.145 246.172 120.167 246.139 120.88 245.702C121.107 245.354 121.362 244.9 121.799 244.977C121.799 245.094 121.799 245.282 121.694 245.392L120.134 247.157Z" fill="#FFE2E9"/>
<path d="M118.347 258.996C118.056 259.07 117.756 259.097 117.456 259.079C117.215 259.058 116.983 258.975 116.782 258.839C116.581 258.702 116.419 258.516 116.311 258.299C116.156 257.906 116.367 257.779 116.771 257.89C116.892 257.92 117.01 257.961 117.125 258.012C117.407 258.244 117.589 258.36 117.75 258.493C117.91 258.626 118.06 258.775 118.347 258.996Z" fill="#FFE2E9"/>
<path d="M115.321 253.85C115.357 254.032 115.374 254.217 115.37 254.403C115.378 254.469 115.378 254.536 115.37 254.602C115.376 254.687 115.376 254.772 115.37 254.856C115.306 255.222 115.293 255.594 115.332 255.963C115.498 256.24 115.802 256.461 115.791 256.898C115.387 256.986 115.276 256.931 115.166 256.096C114.942 255.671 114.789 255.214 114.712 254.74C114.703 254.577 114.725 254.414 114.778 254.259C114.822 254.163 114.882 254.075 114.955 253.999C115.011 253.951 115.076 253.914 115.147 253.891C115.217 253.868 115.291 253.86 115.365 253.866L115.321 253.85Z" fill="#FFE2E9"/>
<path d="M119.448 259.391C119.149 259.417 118.85 259.417 118.551 259.391C118.413 259.242 118.313 259.126 118.197 258.982C118.377 258.926 118.552 258.857 118.723 258.777C118.96 258.824 119.192 258.897 119.414 258.993C119.508 259.048 119.492 259.159 119.448 259.391Z" fill="#FFE2E9"/>
<path d="M121.456 244.898L121.971 244.212L122.491 244.102L122.408 244.655C121.755 245.258 121.755 245.258 121.456 244.898Z" fill="#FFE2E9"/>
<path d="M115.531 257.202C115.598 257.08 115.67 256.975 115.73 256.881C116.284 257.323 116.284 257.274 116.361 257.81C116.151 257.915 115.847 257.805 115.531 257.202Z" fill="#FFE2E9"/>
<path d="M123.016 243.232L123.37 243.343C123.055 243.985 123.06 243.985 122.529 244.14C122.424 243.918 122.513 243.653 123.016 243.232Z" fill="#FFE2E9"/>
<path d="M99.5148 235.078C100.544 235.078 101.379 234.244 101.379 233.214C101.379 232.184 100.544 231.35 99.5148 231.35C98.4851 231.35 97.6504 232.184 97.6504 233.214C97.6504 234.244 98.4851 235.078 99.5148 235.078Z" stroke="#FFEBC4" stroke-miterlimit="10"/>
<path d="M99.5148 253.004C100.544 253.004 101.379 252.169 101.379 251.14C101.379 250.11 100.544 249.275 99.5148 249.275C98.4851 249.275 97.6504 250.11 97.6504 251.14C97.6504 252.169 98.4851 253.004 99.5148 253.004Z" stroke="#FFEBC4" stroke-miterlimit="10"/>
<path d="M106.065 235.078C107.095 235.078 107.929 234.244 107.929 233.214C107.929 232.184 107.095 231.35 106.065 231.35C105.035 231.35 104.201 232.184 104.201 233.214C104.201 234.244 105.035 235.078 106.065 235.078Z" stroke="#FFEBC4" stroke-miterlimit="10"/>
<path d="M106.065 253.004C107.095 253.004 107.929 252.169 107.929 251.14C107.929 250.11 107.095 249.275 106.065 249.275C105.035 249.275 104.201 250.11 104.201 251.14C104.201 252.169 105.035 253.004 106.065 253.004Z" stroke="#FFEBC4" stroke-miterlimit="10"/>
<path d="M112.615 235.078C113.645 235.078 114.48 234.244 114.48 233.214C114.48 232.184 113.645 231.35 112.615 231.35C111.586 231.35 110.751 232.184 110.751 233.214C110.751 234.244 111.586 235.078 112.615 235.078Z" stroke="#FFEBC4" stroke-miterlimit="10"/>
<path d="M112.615 253.004C113.645 253.004 114.48 252.169 114.48 251.14C114.48 250.11 113.645 249.275 112.615 249.275C111.586 249.275 110.751 250.11 110.751 251.14C110.751 252.169 111.586 253.004 112.615 253.004Z" stroke="#FFEBC4" stroke-miterlimit="10"/>
<path d="M111.697 247.604C111.615 247.655 111.517 247.671 111.423 247.651C111.329 247.63 111.247 247.574 111.193 247.493V247.239C110.861 247.045 110.861 247.045 110.823 246.686C110.585 246.498 110.424 246.271 110.662 245.955C110.281 245.839 110.275 245.834 110.247 245.402C109.965 245.092 109.927 244.926 110.07 244.727C110.125 244.65 110.204 244.595 110.295 244.57C110.385 244.544 110.482 244.551 110.568 244.589C110.878 244.733 110.828 245.004 110.773 245.258L110.95 245.541L110.878 245.895C110.94 245.911 110.998 245.94 111.048 245.979C111.099 246.018 111.142 246.067 111.173 246.122C111.205 246.178 111.226 246.239 111.234 246.302C111.242 246.366 111.238 246.43 111.221 246.492C111.415 246.641 111.586 246.802 111.431 247.09C111.534 247.135 111.617 247.216 111.665 247.317C111.713 247.419 111.722 247.535 111.691 247.643L111.697 247.604Z" fill="#FFE2E9"/>
<path d="M110.331 244.101L110.497 244.212C110.497 244.549 110.497 244.549 110.159 244.676L109.927 244.483L110.032 244.145C109.634 243.99 109.628 243.979 109.739 243.553C109.623 243.398 109.44 243.221 109.739 243C109.811 243 109.96 243.033 109.982 243.094C110.12 243.393 110.203 243.708 110.331 244.101Z" fill="#FFE2E9"/>
<path d="M112.466 250.651C112.303 250.595 112.144 250.528 111.99 250.452C111.941 250.428 111.898 250.395 111.863 250.353C111.827 250.312 111.801 250.264 111.786 250.212C111.77 250.16 111.765 250.105 111.772 250.051C111.779 249.997 111.796 249.945 111.824 249.899C111.85 249.848 111.887 249.804 111.931 249.768C111.975 249.732 112.026 249.705 112.081 249.689C112.135 249.673 112.193 249.668 112.249 249.675C112.306 249.681 112.361 249.699 112.41 249.727C112.471 249.76 112.527 249.801 112.576 249.849C112.611 249.983 112.62 250.123 112.601 250.261C112.582 250.399 112.536 250.531 112.466 250.651Z" fill="#FFE2E9"/>
<path d="M111.575 247.648C112.129 247.819 111.863 248.262 111.88 248.644C111.985 248.754 112.239 248.843 112.068 249.097C111.664 249.169 111.647 249.153 111.703 248.743L111.293 248.223C111.188 247.924 111.371 247.769 111.592 247.637L111.575 247.648Z" fill="#FFE2E9"/>
<path d="M112.411 251.205L112.211 250.868L112.438 250.58L112.809 250.674C112.859 251.072 112.859 251.072 112.411 251.205Z" fill="#FFE2E9"/>
<path d="M106.043 233.829L105.838 233.497L106.065 233.209L106.441 233.303C106.507 233.701 106.507 233.701 106.043 233.829Z" fill="#FFE2E9"/>
<path d="M109.478 243.178L109.279 242.84L109.506 242.553L109.876 242.647C109.915 243.045 109.915 243.045 109.478 243.178Z" fill="#FFE2E9"/>
<path d="M111.757 249.28L112.044 249.098C112.343 249.319 112.343 249.319 112.144 249.618C111.917 249.656 111.773 249.585 111.757 249.28Z" fill="#FFE2E9"/>
<path d="M108.665 239.305C108.583 239.355 108.485 239.372 108.391 239.351C108.297 239.331 108.215 239.274 108.162 239.194V238.94C107.83 238.746 107.83 238.746 107.791 238.359C107.548 238.176 107.387 237.95 107.631 237.634C107.243 237.512 107.243 237.512 107.216 237.081C106.934 236.771 106.889 236.605 107.039 236.4C107.094 236.325 107.174 236.271 107.264 236.246C107.354 236.221 107.45 236.227 107.537 236.262C107.841 236.412 107.791 236.677 107.741 236.932L107.913 237.219L107.841 237.573C107.966 237.607 108.072 237.689 108.138 237.801C108.203 237.912 108.221 238.045 108.189 238.171C108.383 238.32 108.554 238.481 108.4 238.768C108.502 238.814 108.585 238.895 108.632 238.997C108.679 239.099 108.687 239.214 108.654 239.322L108.665 239.305Z" fill="#FFE2E9"/>
<path d="M107.293 235.798L107.465 235.909C107.465 236.252 107.465 236.252 107.122 236.379L106.895 236.185L106.995 235.842C106.602 235.693 106.591 235.676 106.707 235.25C106.585 235.101 106.403 234.924 106.707 234.697C106.773 234.725 106.928 234.736 106.95 234.791C107.083 235.096 107.15 235.411 107.293 235.798Z" fill="#FFE2E9"/>
<path d="M109.428 242.355C109.266 242.295 109.107 242.227 108.953 242.15C108.904 242.126 108.861 242.092 108.825 242.051C108.79 242.01 108.764 241.962 108.748 241.91C108.733 241.858 108.728 241.803 108.735 241.749C108.741 241.695 108.759 241.643 108.787 241.597C108.843 241.496 108.936 241.421 109.047 241.388C109.157 241.355 109.276 241.366 109.379 241.42C109.44 241.454 109.495 241.497 109.545 241.547C109.58 241.682 109.588 241.824 109.568 241.962C109.548 242.101 109.5 242.234 109.428 242.355Z" fill="#FFE2E9"/>
<path d="M108.56 239.351C109.114 239.522 108.848 239.965 108.859 240.341C108.97 240.457 109.219 240.546 109.047 240.8C108.649 240.872 108.627 240.85 108.682 240.441L108.278 239.926C108.173 239.628 108.35 239.473 108.577 239.34L108.56 239.351Z" fill="#FFE2E9"/>
<path d="M109.362 242.907L109.158 242.575L109.385 242.287L109.761 242.381C109.822 242.768 109.822 242.768 109.362 242.907Z" fill="#FFE2E9"/>
<path d="M106.447 234.875L106.242 234.543L106.469 234.25L106.845 234.344C106.889 234.748 106.889 234.748 106.447 234.875Z" fill="#FFE2E9"/>
<path d="M108.72 240.981L109.013 240.799C109.312 241.02 109.312 241.02 109.113 241.319C108.886 241.358 108.742 241.286 108.72 240.981Z" fill="#FFE2E9"/>
<path d="M106.131 233.895L106.425 233.713C106.723 233.934 106.723 233.934 106.524 234.233C106.297 234.272 106.153 234.2 106.131 233.895Z" fill="#FFE2E9"/>
<path d="M101.164 238.736C101.24 238.687 101.332 238.668 101.422 238.682C101.512 238.697 101.593 238.743 101.65 238.814V239.035C101.966 239.19 101.966 239.19 101.988 239.527C102.215 239.682 102.364 239.87 102.11 240.158C102.486 240.247 102.486 240.252 102.497 240.65C102.757 240.91 102.796 241.049 102.641 241.237C102.58 241.306 102.501 241.357 102.413 241.383C102.325 241.408 102.231 241.407 102.143 241.381C101.85 241.265 101.91 241.027 101.971 240.827L101.811 240.584L101.899 240.269C101.842 240.262 101.787 240.243 101.739 240.212C101.69 240.181 101.649 240.14 101.619 240.091C101.588 240.042 101.569 239.986 101.563 239.929C101.557 239.872 101.564 239.814 101.584 239.76C101.401 239.638 101.241 239.505 101.401 239.245C101.197 239.135 101.081 238.985 101.175 238.753L101.164 238.736Z" fill="#FFE2E9"/>
<path d="M102.353 241.757L102.192 241.668C102.192 241.369 102.192 241.369 102.552 241.242L102.768 241.403L102.652 241.707C103.033 241.823 103.039 241.834 102.912 242.216C103.022 242.343 103.194 242.492 102.867 242.708C102.801 242.708 102.657 242.708 102.635 242.631C102.53 242.354 102.458 242.094 102.353 241.757Z" fill="#FFE2E9"/>
<path d="M100.544 236.109C100.7 236.152 100.853 236.204 101.003 236.264C101.05 236.281 101.092 236.308 101.126 236.344C101.16 236.38 101.185 236.424 101.198 236.472C101.212 236.52 101.214 236.57 101.204 236.618C101.194 236.667 101.172 236.713 101.141 236.751C101.079 236.844 100.987 236.913 100.88 236.945C100.773 236.977 100.658 236.971 100.555 236.928C100.497 236.903 100.443 236.869 100.394 236.829C100.365 236.705 100.363 236.577 100.389 236.452C100.415 236.328 100.468 236.211 100.544 236.109Z" fill="#FFE2E9"/>
<path d="M101.268 238.69C100.715 238.568 101.014 238.137 101.014 237.832C100.914 237.738 100.671 237.672 100.848 237.44C101.246 237.357 101.268 237.373 101.196 237.738L101.573 238.175C101.661 238.435 101.479 238.574 101.252 238.701L101.268 238.69Z" fill="#FFE2E9"/>
<path d="M100.621 235.611L100.804 235.899L100.566 236.165L100.201 236.098C100.179 235.744 100.179 235.744 100.621 235.611Z" fill="#FFE2E9"/>
<path d="M106.098 250.598L106.281 250.88L106.043 251.145L105.678 251.079C105.656 250.73 105.656 250.73 106.098 250.598Z" fill="#FFE2E9"/>
<path d="M103.15 242.531L103.332 242.819L103.1 243.084L102.735 243.018C102.724 242.664 102.724 242.664 103.15 242.531Z" fill="#FFE2E9"/>
<path d="M101.18 237.265L100.887 237.442C100.599 237.259 100.599 237.259 100.809 236.988C101.064 236.944 101.174 236.999 101.18 237.265Z" fill="#FFE2E9"/>
<path d="M103.78 245.898C103.856 245.847 103.947 245.827 104.037 245.84C104.127 245.853 104.209 245.9 104.267 245.97V246.191C104.582 246.352 104.582 246.352 104.604 246.684C104.831 246.839 104.981 247.032 104.732 247.32C105.102 247.409 105.102 247.409 105.113 247.807C105.373 248.067 105.412 248.211 105.257 248.393C105.197 248.463 105.118 248.514 105.03 248.54C104.941 248.566 104.847 248.565 104.759 248.537C104.466 248.421 104.527 248.183 104.588 247.984L104.433 247.746L104.516 247.431C104.459 247.422 104.406 247.402 104.358 247.37C104.311 247.339 104.27 247.298 104.24 247.249C104.21 247.201 104.191 247.146 104.184 247.09C104.177 247.033 104.183 246.976 104.2 246.922C104.018 246.8 103.857 246.662 104.023 246.407C103.819 246.291 103.697 246.147 103.791 245.915L103.78 245.898Z" fill="#FFE2E9"/>
<path d="M104.975 248.92L104.809 248.826C104.809 248.533 104.809 248.533 105.169 248.4L105.384 248.566L105.268 248.865C105.65 248.981 105.661 248.992 105.528 249.374C105.639 249.501 105.81 249.651 105.484 249.866C105.418 249.866 105.274 249.866 105.252 249.795C105.147 249.546 105.075 249.258 104.975 248.92Z" fill="#FFE2E9"/>
<path d="M103.161 243.266C103.316 243.315 103.476 243.36 103.62 243.421C103.668 243.437 103.711 243.464 103.746 243.501C103.78 243.537 103.805 243.582 103.819 243.63C103.833 243.679 103.834 243.73 103.824 243.779C103.813 243.828 103.791 243.874 103.758 243.913C103.696 244.006 103.604 244.074 103.497 244.107C103.39 244.139 103.275 244.133 103.172 244.09C103.114 244.063 103.06 244.027 103.012 243.985C102.982 243.861 102.981 243.733 103.006 243.609C103.032 243.484 103.085 243.367 103.161 243.266Z" fill="#FFE2E9"/>
<path d="M103.885 245.856C103.332 245.729 103.631 245.303 103.636 244.998C103.531 244.904 103.288 244.833 103.47 244.606C103.863 244.523 103.885 244.539 103.813 244.899L104.189 245.336C104.278 245.596 104.095 245.74 103.869 245.889L103.885 245.856Z" fill="#FFE2E9"/>
<path d="M103.238 242.773L103.42 243.056L103.183 243.321L102.823 243.255C102.795 242.906 102.795 242.906 103.238 242.773Z" fill="#FFE2E9"/>
<path d="M105.766 249.695L105.949 249.977L105.716 250.243L105.351 250.177C105.324 249.828 105.324 249.828 105.766 249.695Z" fill="#FFE2E9"/>
<path d="M103.796 244.427L103.503 244.599C103.221 244.416 103.221 244.416 103.426 244.151C103.653 244.101 103.791 244.162 103.796 244.427Z" fill="#FFE2E9"/>
<path d="M106.043 250.542L105.75 250.714C105.462 250.531 105.462 250.531 105.672 250.266C105.888 250.216 106.043 250.277 106.043 250.542Z" fill="#FFE2E9"/>
<path d="M99.8691 246.103C99.6533 246.103 99.504 246.064 99.432 245.92L99.5095 245.76C99.2661 245.56 99.2661 245.56 99.3601 245.312C99.1997 245.14 99.1278 244.963 99.4652 244.819C99.1388 244.659 99.1388 244.659 99.2716 244.366C99.1112 244.106 99.1278 243.995 99.338 243.901C99.4204 243.867 99.5093 243.852 99.5984 243.856C99.6874 243.861 99.7742 243.886 99.8525 243.928C100.09 244.089 99.9521 244.249 99.8138 244.393L99.8801 244.614L99.6921 244.819C99.9134 244.935 99.9576 245.09 99.8138 245.267C99.941 245.406 100.046 245.544 99.8138 245.688C99.9687 245.826 100.03 245.964 99.858 246.108L99.8691 246.103Z" fill="#FFE2E9"/>
<path d="M99.7803 243.602L99.902 243.707C99.8024 243.923 99.8024 243.923 99.4207 243.923L99.2713 243.745L99.4871 243.557C99.1662 243.375 99.1607 243.364 99.4152 243.12C99.3598 242.999 99.2492 242.849 99.6254 242.777C99.6807 242.811 99.819 242.849 99.819 242.893C99.8212 243.13 99.8083 243.367 99.7803 243.602Z" fill="#FFE2E9"/>
<path d="M99.5422 248.169C99.4122 248.1 99.2866 248.022 99.166 247.937C99.0001 247.81 99.0222 247.649 99.2048 247.55C99.2975 247.494 99.4037 247.465 99.5118 247.465C99.62 247.465 99.7261 247.494 99.8188 247.55C99.86 247.584 99.8971 247.623 99.9295 247.666C99.8631 247.931 99.8299 247.97 99.5422 248.169Z" fill="#FFE2E9"/>
<path d="M99.7469 246.111C100.223 246.343 99.8078 246.554 99.6916 246.797C99.758 246.891 99.9627 247.007 99.6916 247.123C99.2878 247.079 99.2767 247.063 99.4703 246.819L99.2656 246.404C99.2656 246.194 99.4924 246.139 99.7469 246.105V246.111Z" fill="#FFE2E9"/>
<path d="M99.299 248.51L99.2271 248.256L99.5424 248.123L99.8577 248.267C99.7637 248.532 99.7637 248.532 99.299 248.51Z" fill="#FFE2E9"/>
<path d="M99.299 236.219L99.2271 235.965L99.5424 235.832L99.8577 235.976C99.7637 236.269 99.7637 236.269 99.299 236.219Z" fill="#FFE2E9"/>
<path d="M99.299 242.829L99.2271 242.575L99.5424 242.447L99.8577 242.591C99.7637 242.851 99.7637 242.851 99.299 242.829Z" fill="#FFE2E9"/>
<path d="M99.3436 247.161L99.681 247.117C99.8857 247.322 99.8857 247.322 99.598 247.46C99.3657 247.433 99.2606 247.361 99.3436 247.161Z" fill="#FFE2E9"/>
<path d="M99.8691 240.229C99.6533 240.229 99.504 240.191 99.432 240.047L99.5095 239.886C99.2661 239.687 99.2661 239.687 99.3601 239.438C99.1997 239.267 99.1278 239.09 99.4652 238.946C99.1388 238.785 99.1388 238.785 99.2716 238.492C99.1112 238.238 99.1278 238.121 99.338 238.027C99.4207 237.995 99.5095 237.98 99.5983 237.985C99.687 237.99 99.7737 238.014 99.8525 238.055C100.09 238.221 99.9521 238.376 99.8138 238.52L99.8801 238.741L99.6921 238.946C99.9134 239.062 99.9576 239.217 99.8138 239.399C99.941 239.532 100.046 239.671 99.8138 239.814C99.9687 239.953 100.03 240.091 99.858 240.235L99.8691 240.229Z" fill="#FFE2E9"/>
<path d="M99.7803 237.729L99.902 237.834C99.8024 238.049 99.8024 238.049 99.4207 238.049L99.2713 237.872L99.4871 237.684C99.1662 237.502 99.1607 237.491 99.4152 237.253C99.3598 237.126 99.2492 236.976 99.6254 236.904C99.6807 236.937 99.819 236.976 99.819 237.02C99.8212 237.257 99.8083 237.494 99.7803 237.729Z" fill="#FFE2E9"/>
<path d="M99.5425 242.298C99.4152 242.215 99.2769 242.149 99.1663 242.061C99.0556 241.972 99.0224 241.773 99.205 241.673C99.2999 241.621 99.4075 241.595 99.516 241.6C99.6244 241.605 99.7293 241.64 99.8191 241.701C99.86 241.734 99.8971 241.771 99.9297 241.812C99.8634 242.055 99.8302 242.094 99.5425 242.298Z" fill="#FFE2E9"/>
<path d="M99.7469 240.234C100.223 240.466 99.8078 240.682 99.6916 240.92C99.758 241.014 99.9627 241.13 99.6916 241.246C99.2878 241.202 99.2767 241.186 99.4703 240.942L99.2656 240.527C99.2656 240.317 99.4924 240.262 99.7469 240.229V240.234Z" fill="#FFE2E9"/>
<path d="M99.299 242.637L99.2271 242.383L99.5424 242.25L99.8577 242.399C99.7637 242.659 99.7637 242.659 99.299 242.637Z" fill="#FFE2E9"/>
<path d="M99.299 236.954L99.2271 236.7L99.5424 236.572L99.8577 236.716C99.7637 236.976 99.7637 236.976 99.299 236.954Z" fill="#FFE2E9"/>
<path d="M99.3436 241.292L99.681 241.242C99.8857 241.447 99.8857 241.447 99.598 241.585C99.3657 241.563 99.2606 241.486 99.3436 241.292Z" fill="#FFE2E9"/>
<path d="M99.3436 236.269L99.681 236.219C99.8857 236.429 99.8857 236.429 99.598 236.567C99.3657 236.545 99.2606 236.468 99.3436 236.269Z" fill="#FFE2E9"/>
<path d="M104.66 236.041C104.751 236.051 104.836 236.094 104.897 236.162C104.959 236.231 104.992 236.32 104.992 236.412L104.842 236.578C104.986 236.904 104.986 236.904 104.787 237.175C104.859 237.435 104.848 237.679 104.472 237.728C104.699 238.033 104.699 238.038 104.472 238.348C104.505 238.713 104.439 238.846 104.201 238.901C104.11 238.914 104.019 238.901 103.935 238.863C103.852 238.826 103.781 238.766 103.73 238.691C103.581 238.409 103.78 238.271 103.974 238.138L104.007 237.85L104.278 237.662C104.239 237.62 104.209 237.57 104.192 237.515C104.175 237.46 104.171 237.402 104.179 237.345C104.188 237.288 104.209 237.233 104.241 237.186C104.274 237.138 104.317 237.099 104.367 237.07C104.306 236.86 104.267 236.655 104.56 236.561C104.477 236.345 104.483 236.157 104.704 236.041H104.66Z" fill="#FFE2E9"/>
<path d="M103.625 239.117L103.559 238.94C103.752 238.713 103.752 238.713 104.112 238.846L104.173 239.112L103.89 239.266C104.112 239.604 104.106 239.615 103.763 239.82C103.763 239.986 103.796 240.207 103.415 240.163C103.376 240.107 103.265 240.013 103.282 239.958C103.365 239.698 103.487 239.438 103.625 239.117Z" fill="#FFE2E9"/>
<path d="M105.888 233.629C105.978 233.763 106.061 233.901 106.137 234.044C106.161 234.087 106.175 234.135 106.178 234.184C106.18 234.234 106.171 234.283 106.15 234.328C106.129 234.373 106.098 234.412 106.06 234.443C106.021 234.473 105.975 234.494 105.926 234.503C105.821 234.533 105.708 234.526 105.607 234.483C105.507 234.439 105.424 234.363 105.373 234.265C105.348 234.207 105.329 234.145 105.318 234.083C105.376 233.971 105.456 233.873 105.554 233.795C105.653 233.717 105.766 233.66 105.888 233.629Z" fill="#FFE2E9"/>
<path d="M104.776 236.074C104.433 235.62 104.915 235.521 105.131 235.255C105.131 235.117 104.976 234.907 105.258 234.846C105.617 235.039 105.623 235.067 105.33 235.294V235.847C105.23 236.102 104.998 236.09 104.743 236.041L104.776 236.074Z" fill="#FFE2E9"/>
<path d="M106.264 233.298L106.22 233.636L105.872 233.686L105.634 233.398C105.838 233.116 105.838 233.116 106.264 233.298Z" fill="#FFE2E9"/>
<path d="M100.787 248.283L100.743 248.62L100.395 248.67L100.157 248.383C100.361 248.095 100.361 248.095 100.787 248.283Z" fill="#FFE2E9"/>
<path d="M103.736 240.22L103.692 240.557L103.338 240.607L103.105 240.325C103.31 240.037 103.31 240.037 103.736 240.22Z" fill="#FFE2E9"/>
<path d="M105.622 234.925L105.285 234.869C105.185 234.548 105.185 234.548 105.523 234.477C105.722 234.609 105.788 234.72 105.622 234.925Z" fill="#FFE2E9"/>
<path d="M102.043 243.201C102.248 243.256 102.37 243.367 102.37 243.572L102.226 243.743C102.37 244.064 102.37 244.064 102.165 244.335C102.242 244.601 102.231 244.839 101.855 244.889C102.082 245.198 102.082 245.198 101.855 245.508C101.888 245.879 101.822 246.006 101.584 246.061C101.494 246.077 101.401 246.065 101.317 246.027C101.233 245.99 101.163 245.929 101.114 245.851C100.964 245.575 101.164 245.431 101.357 245.298L101.39 245.01L101.661 244.828C101.622 244.785 101.593 244.734 101.576 244.679C101.558 244.624 101.554 244.565 101.562 244.508C101.571 244.45 101.592 244.396 101.625 244.348C101.657 244.3 101.7 244.259 101.75 244.23C101.684 244.02 101.65 243.815 101.944 243.721C101.855 243.505 101.861 243.317 102.087 243.201H102.043Z" fill="#FFE2E9"/>
<path d="M101.009 246.277L100.942 246.105C101.13 245.878 101.13 245.878 101.496 246.006L101.556 246.271L101.274 246.426C101.496 246.763 101.49 246.78 101.147 246.979C101.147 247.145 101.18 247.372 100.799 247.328C100.76 247.272 100.649 247.173 100.666 247.123C100.749 246.858 100.87 246.603 101.009 246.277Z" fill="#FFE2E9"/>
<path d="M103.277 240.787C103.37 240.92 103.455 241.059 103.532 241.202C103.556 241.245 103.57 241.294 103.573 241.343C103.575 241.393 103.565 241.443 103.545 241.488C103.524 241.533 103.493 241.573 103.455 241.604C103.416 241.635 103.37 241.657 103.321 241.667C103.215 241.694 103.103 241.685 103.003 241.641C102.902 241.597 102.82 241.52 102.768 241.423C102.743 241.365 102.724 241.303 102.713 241.241C102.77 241.13 102.85 241.033 102.947 240.954C103.044 240.876 103.157 240.819 103.277 240.787Z" fill="#FFE2E9"/>
<path d="M102.17 243.232C101.833 242.784 102.314 242.679 102.53 242.414C102.53 242.275 102.375 242.071 102.657 242.01C103.017 242.203 103.017 242.226 102.729 242.458V243.011C102.635 243.266 102.403 243.26 102.176 243.205L102.17 243.232Z" fill="#FFE2E9"/>
<path d="M103.647 240.463L103.603 240.8L103.249 240.844L103.017 240.562C103.221 240.275 103.221 240.275 103.647 240.463Z" fill="#FFE2E9"/>
<path d="M101.118 247.383L101.074 247.72L100.72 247.77L100.488 247.482C100.692 247.194 100.692 247.194 101.118 247.383Z" fill="#FFE2E9"/>
<path d="M103.006 242.086L102.668 242.026C102.569 241.705 102.569 241.705 102.906 241.633C103.105 241.743 103.172 241.876 103.006 242.086Z" fill="#FFE2E9"/>
<path d="M100.77 248.2L100.433 248.139C100.333 247.818 100.333 247.818 100.671 247.746C100.87 247.884 100.936 247.99 100.77 248.2Z" fill="#FFE2E9"/>
<path d="M107.642 247.841C107.547 247.829 107.461 247.779 107.402 247.704C107.343 247.628 107.316 247.533 107.327 247.437L107.487 247.238C107.36 246.873 107.36 246.873 107.576 246.558C107.515 246.259 107.537 246.005 107.924 245.894C107.708 245.556 107.708 245.556 107.979 245.186C107.979 244.771 108.035 244.633 108.284 244.555C108.374 244.535 108.469 244.545 108.553 244.584C108.637 244.623 108.706 244.689 108.748 244.771C108.887 245.081 108.677 245.252 108.472 245.418L108.422 245.745L108.14 245.971C108.177 246.024 108.203 246.083 108.217 246.146C108.231 246.209 108.232 246.274 108.221 246.337C108.209 246.4 108.186 246.461 108.151 246.515C108.116 246.569 108.071 246.615 108.018 246.652C108.073 246.89 108.096 247.122 107.797 247.244C107.849 247.348 107.86 247.467 107.828 247.579C107.796 247.69 107.724 247.786 107.625 247.847L107.642 247.841Z" fill="#FFE2E9"/>
<path d="M108.853 244.284L108.914 244.477C108.709 244.743 108.709 244.743 108.361 244.616L108.311 244.317L108.61 244.123C108.405 243.753 108.405 243.736 108.77 243.481C108.77 243.288 108.77 243.039 109.141 243.067C109.18 243.133 109.285 243.233 109.268 243.293C109.152 243.603 109.014 243.902 108.853 244.284Z" fill="#FFE2E9"/>
<path d="M106.27 250.652C106.192 250.497 106.098 250.347 106.037 250.187C106.011 250.136 105.997 250.079 105.995 250.022C105.994 249.965 106.004 249.907 106.027 249.855C106.05 249.802 106.084 249.755 106.127 249.717C106.169 249.678 106.22 249.65 106.275 249.634C106.382 249.597 106.498 249.602 106.601 249.648C106.704 249.695 106.785 249.778 106.828 249.883C106.85 249.947 106.865 250.014 106.873 250.082C106.815 250.212 106.732 250.329 106.628 250.427C106.525 250.525 106.403 250.601 106.27 250.652Z" fill="#FFE2E9"/>
<path d="M107.531 247.809C107.857 248.307 107.354 248.461 107.122 248.76C107.122 248.921 107.266 249.147 106.972 249.23C106.618 249.031 106.618 249.004 106.923 248.727V248.069C107.039 247.77 107.271 247.77 107.531 247.814V247.809Z" fill="#FFE2E9"/>
<path d="M105.871 251.049L105.932 250.662L106.292 250.59L106.518 250.9C106.292 251.237 106.292 251.237 105.871 251.049Z" fill="#FFE2E9"/>
<path d="M112.217 233.684L112.278 233.297L112.637 233.225L112.864 233.534C112.643 233.872 112.643 233.872 112.217 233.684Z" fill="#FFE2E9"/>
<path d="M108.809 243.028L108.87 242.64L109.23 242.568L109.456 242.878C109.224 243.216 109.224 243.216 108.809 243.028Z" fill="#FFE2E9"/>
<path d="M106.596 249.164L106.933 249.214C107.016 249.573 107.016 249.573 106.679 249.673C106.485 249.546 106.424 249.407 106.596 249.164Z" fill="#FFE2E9"/>
<path d="M110.679 239.544C110.584 239.531 110.497 239.482 110.438 239.406C110.379 239.331 110.352 239.235 110.363 239.14L110.518 238.941C110.391 238.575 110.391 238.575 110.612 238.255C110.546 237.961 110.568 237.701 110.961 237.596C110.739 237.259 110.739 237.253 111.011 236.888C111.011 236.473 111.071 236.335 111.315 236.257C111.406 236.236 111.502 236.245 111.587 236.284C111.672 236.324 111.742 236.39 111.785 236.473C111.923 236.783 111.713 236.954 111.508 237.115L111.459 237.447L111.171 237.668C111.246 237.775 111.277 237.907 111.255 238.035C111.233 238.164 111.161 238.279 111.055 238.354C111.105 238.592 111.132 238.824 110.828 238.941C110.88 239.044 110.891 239.164 110.859 239.275C110.827 239.387 110.755 239.483 110.656 239.544H110.679Z" fill="#FFE2E9"/>
<path d="M111.89 235.986L111.946 236.174C111.741 236.445 111.741 236.445 111.393 236.312L111.343 236.013L111.636 235.825C111.431 235.449 111.437 235.438 111.796 235.183C111.796 234.99 111.796 234.735 112.173 234.769C112.206 234.829 112.316 234.935 112.294 234.995C112.184 235.305 112.045 235.604 111.89 235.986Z" fill="#FFE2E9"/>
<path d="M109.307 242.354C109.218 242.206 109.138 242.053 109.069 241.895C109.044 241.843 109.031 241.787 109.029 241.73C109.028 241.673 109.039 241.616 109.062 241.564C109.084 241.511 109.118 241.464 109.16 241.426C109.203 241.388 109.253 241.359 109.307 241.342C109.413 241.302 109.531 241.306 109.635 241.352C109.738 241.399 109.819 241.485 109.86 241.591C109.885 241.655 109.901 241.722 109.91 241.79C109.852 241.919 109.769 242.036 109.666 242.133C109.562 242.23 109.44 242.305 109.307 242.354Z" fill="#FFE2E9"/>
<path d="M110.563 239.512C110.889 240.01 110.391 240.165 110.159 240.463C110.159 240.618 110.303 240.851 110.01 240.934C109.656 240.734 109.65 240.707 109.96 240.43V239.772C110.07 239.473 110.308 239.473 110.563 239.517V239.512Z" fill="#FFE2E9"/>
<path d="M108.902 242.752L108.963 242.365L109.323 242.293L109.55 242.603C109.328 242.94 109.328 242.94 108.902 242.752Z" fill="#FFE2E9"/>
<path d="M111.835 234.73L111.896 234.343L112.256 234.266L112.483 234.581C112.261 234.918 112.261 234.918 111.835 234.73Z" fill="#FFE2E9"/>
<path d="M109.639 240.865L109.982 240.91C110.065 241.275 110.065 241.275 109.722 241.374C109.523 241.247 109.456 241.109 109.639 240.865Z" fill="#FFE2E9"/>
<path d="M112.228 233.777L112.571 233.827C112.654 234.187 112.654 234.187 112.311 234.286C112.128 234.17 112.045 234.021 112.228 233.777Z" fill="#FFE2E9"/>
<path d="M141.914 145.451C127.242 149.346 111.808 149.346 97.1362 145.451H141.914Z" fill="#4EB3B2"/>
<path d="M105.489 147.752C105.489 147.426 105.699 147.232 106.236 147.199L106.789 147.404C107.038 147.274 107.314 147.206 107.594 147.206C107.875 147.206 108.151 147.274 108.399 147.404C109.03 147.249 109.666 147.199 110.114 147.758C110.745 147.343 110.745 147.349 111.774 147.636C112.703 147.481 113.096 147.537 113.434 147.869C113.489 147.923 113.53 147.99 113.552 148.064C113.575 148.138 113.579 148.217 113.563 148.292C113.548 148.368 113.514 148.439 113.464 148.498C113.414 148.558 113.351 148.604 113.279 148.632C112.67 148.953 112.128 148.682 111.619 148.433L110.839 148.466L110.136 148.101C109.889 148.247 109.607 148.324 109.32 148.324C109.033 148.324 108.752 148.247 108.504 148.101C108.26 148.205 107.991 148.241 107.728 148.204C107.465 148.167 107.217 148.058 107.011 147.891C106.769 147.984 106.508 148.018 106.25 147.99C105.992 147.963 105.744 147.873 105.528 147.73L105.489 147.752Z" fill="#6B322F"/>
<path d="M114.408 148.603L114.015 148.758C113.252 148.559 113.252 148.559 113.301 147.989L113.938 147.807L114.585 148.172C115.271 147.735 115.304 147.724 116.145 148.139C116.582 148.067 117.124 147.934 117.362 148.504C117.246 148.587 117.097 148.786 116.942 148.78C116.162 148.753 115.382 148.703 114.408 148.603Z" fill="#6B322F"/>
<path d="M98.3257 145.805C98.641 145.689 98.9342 145.551 99.2662 145.451C99.5005 145.383 99.749 145.381 99.9843 145.445C100.22 145.51 100.433 145.638 100.599 145.816C100.904 146.165 100.804 146.502 100.312 146.696C100.167 146.736 100.019 146.762 99.8692 146.773C99.2679 146.616 98.7292 146.278 98.3257 145.805Z" fill="#6B322F"/>
<path d="M105.49 147.569C104.544 148.122 103.885 147.398 103.078 147.066C102.729 147.066 102.264 147.326 101.921 146.872C102.198 146.319 102.259 146.319 103.055 146.756C103.57 146.756 104.09 146.756 104.566 146.712C105.307 146.85 105.445 147.204 105.495 147.602L105.49 147.569Z" fill="#6B322F"/>
<path d="M97.2523 145.146L98.1541 145.274L98.4805 145.827L97.8609 146.164C96.9868 145.799 96.9868 145.794 97.2523 145.146Z" fill="#6B322F"/>
<path d="M140.509 145.484L141.361 145.152L141.914 145.484L141.538 146.082C140.603 146.187 140.603 146.176 140.509 145.484Z" fill="#6B322F"/>
<path d="M117.195 148.012L118.103 147.912L118.556 148.393L118.003 148.864C117.107 148.709 117.107 148.703 117.195 148.012Z" fill="#6B322F"/>
<path d="M101.894 146.304L101.96 146.857C101.175 147.012 101.169 147.012 100.771 146.486C100.942 146.143 101.241 146.038 101.894 146.304Z" fill="#6B322F"/>
<path d="M126.512 148.597C126.429 148.281 126.595 148.044 127.104 147.889L127.657 147.955C127.868 147.771 128.119 147.64 128.39 147.572C128.661 147.504 128.945 147.5 129.217 147.562C129.771 147.258 130.401 147.075 130.971 147.501C131.48 146.948 131.486 146.948 132.537 146.992C133.405 146.622 133.798 146.583 134.197 146.832C134.262 146.872 134.317 146.928 134.355 146.994C134.394 147.06 134.416 147.135 134.418 147.212C134.421 147.289 134.405 147.365 134.371 147.434C134.337 147.502 134.287 147.562 134.224 147.606C133.715 148.06 133.118 147.933 132.565 147.811L131.807 148.021L131.043 147.839C130.837 148.039 130.581 148.179 130.301 148.246C130.022 148.312 129.729 148.301 129.455 148.215C129.245 148.378 128.993 148.478 128.728 148.506C128.463 148.533 128.196 148.486 127.956 148.37C127.742 148.516 127.498 148.61 127.241 148.645C126.985 148.679 126.724 148.653 126.479 148.569L126.512 148.597Z" fill="#6B322F"/>
<path d="M135.364 147.31L135.015 147.554C134.23 147.554 134.23 147.554 134.136 147L134.689 146.674L135.408 146.873C135.961 146.276 136 146.276 136.913 146.48C137.322 146.309 137.82 146.038 138.185 146.541C138.091 146.646 137.992 146.873 137.842 146.906C137.123 147.056 136.349 147.161 135.364 147.31Z" fill="#6B322F"/>
<path d="M119.093 148.405C119.375 148.216 119.646 148.012 119.929 147.851C120.14 147.729 120.381 147.668 120.626 147.674C120.87 147.681 121.107 147.756 121.312 147.89C121.688 148.161 121.671 148.515 121.24 148.814C121.106 148.884 120.968 148.943 120.825 148.991C120.201 148.978 119.596 148.774 119.093 148.405Z" fill="#6B322F"/>
<path d="M126.479 148.427C125.693 149.201 124.88 148.626 124.017 148.51C123.685 148.62 123.287 148.941 122.85 148.593C122.982 147.984 123.043 147.962 123.923 148.217L125.378 147.813C126.13 147.768 126.352 148.084 126.484 148.455L126.479 148.427Z" fill="#6B322F"/>
<path d="M117.893 148.023L118.8 147.924L119.254 148.4L118.734 148.875C117.799 148.715 117.799 148.715 117.893 148.023Z" fill="#6B322F"/>
<path d="M137.947 146.091L138.81 145.787L139.363 146.147L138.965 146.7C138.013 146.772 138.019 146.766 137.947 146.091Z" fill="#6B322F"/>
<path d="M122.678 148.039L122.872 148.537C122.141 148.875 122.141 148.88 121.627 148.46C121.715 148.117 121.987 147.945 122.678 148.039Z" fill="#6B322F"/>
<path d="M140.343 145.594L140.631 146.042C139.984 146.523 139.978 146.512 139.392 146.208C139.403 145.854 139.629 145.638 140.343 145.594Z" fill="#6B322F"/>
<path d="M100.909 149.207C100.909 148.881 101.196 148.715 101.899 148.754L102.618 149.03C103.324 148.831 104.079 148.894 104.742 149.207C105.583 149.13 106.402 149.135 107.011 149.76C107.846 149.401 107.846 149.417 109.19 149.76C110.424 149.677 110.939 149.76 111.353 150.115C111.652 150.375 111.58 150.718 111.143 150.872C110.336 151.155 109.616 150.834 108.93 150.552L107.885 150.518L106.961 150.081C106.609 150.204 106.235 150.252 105.864 150.222C105.493 150.193 105.131 150.086 104.803 149.91C104.466 149.986 104.117 149.992 103.778 149.926C103.439 149.86 103.118 149.725 102.834 149.528C102.162 149.652 101.468 149.528 100.881 149.18L100.909 149.207Z" fill="#6B322F"/>
<path d="M112.72 150.916L112.167 151.049C111.155 150.805 111.155 150.805 111.221 150.236L112.068 150.092L112.925 150.49C113.843 150.097 113.882 150.081 114.994 150.529C115.581 150.474 116.305 150.357 116.615 150.933C116.466 151.016 116.261 151.204 116.062 151.198C115.049 151.137 114.009 151.071 112.72 150.916Z" fill="#6B322F"/>
<path d="M91.5645 146.059C91.9794 145.998 92.3611 145.921 92.7981 145.882C93.1134 145.861 93.4296 145.905 93.7274 146.01C94.0252 146.116 94.2982 146.281 94.5297 146.496C94.917 146.906 94.7898 147.232 94.1425 147.337C93.9585 147.355 93.7732 147.355 93.5892 147.337C92.8179 147.087 92.1217 146.648 91.5645 146.059Z" fill="#6B322F"/>
<path d="M100.926 149.03C99.6699 149.467 98.818 148.643 97.7613 148.173C97.3021 148.173 96.6936 148.317 96.251 147.797C96.6161 147.277 96.6936 147.288 97.7392 147.858C98.4086 147.929 99.0946 147.996 99.7253 148.04C100.693 148.278 100.87 148.66 100.931 149.069L100.926 149.03Z" fill="#6B322F"/>
<path d="M90.1873 145.162C90.5911 145.284 90.9673 145.383 91.3491 145.483L91.7695 146.125L90.9562 146.346C89.8277 145.782 89.8332 145.765 90.1873 145.162Z" fill="#6B322F"/>
<path d="M147.203 145.776L148.31 145.262L149.045 145.483L148.57 146.175C147.33 146.473 147.33 146.457 147.203 145.776Z" fill="#6B322F"/>
<path d="M116.427 150.442L117.633 150.354L118.236 150.84C117.976 151.006 117.744 151.167 117.533 151.305C116.289 151.139 116.294 151.128 116.427 150.442Z" fill="#6B322F"/>
<path d="M96.2116 147.199L96.2946 147.752C95.2656 147.752 95.2546 147.752 94.7456 147.199C94.978 146.889 95.3597 146.834 96.2116 147.199Z" fill="#6B322F"/>
<path d="M128.82 150.794C128.709 150.484 128.925 150.24 129.6 150.036H130.374C130.973 149.612 131.702 149.416 132.432 149.482C133.196 149.123 133.998 148.868 134.756 149.233C135.42 148.608 135.425 148.636 136.814 148.531C137.953 148.05 138.473 147.978 138.971 148.155C139.342 148.298 139.386 148.647 139.021 148.935C138.357 149.488 137.572 149.405 136.841 149.361C136.493 149.466 136.183 149.576 135.851 149.665L134.833 149.565C134.542 149.799 134.205 149.969 133.844 150.065C133.482 150.16 133.105 150.178 132.737 150.119C132.446 150.305 132.119 150.428 131.778 150.479C131.436 150.529 131.088 150.507 130.756 150.412C130.161 150.752 129.464 150.866 128.792 150.733L128.82 150.794Z" fill="#6B322F"/>
<path d="M140.525 148.51L140.071 148.809C139.037 148.903 139.037 148.903 138.91 148.344L139.662 147.935L140.608 148.035C141.338 147.337 141.377 147.337 142.578 147.398C143.131 147.149 143.761 146.801 144.237 147.243C144.116 147.371 143.988 147.62 143.795 147.675C142.804 147.985 141.792 148.212 140.525 148.51Z" fill="#6B322F"/>
<path d="M118.95 150.856C119.326 150.679 119.663 150.469 120.056 150.303C120.344 150.172 120.658 150.104 120.975 150.104C121.291 150.104 121.605 150.172 121.893 150.303C122.396 150.569 122.38 150.917 121.799 151.221C121.619 151.297 121.434 151.358 121.246 151.404C120.446 151.418 119.657 151.229 118.95 150.856Z" fill="#6B322F"/>
<path d="M128.775 150.625C127.735 151.466 126.651 150.924 125.505 150.863C125.057 150.979 124.537 151.322 123.945 150.985C124.128 150.37 124.2 150.348 125.373 150.57L127.309 150.083C128.305 150 128.598 150.287 128.792 150.636L128.775 150.625Z" fill="#6B322F"/>
<path d="M117.351 150.464L118.562 150.375L119.165 150.856L118.474 151.321C117.229 151.155 117.229 151.155 117.351 150.464Z" fill="#6B322F"/>
<path d="M143.873 146.844L144.979 146.385L145.704 146.65L145.189 147.314C143.967 147.547 143.972 147.541 143.873 146.844Z" fill="#6B322F"/>
<path d="M123.747 150.441L124.007 150.928C123.039 151.288 123.033 151.299 122.347 150.889C122.441 150.552 122.795 150.364 123.747 150.441Z" fill="#6B322F"/>
<path d="M146.981 145.928L147.363 146.326C146.527 146.94 146.522 146.929 145.753 146.73C145.764 146.365 146.057 146.094 146.981 145.928Z" fill="#6B322F"/>
<path d="M68.4233 145.451C60.5277 145.451 52.8094 147.792 46.2445 152.179C39.6795 156.566 34.5627 162.8 31.5412 170.095C28.5197 177.39 27.7292 185.416 29.2695 193.16C30.8099 200.904 34.612 208.017 40.195 213.6C45.778 219.183 52.8913 222.985 60.6352 224.526C68.379 226.066 76.4058 225.276 83.7004 222.254C90.9949 219.233 97.2297 214.116 101.616 207.551C106.003 200.986 108.344 193.268 108.344 185.372C108.344 174.784 104.138 164.63 96.6516 157.144C89.165 149.657 79.011 145.451 68.4233 145.451ZM68.4233 202.223C65.0904 202.223 61.8324 201.235 59.0612 199.383C56.2901 197.532 54.1302 194.9 52.8548 191.821C51.5793 188.742 51.2456 185.353 51.8958 182.084C52.546 178.816 54.151 175.813 56.5077 173.456C58.8644 171.1 61.867 169.495 65.1358 168.845C68.4046 168.194 71.7929 168.528 74.872 169.803C77.9512 171.079 80.583 173.239 82.4346 176.01C84.2863 178.781 85.2746 182.039 85.2746 185.372C85.2746 187.585 84.8387 189.776 83.9919 191.821C83.145 193.865 81.9038 195.723 80.339 197.288C78.7742 198.852 76.9165 200.094 74.872 200.941C72.8275 201.787 70.6363 202.223 68.4233 202.223Z" fill="#7F8A44"/>
<path d="M175.855 145.451C167.959 145.451 160.241 147.792 153.676 152.179C147.111 156.566 141.994 162.8 138.973 170.095C135.951 177.39 135.161 185.416 136.701 193.16C138.242 200.904 142.044 208.017 147.627 213.6C153.21 219.183 160.323 222.985 168.067 224.526C175.811 226.066 183.837 225.276 191.132 222.254C198.427 219.233 204.661 214.116 209.048 207.551C213.435 200.986 215.776 193.268 215.776 185.372C215.774 174.785 211.568 164.632 204.082 157.145C196.595 149.659 186.442 145.453 175.855 145.451ZM175.855 202.223C172.522 202.224 169.263 201.237 166.491 199.386C163.719 197.535 161.559 194.904 160.282 191.825C159.006 188.745 158.672 185.357 159.321 182.088C159.971 178.819 161.575 175.816 163.932 173.458C166.288 171.101 169.291 169.496 172.56 168.845C175.829 168.194 179.217 168.528 182.297 169.803C185.376 171.078 188.008 173.238 189.86 176.009C191.712 178.781 192.701 182.039 192.701 185.372C192.701 189.84 190.926 194.126 187.767 197.286C184.608 200.446 180.323 202.222 175.855 202.223Z" fill="#7F8A44"/>
<path d="M144.188 202.551H92.2065V224.16H144.188V202.551Z" fill="#4EB3B2"/>
<path d="M110.352 206.887C110.424 206.676 110.607 206.632 110.95 206.671C111.059 206.735 111.174 206.79 111.293 206.837C111.45 206.74 111.627 206.679 111.81 206.658C111.994 206.637 112.18 206.656 112.355 206.715C112.536 206.607 112.747 206.559 112.957 206.577C113.167 206.595 113.367 206.678 113.528 206.815C113.909 206.494 113.915 206.494 114.634 206.621C115.248 206.466 115.514 206.483 115.741 206.687C115.78 206.721 115.81 206.764 115.828 206.812C115.847 206.86 115.853 206.912 115.847 206.963C115.84 207.014 115.821 207.062 115.791 207.104C115.761 207.146 115.72 207.18 115.674 207.202C115.501 207.288 115.31 207.331 115.117 207.325C114.924 207.319 114.735 207.265 114.568 207.169L114.048 207.23L113.561 207.041C113.407 207.153 113.226 207.222 113.037 207.244C112.848 207.265 112.657 207.237 112.482 207.163C112.328 207.258 112.151 207.309 111.97 207.309C111.79 207.309 111.612 207.258 111.459 207.163C111.269 207.243 111.058 207.259 110.858 207.208C110.658 207.157 110.481 207.042 110.352 206.881V206.887Z" fill="#6B322F"/>
<path d="M116.432 207.134L116.178 207.256C115.663 207.156 115.663 207.156 115.663 206.775L116.084 206.625L116.532 206.836C116.974 206.515 116.996 206.515 117.566 206.769C117.859 206.708 118.225 206.598 118.39 206.979C118.313 207.035 118.219 207.168 118.119 207.173C117.599 207.179 117.107 207.151 116.432 207.134Z" fill="#6B322F"/>
<path d="M110.829 202.665C110.712 202.838 110.616 203.023 110.541 203.218C110.498 203.347 110.426 203.464 110.33 203.56C110.234 203.656 110.117 203.728 109.988 203.771C109.728 203.86 109.49 203.771 109.501 203.39C109.518 203.278 109.551 203.17 109.6 203.069C109.769 202.898 109.973 202.766 110.198 202.681C110.404 202.625 110.62 202.62 110.829 202.665Z" fill="#6B322F"/>
<path d="M110.402 206.775C110.233 206.797 110.06 206.766 109.91 206.686C109.759 206.606 109.637 206.48 109.561 206.327C109.424 206.033 109.346 205.716 109.329 205.392C109.196 205.193 108.941 204.839 109.207 204.557C109.406 204.629 109.5 204.662 109.533 204.75C109.567 204.839 109.533 204.977 109.533 205.304C109.681 205.587 109.898 205.829 110.164 206.006C110.282 206.102 110.369 206.23 110.415 206.374C110.461 206.518 110.465 206.673 110.424 206.819L110.402 206.775Z" fill="#6B322F"/>
<path d="M111.631 202.765C111.44 202.785 111.254 202.834 111.077 202.909C110.959 202.83 110.833 202.764 110.701 202.71C110.767 202.56 110.851 202.419 110.95 202.289C111.31 202.25 111.503 202.289 111.564 202.344C111.625 202.4 111.653 202.521 111.631 202.765Z" fill="#6B322F"/>
<path d="M128.991 211.213C128.791 211.319 128.579 211.4 128.36 211.456C128.238 211.37 128.123 211.274 128.017 211.169C128.125 211.063 128.223 210.948 128.31 210.826C128.847 210.82 128.858 210.748 128.991 211.213Z" fill="#6B322F"/>
<path d="M118.269 206.654L118.878 206.582L119.182 206.892L118.839 207.213C118.214 207.119 118.214 207.119 118.269 206.654Z" fill="#6B322F"/>
<path d="M109.584 204.492C109.468 204.513 109.353 204.543 109.241 204.58C109.091 204.027 109.147 203.955 109.54 203.756C109.717 203.927 109.733 204.093 109.584 204.492Z" fill="#6B322F"/>
<path d="M124.471 207.217C124.438 207.007 124.554 206.858 124.908 206.78L125.29 206.863C125.441 206.754 125.617 206.684 125.802 206.658C125.987 206.632 126.176 206.651 126.352 206.714C126.532 206.607 126.742 206.559 126.951 206.576C127.161 206.594 127.359 206.677 127.519 206.813C127.636 206.688 127.785 206.596 127.951 206.548C128.197 206.539 128.441 206.594 128.659 206.708C129.367 206.741 129.649 207.024 129.682 207.328C129.715 207.632 129.511 207.687 129.295 207.671C128.902 207.671 128.742 207.427 128.465 207.217C128.316 207.198 128.166 207.198 128.017 207.217L127.53 207.024C127.373 207.14 127.188 207.212 126.993 207.234C126.799 207.255 126.603 207.225 126.424 207.145C126.273 207.236 126.099 207.284 125.923 207.284C125.747 207.284 125.574 207.236 125.422 207.145C125.272 207.229 125.104 207.277 124.933 207.285C124.761 207.292 124.589 207.26 124.432 207.19L124.471 207.217Z" fill="#6B322F"/>
<path d="M129.771 208.147L129.555 208.031C129.367 207.638 129.323 207.649 129.589 207.361C129.735 207.418 129.875 207.492 130.004 207.583C130.051 207.75 130.075 207.923 130.075 208.097C130.319 208.23 130.435 208.346 130.479 208.484C130.517 208.704 130.476 208.929 130.363 209.121C130.418 209.414 130.363 209.873 129.97 209.862C129.97 209.773 129.854 209.641 129.882 209.563C130.025 209.094 129.985 208.588 129.771 208.147Z" fill="#6B322F"/>
<path d="M119.547 206.897C119.73 206.77 119.901 206.632 120.101 206.516C120.244 206.435 120.407 206.396 120.571 206.403C120.735 206.41 120.894 206.462 121.03 206.554C121.279 206.742 121.262 206.975 120.969 207.168C120.882 207.218 120.789 207.256 120.693 207.285C120.281 207.269 119.884 207.134 119.547 206.897Z" fill="#6B322F"/>
<path d="M124.459 207.102C123.906 207.578 123.392 207.163 122.8 207.047C122.573 207.108 122.302 207.313 122.02 207.047C122.125 206.643 122.169 206.632 122.744 206.826L123.735 206.621C124.238 206.621 124.371 206.842 124.443 207.102H124.459Z" fill="#6B322F"/>
<path d="M118.767 206.654L119.376 206.582L119.68 206.892L119.337 207.213C118.684 207.119 118.684 207.119 118.767 206.654Z" fill="#6B322F"/>
<path d="M130.318 209.873C130.258 210.094 130.165 210.305 130.042 210.498C129.894 210.526 129.744 210.537 129.594 210.531C129.6 210.382 129.59 210.231 129.566 210.083C129.937 209.713 129.892 209.646 130.318 209.873Z" fill="#6B322F"/>
<path d="M121.942 206.698L122.059 207.036C121.566 207.235 121.566 207.235 121.234 206.947C121.295 206.721 121.483 206.61 121.942 206.698Z" fill="#6B322F"/>
<path d="M129.107 211.114C129.021 211.032 128.94 210.945 128.863 210.854C129.179 210.467 129.118 210.489 129.555 210.494C129.671 210.688 129.599 210.959 129.107 211.114Z" fill="#6B322F"/>
<path d="M123.58 219.483C123.58 219.694 123.514 219.849 123.243 219.921L122.949 219.838C122.59 220.087 122.59 220.087 122.131 219.992C121.815 220.153 121.489 220.225 121.229 219.887C120.93 220.208 120.93 220.208 120.393 220.081C119.918 220.241 119.713 220.225 119.541 220.015C119.51 219.978 119.487 219.935 119.472 219.889C119.458 219.843 119.453 219.795 119.457 219.747C119.462 219.699 119.476 219.652 119.499 219.61C119.522 219.567 119.553 219.53 119.591 219.5C119.89 219.262 120.178 219.401 120.449 219.539L120.847 219.472L121.223 219.661C121.328 219.55 121.467 219.479 121.617 219.457C121.768 219.435 121.921 219.464 122.053 219.539C122.302 219.412 122.562 219.306 122.822 219.539C122.93 219.455 123.061 219.406 123.197 219.398C123.333 219.39 123.469 219.424 123.586 219.495L123.58 219.483Z" fill="#6B322F"/>
<path d="M118.988 219.567L119.188 219.445C119.58 219.545 119.58 219.545 119.58 219.927L119.259 220.076L118.911 219.866C118.573 220.187 118.551 220.187 118.114 219.938C117.887 219.993 117.611 220.104 117.478 219.727C117.539 219.672 117.611 219.534 117.688 219.534C118.087 219.523 118.49 219.55 118.988 219.567Z" fill="#6B322F"/>
<path d="M127.376 219.804C127.242 219.94 127.1 220.067 126.95 220.185C126.845 220.266 126.715 220.306 126.583 220.299C126.451 220.292 126.326 220.238 126.231 220.147C126.185 220.107 126.15 220.058 126.127 220.002C126.104 219.947 126.095 219.887 126.1 219.827C126.105 219.767 126.124 219.709 126.155 219.658C126.186 219.607 126.229 219.564 126.281 219.533C126.347 219.489 126.417 219.452 126.491 219.422C126.822 219.438 127.136 219.574 127.376 219.804Z" fill="#6B322F"/>
<path d="M123.585 219.6C124.022 219.13 124.409 219.545 124.852 219.661C125.024 219.595 125.234 219.39 125.449 219.661C125.367 220.059 125.339 220.076 124.896 219.882L124.133 220.087C123.746 220.087 123.646 219.86 123.58 219.6H123.585Z" fill="#6B322F"/>
<path d="M128.001 220.047L127.53 220.125L127.292 219.809C127.392 219.693 127.481 219.588 127.558 219.488C128.039 219.588 128.039 219.588 128.001 220.047Z" fill="#6B322F"/>
<path d="M111.022 223.844C111.164 223.857 111.306 223.857 111.448 223.844C111.508 223.956 111.577 224.063 111.653 224.165C111.563 224.275 111.46 224.375 111.348 224.463C110.817 224.303 110.845 224.264 111.022 223.844Z" fill="#6B322F"/>
<path d="M117.572 220.047L117.102 220.125C117.019 220.008 116.952 219.925 116.864 219.809L117.129 219.488C117.611 219.588 117.611 219.588 117.572 220.047Z" fill="#6B322F"/>
<path d="M125.528 220.009L125.439 219.672C125.821 219.467 125.821 219.467 126.076 219.755C126.026 219.982 125.882 220.092 125.528 220.009Z" fill="#6B322F"/>
<path d="M112.793 219.483C112.793 219.694 112.726 219.848 112.455 219.92L112.162 219.837C111.808 220.092 111.786 220.07 111.365 220.009C111.089 220.214 110.906 220.357 110.524 220.191C110.452 220.623 110.469 220.568 110.054 220.833C109.932 221.265 109.905 221.386 109.65 221.48C109.607 221.502 109.559 221.514 109.511 221.516C109.462 221.518 109.414 221.509 109.369 221.491C109.324 221.472 109.283 221.445 109.25 221.41C109.216 221.375 109.191 221.333 109.174 221.287C109.138 221.11 109.168 220.925 109.26 220.77C109.352 220.614 109.499 220.499 109.672 220.446C109.753 220.316 109.846 220.194 109.949 220.081C110.097 220.037 110.249 220.009 110.403 219.998C110.457 219.835 110.573 219.699 110.726 219.621C110.879 219.542 111.057 219.527 111.221 219.577C111.347 219.485 111.493 219.427 111.647 219.406C111.718 219.398 111.79 219.406 111.857 219.43C111.924 219.454 111.985 219.493 112.035 219.544C112.142 219.46 112.273 219.411 112.409 219.403C112.546 219.396 112.681 219.429 112.798 219.5L112.793 219.483Z" fill="#6B322F"/>
<path d="M109.136 221.978L109.025 221.745C109.186 221.297 109.225 221.319 109.579 221.425C109.595 221.534 109.623 221.642 109.662 221.745C109.572 221.838 109.496 221.942 109.435 222.055C109.783 222.371 109.761 222.304 109.667 222.791C109.811 222.974 110.032 223.09 109.828 223.438C109.75 223.438 109.59 223.438 109.534 223.372C109.246 222.966 109.106 222.474 109.136 221.978Z" fill="#6B322F"/>
<path d="M116.588 219.804C116.454 219.94 116.312 220.067 116.162 220.185C116.057 220.266 115.927 220.306 115.795 220.299C115.663 220.292 115.538 220.238 115.443 220.147C115.397 220.107 115.362 220.058 115.339 220.002C115.316 219.947 115.307 219.887 115.312 219.827C115.317 219.767 115.336 219.709 115.367 219.658C115.398 219.607 115.441 219.564 115.492 219.533C115.559 219.489 115.629 219.452 115.703 219.422C116.034 219.438 116.348 219.574 116.588 219.804Z" fill="#6B322F"/>
<path d="M112.798 219.6C113.235 219.13 113.622 219.545 114.064 219.661C114.236 219.595 114.446 219.39 114.662 219.661C114.579 220.059 114.551 220.076 114.109 219.882L113.345 220.087C112.958 220.087 112.858 219.86 112.792 219.6H112.798Z" fill="#6B322F"/>
<path d="M117.213 220.047L116.743 220.125L116.505 219.809L116.77 219.488C117.252 219.588 117.252 219.588 117.213 220.047Z" fill="#6B322F"/>
<path d="M110.02 223.16C110.125 223.253 110.24 223.335 110.363 223.404C110.352 223.532 110.352 223.662 110.363 223.791C110.225 223.829 110.085 223.854 109.943 223.868C109.594 223.42 109.644 223.404 110.02 223.16Z" fill="#6B322F"/>
<path d="M114.739 220.009L114.651 219.672C115.033 219.467 115.033 219.467 115.287 219.755C115.237 219.982 115.093 220.092 114.739 220.009Z" fill="#6B322F"/>
<path d="M110.912 223.854C110.912 223.981 110.912 224.097 110.912 224.202C110.458 224.258 110.419 224.203 110.358 223.837C110.497 223.677 110.641 223.66 110.912 223.854Z" fill="#6B322F"/>
<path d="M119.143 210.82C119.198 211.03 119.016 211.179 118.474 211.251L117.882 211.174C117.36 211.405 116.777 211.457 116.222 211.323C115.93 211.43 115.62 211.477 115.31 211.46C115 211.442 114.696 211.362 114.418 211.223C113.821 211.544 113.821 211.544 112.759 211.412C112.406 211.484 112.046 211.519 111.685 211.517C111.497 211.51 111.311 211.477 111.132 211.417C110.872 211.334 110.784 211.107 111.132 210.864C111.286 210.776 111.455 210.72 111.63 210.698C111.775 210.681 111.922 210.681 112.067 210.698C112.349 210.727 112.629 210.779 112.903 210.853L113.699 210.786L114.452 210.98C114.973 210.743 115.561 210.7 116.111 210.858C116.609 210.67 117.157 210.67 117.655 210.858C118.146 210.681 118.681 210.665 119.182 210.814L119.143 210.82Z" fill="#6B322F"/>
<path d="M109.915 211.585L109.998 211.457C110.06 211.373 110.127 211.292 110.197 211.214C110.431 211.075 110.701 211.01 110.972 211.026C111.094 211.059 111.11 211.153 111.149 211.341C110.823 211.624 110.428 211.815 110.004 211.894C109.893 212.248 109.899 212.42 109.827 212.586C109.755 212.752 109.628 212.901 109.484 213.316C109.534 213.77 109.81 214.152 109.65 214.572C109.539 214.506 109.334 214.428 109.263 214.257C109.074 213.8 109.036 213.294 109.154 212.814C109.271 212.334 109.538 211.903 109.915 211.585Z" fill="#6B322F"/>
<path d="M126.739 211.163C126.452 211.29 126.186 211.428 125.876 211.539C125.412 211.705 124.903 211.691 124.449 211.5C124.067 211.318 124.095 211.085 124.543 210.892C124.682 210.842 124.824 210.803 124.969 210.775C125.579 210.783 126.181 210.915 126.739 211.163Z" fill="#6B322F"/>
<path d="M119.16 210.958C120.028 210.482 120.82 210.897 121.688 211.013C122.074 210.86 122.503 210.86 122.889 211.013C122.723 211.417 122.662 211.428 121.782 211.234L120.261 211.439C119.486 211.439 119.282 211.212 119.154 210.958H119.16Z" fill="#6B322F"/>
<path d="M127.984 211.406L127.044 211.478L126.573 211.169L127.126 210.848C128.061 210.942 128.061 210.942 127.984 211.406Z" fill="#6B322F"/>
<path d="M129.461 219.591C129.191 219.811 128.878 219.973 128.543 220.067C128.357 220.003 128.181 219.916 128.017 219.807C128.183 219.705 128.334 219.58 128.465 219.437C128.875 219.387 129.063 219.265 129.184 219.276C129.306 219.287 129.367 219.376 129.461 219.591Z" fill="#6B322F"/>
<path d="M109.849 214.26C110.007 214.484 110.211 214.673 110.447 214.813C110.498 214.987 110.575 215.153 110.674 215.305C110.455 215.336 110.234 215.336 110.015 215.305C109.617 214.918 109.517 214.653 109.512 214.52C109.506 214.387 109.634 214.337 109.849 214.26Z" fill="#6B322F"/>
<path d="M123.038 211.372L122.861 211.035C123.625 210.83 123.625 210.83 124.139 211.123C124.034 211.339 123.746 211.444 123.038 211.372Z" fill="#6B322F"/>
<path d="M118.8 215.865C118.745 215.649 118.933 215.5 119.47 215.428L120.062 215.506C120.583 215.275 121.167 215.222 121.721 215.356C122.013 215.249 122.324 215.202 122.634 215.221C122.944 215.239 123.248 215.321 123.525 215.461C124.122 215.135 124.128 215.135 125.185 215.268C126.131 215.107 126.54 215.124 126.883 215.334C127.137 215.483 127.104 215.716 126.783 215.849C126.225 216.025 125.624 216.011 125.074 215.81L124.283 215.876L123.53 215.688C123.007 215.917 122.422 215.96 121.871 215.81C121.373 215.995 120.825 215.995 120.327 215.81C119.836 215.988 119.301 216.003 118.8 215.854V215.865Z" fill="#6B322F"/>
<path d="M127.984 215.798L127.591 215.92C126.8 215.82 126.8 215.82 126.8 215.438L127.442 215.289C127.685 215.367 127.907 215.427 128.134 215.51C128.383 215.384 128.67 215.352 128.941 215.422C129.243 215.552 129.493 215.78 129.649 216.069C129.857 216.213 130.029 216.402 130.153 216.622C130.209 216.719 130.234 216.831 130.225 216.943C130.216 217.054 130.174 217.161 130.103 217.247C130.026 217.148 129.854 217.07 129.799 216.949C129.635 216.606 129.378 216.316 129.057 216.113C128.736 215.909 128.364 215.8 127.984 215.798Z" fill="#6B322F"/>
<path d="M111.205 215.502C111.514 215.43 111.758 215.269 112.068 215.164C112.532 215.001 113.04 215.014 113.495 215.203C113.877 215.385 113.849 215.623 113.401 215.817C113.261 215.862 113.119 215.899 112.975 215.928C112.661 215.913 112.349 215.876 112.04 215.817C111.916 215.79 111.794 215.755 111.675 215.712C111.511 215.659 111.353 215.588 111.205 215.502Z" fill="#6B322F"/>
<path d="M118.767 215.741C117.899 216.217 117.108 215.802 116.245 215.686C115.858 215.844 115.425 215.844 115.039 215.686C115.205 215.282 115.265 215.271 116.145 215.464L117.672 215.26C118.446 215.26 118.646 215.487 118.778 215.741H118.767Z" fill="#6B322F"/>
<path d="M110.253 214.766C110.475 214.937 110.732 215.058 111.006 215.12C111.108 215.269 111.231 215.403 111.371 215.518C111.171 215.609 110.958 215.669 110.74 215.695C110.242 215.457 110.06 215.236 110.015 215.109C109.971 214.981 110.071 214.915 110.253 214.766Z" fill="#6B322F"/>
<path d="M130.385 216.955C130.517 217.281 130.576 217.633 130.556 217.984C130.434 218.141 130.291 218.281 130.13 218.399C130.095 218.206 130.03 218.019 129.937 217.846C130.008 217.442 129.937 217.232 130.003 217.116C130.069 216.999 130.125 216.988 130.385 216.955Z" fill="#6B322F"/>
<path d="M114.895 215.339L115.072 215.676C114.314 215.881 114.314 215.881 113.799 215.593C113.91 215.366 114.192 215.245 114.895 215.339Z" fill="#6B322F"/>
<path d="M129.617 219.423C129.498 219.378 129.381 219.326 129.268 219.268C129.489 218.975 129.534 218.809 129.628 218.715C129.759 218.591 129.902 218.48 130.054 218.383C130.106 218.433 130.143 218.497 130.159 218.568C130.175 218.639 130.169 218.713 130.142 218.781C130.042 219.047 129.857 219.272 129.617 219.423Z" fill="#6B322F"/>
<path d="M92.7322 220.043C92.6043 220.078 92.4681 220.066 92.3482 220.01C92.2284 219.953 92.133 219.855 92.0794 219.733L92.1955 219.457C91.8304 219.125 91.8304 219.125 91.9743 218.699C91.7309 218.406 91.6202 218.107 92.1237 217.864C91.6423 217.587 91.6423 217.581 91.836 217.089C91.5981 216.646 91.6202 216.458 91.9355 216.298C92.0569 216.238 92.1918 216.212 92.3267 216.22C92.4616 216.229 92.5919 216.273 92.7045 216.348C93.0641 216.619 92.8539 216.901 92.6492 217.139L92.7488 217.504L92.4667 217.858C92.5398 217.885 92.6051 217.93 92.6568 217.989C92.7085 218.047 92.745 218.118 92.7631 218.194C92.7811 218.27 92.7801 218.349 92.7603 218.425C92.7404 218.5 92.7023 218.57 92.6492 218.627C92.8428 218.859 92.9977 219.097 92.6492 219.341C92.876 219.573 92.9645 219.805 92.7156 220.049L92.7322 220.043Z" fill="#6B322F"/>
<path d="M92.6051 215.798L92.7877 215.981C92.6383 216.346 92.6383 216.346 92.063 216.346L91.8417 216.047L92.1625 215.726C91.6812 215.411 91.6757 215.394 92.0519 214.985C91.9689 214.775 91.803 214.52 92.3673 214.398C92.4502 214.454 92.6604 214.52 92.6604 214.592C92.6715 214.946 92.6328 215.317 92.6051 215.798Z" fill="#6B322F"/>
<path d="M92.2449 223.543C92.0568 223.41 91.8466 223.289 91.6917 223.145C91.6354 223.107 91.5903 223.054 91.561 222.993C91.5316 222.932 91.5191 222.864 91.5248 222.797C91.5304 222.729 91.554 222.664 91.593 222.609C91.6321 222.553 91.6852 222.509 91.747 222.481C91.8862 222.393 92.0489 222.35 92.2132 222.358C92.3774 222.366 92.5353 222.424 92.6654 222.525C92.7299 222.583 92.7875 222.648 92.8369 222.719C92.7262 223.15 92.6764 223.217 92.2449 223.543Z" fill="#6B322F"/>
<path d="M92.5551 220.049C93.2688 220.452 92.6436 220.812 92.4721 221.221C92.5662 221.382 92.8705 221.575 92.4721 221.775C91.8691 221.697 91.8525 221.669 92.1402 221.255L91.8359 220.546C91.8359 220.187 92.1734 220.093 92.5607 220.043L92.5551 220.049Z" fill="#6B322F"/>
<path d="M91.8802 224.143L91.7695 223.706L92.2398 223.49L92.7211 223.734C92.5772 224.182 92.5772 224.182 91.8802 224.143Z" fill="#6B322F"/>
<path d="M91.8802 203.204L91.7695 202.767L92.2398 202.551L92.7211 202.794C92.5772 203.242 92.5772 203.242 91.8802 203.204Z" fill="#6B322F"/>
<path d="M91.8802 214.471L91.7695 214.034L92.2398 213.812L92.7211 214.061C92.5772 214.504 92.5772 214.504 91.8802 214.471Z" fill="#6B322F"/>
<path d="M91.9467 221.851L92.4502 221.768C92.7544 222.116 92.7545 222.116 92.3229 222.36C91.9799 222.31 91.8195 222.177 91.9467 221.851Z" fill="#6B322F"/>
<path d="M92.7322 210.033C92.6043 210.069 92.4681 210.057 92.3482 210C92.2284 209.943 92.133 209.845 92.0794 209.724L92.1955 209.447C91.8304 209.115 91.8304 209.115 91.9743 208.689C91.7309 208.396 91.6202 208.097 92.1237 207.854C91.6423 207.577 91.6423 207.572 91.836 207.079C91.5981 206.637 91.6202 206.449 91.9355 206.288C92.0569 206.229 92.1918 206.202 92.3267 206.211C92.4616 206.219 92.5919 206.263 92.7045 206.338C93.0641 206.609 92.8539 206.891 92.6492 207.129L92.7488 207.494L92.4667 207.848C92.5398 207.876 92.6051 207.921 92.6568 207.979C92.7085 208.038 92.745 208.108 92.7631 208.184C92.7811 208.26 92.7801 208.339 92.7603 208.415C92.7404 208.49 92.7023 208.56 92.6492 208.617C92.8428 208.85 92.9977 209.087 92.6492 209.331C92.876 209.563 92.9645 209.796 92.7156 210.039L92.7322 210.033Z" fill="#6B322F"/>
<path d="M92.6051 205.775L92.7877 205.957C92.6383 206.322 92.6383 206.322 92.063 206.322L91.8417 206.024L92.1625 205.703C91.6812 205.387 91.6757 205.371 92.0519 204.961C91.9689 204.751 91.803 204.497 92.3673 204.375C92.4502 204.43 92.6604 204.497 92.6604 204.569C92.6715 204.939 92.6328 205.288 92.6051 205.775Z" fill="#6B322F"/>
<path d="M92.2449 213.586C92.0568 213.453 91.8466 213.332 91.6917 213.188C91.6354 213.15 91.5903 213.097 91.561 213.036C91.5316 212.975 91.5191 212.907 91.5248 212.84C91.5304 212.772 91.554 212.707 91.593 212.651C91.6321 212.596 91.6852 212.552 91.747 212.524C91.8862 212.436 92.0489 212.393 92.2132 212.401C92.3774 212.409 92.5353 212.467 92.6654 212.568C92.7299 212.626 92.7875 212.691 92.8369 212.762C92.7262 213.143 92.6764 213.21 92.2449 213.586Z" fill="#6B322F"/>
<path d="M92.5551 210.039C93.2688 210.443 92.6436 210.802 92.4721 211.212C92.5662 211.372 92.8705 211.566 92.4721 211.765C91.8691 211.687 91.8525 211.66 92.1402 211.245L91.8359 210.537C91.8359 210.177 92.1734 210.083 92.5607 210.033L92.5551 210.039Z" fill="#6B322F"/>
<path d="M91.8802 214.139L91.7695 213.702L92.2398 213.486L92.7211 213.73C92.5772 214.172 92.5772 214.172 91.8802 214.139Z" fill="#6B322F"/>
<path d="M91.8802 204.463L91.7695 204.026L92.2398 203.805L92.7211 204.054C92.5772 204.496 92.5772 204.496 91.8802 204.463Z" fill="#6B322F"/>
<path d="M91.9467 211.845L92.4502 211.762C92.7544 212.11 92.7545 212.11 92.3229 212.354C91.9799 212.304 91.8195 212.171 91.9467 211.845Z" fill="#6B322F"/>
<path d="M91.9467 203.296L92.4502 203.213C92.7544 203.567 92.7545 203.567 92.3229 203.805C91.9799 203.761 91.8195 203.628 91.9467 203.296Z" fill="#6B322F"/>
<path d="M89.3354 220.043C89.2075 220.078 89.0712 220.066 88.9514 220.01C88.8316 219.953 88.7362 219.855 88.6826 219.733L88.8043 219.457C88.4336 219.125 88.4336 219.125 88.5774 218.699C88.334 218.406 88.2234 218.107 88.7268 217.863C88.2455 217.587 88.2455 217.581 88.4391 217.089C88.2012 216.646 88.2289 216.458 88.5387 216.298C88.6611 216.238 88.7968 216.212 88.9326 216.22C89.0683 216.229 89.1995 216.273 89.3132 216.348C89.6673 216.619 89.4626 216.901 89.2579 217.139L89.3575 217.504L89.0698 217.858C89.143 217.885 89.2083 217.93 89.26 217.989C89.3117 218.047 89.3482 218.118 89.3662 218.194C89.3843 218.27 89.3833 218.349 89.3635 218.425C89.3436 218.5 89.3055 218.57 89.2524 218.627C89.446 218.859 89.6009 219.097 89.2524 219.341C89.4847 219.573 89.5733 219.805 89.3188 220.049L89.3354 220.043Z" fill="#6B322F"/>
<path d="M89.2078 215.798L89.3904 215.981C89.241 216.346 89.241 216.346 88.6712 216.346L88.4443 216.047L88.7652 215.726C88.2839 215.411 88.2784 215.394 88.6601 214.985C88.5716 214.775 88.4056 214.52 88.9755 214.398C89.0584 214.454 89.2631 214.52 89.2631 214.592C89.2742 214.946 89.2355 215.317 89.2078 215.798Z" fill="#6B322F"/>
<path d="M88.8484 223.545C88.6603 223.412 88.4501 223.29 88.2952 223.146C88.2389 223.108 88.1938 223.056 88.1645 222.995C88.1351 222.934 88.1226 222.866 88.1283 222.798C88.1339 222.73 88.1574 222.666 88.1965 222.61C88.2356 222.555 88.2888 222.51 88.3505 222.482C88.4908 222.395 88.6543 222.352 88.8194 222.36C88.9844 222.368 89.1431 222.426 89.2744 222.527C89.3375 222.584 89.3932 222.649 89.4404 222.72C89.3297 223.152 89.2855 223.218 88.8484 223.545Z" fill="#6B322F"/>
<path d="M89.1583 220.049C89.872 220.452 89.2469 220.812 89.0754 221.221C89.1694 221.382 89.4792 221.575 89.1086 221.775C88.5055 221.697 88.4834 221.669 88.7766 221.255L88.4668 220.546C88.4668 220.187 88.8043 220.093 89.1915 220.043L89.1583 220.049Z" fill="#6B322F"/>
<path d="M88.4891 224.143L88.3784 223.706L88.8431 223.49L89.3244 223.734C89.1806 224.182 89.1806 224.182 88.4891 224.143Z" fill="#6B322F"/>
<path d="M88.4891 203.204L88.3784 202.767L88.8431 202.551L89.3244 202.794C89.1806 203.242 89.1806 203.242 88.4891 203.204Z" fill="#6B322F"/>
<path d="M88.4891 214.471L88.3784 214.034L88.8431 213.812L89.3244 214.061C89.1806 214.504 89.1806 214.504 88.4891 214.471Z" fill="#6B322F"/>
<path d="M88.5495 221.851L89.0585 221.768C89.3628 222.116 89.3628 222.116 88.9312 222.36C88.5882 222.31 88.4223 222.177 88.5495 221.851Z" fill="#6B322F"/>
<path d="M89.3354 210.033C89.2075 210.069 89.0712 210.057 88.9514 210C88.8316 209.943 88.7362 209.845 88.6826 209.724L88.8043 209.447C88.4336 209.115 88.4336 209.115 88.5774 208.689C88.334 208.396 88.2234 208.097 88.7268 207.854C88.2455 207.577 88.2455 207.572 88.4391 207.079C88.2012 206.637 88.2289 206.448 88.5387 206.288C88.6611 206.229 88.7968 206.202 88.9326 206.211C89.0683 206.219 89.1995 206.263 89.3132 206.338C89.6673 206.609 89.4626 206.891 89.2579 207.129L89.3575 207.494L89.0698 207.848C89.143 207.875 89.2083 207.92 89.26 207.979C89.3117 208.038 89.3482 208.108 89.3662 208.184C89.3843 208.26 89.3833 208.339 89.3635 208.415C89.3436 208.49 89.3055 208.56 89.2524 208.617C89.446 208.849 89.6009 209.087 89.2524 209.331C89.4847 209.563 89.5733 209.796 89.3188 210.039L89.3354 210.033Z" fill="#6B322F"/>
<path d="M89.2078 205.775L89.3904 205.957C89.241 206.322 89.241 206.322 88.6712 206.322L88.4443 206.024L88.7652 205.703C88.2839 205.387 88.2784 205.371 88.6601 204.961C88.5716 204.751 88.4056 204.497 88.9755 204.375C89.0584 204.43 89.2631 204.497 89.2631 204.569C89.2742 204.939 89.2355 205.288 89.2078 205.775Z" fill="#6B322F"/>
<path d="M88.8484 213.586C88.6603 213.453 88.4501 213.331 88.2952 213.187C88.2389 213.149 88.1938 213.097 88.1645 213.036C88.1351 212.975 88.1226 212.907 88.1283 212.839C88.1339 212.771 88.1574 212.707 88.1965 212.651C88.2356 212.596 88.2888 212.551 88.3505 212.523C88.4908 212.436 88.6543 212.393 88.8194 212.401C88.9844 212.409 89.1431 212.467 89.2744 212.568C89.3375 212.625 89.3932 212.69 89.4404 212.761C89.3297 213.143 89.2855 213.209 88.8484 213.586Z" fill="#6B322F"/>
<path d="M89.1583 210.039C89.872 210.443 89.2469 210.802 89.0754 211.212C89.1694 211.372 89.4792 211.566 89.1086 211.765C88.5055 211.687 88.4834 211.66 88.7766 211.245L88.4668 210.537C88.4668 210.177 88.8043 210.083 89.1915 210.033L89.1583 210.039Z" fill="#6B322F"/>
<path d="M88.4891 214.139L88.3784 213.702L88.8431 213.486L89.3244 213.73C89.1806 214.172 89.1806 214.172 88.4891 214.139Z" fill="#6B322F"/>
<path d="M88.4891 204.463L88.3784 204.026L88.8431 203.805L89.3244 204.054C89.1806 204.496 89.1806 204.496 88.4891 204.463Z" fill="#6B322F"/>
<path d="M88.5495 211.845L89.0585 211.762C89.3628 212.11 89.3628 212.11 88.9312 212.354C88.5882 212.304 88.4223 212.171 88.5495 211.845Z" fill="#6B322F"/>
<path d="M88.5495 203.296L89.0585 203.213C89.3628 203.567 89.3628 203.567 88.9312 203.805C88.5882 203.761 88.4223 203.628 88.5495 203.296Z" fill="#6B322F"/>
<path d="M148.088 220.043C147.96 220.079 147.824 220.067 147.704 220.01C147.584 219.953 147.489 219.855 147.435 219.734L147.557 219.457C147.186 219.125 147.186 219.125 147.33 218.699C147.092 218.406 146.982 218.107 147.485 217.864C147.004 217.587 146.998 217.581 147.197 217.089C146.959 216.647 146.982 216.458 147.297 216.298C147.421 216.235 147.561 216.207 147.7 216.217C147.839 216.226 147.973 216.274 148.088 216.353C148.442 216.624 148.237 216.907 148.033 217.144L148.132 217.51L147.845 217.864C147.919 217.89 147.985 217.934 148.038 217.993C148.09 218.051 148.127 218.122 148.145 218.198C148.164 218.275 148.162 218.355 148.142 218.431C148.121 218.506 148.082 218.576 148.027 218.633C148.226 218.865 148.381 219.103 148.027 219.346C148.259 219.579 148.348 219.811 148.094 220.054L148.088 220.043Z" fill="#6B322F"/>
<path d="M147.978 215.798L148.16 215.981C148.011 216.346 148.011 216.346 147.441 216.346L147.214 216.047C147.33 215.936 147.43 215.831 147.535 215.726C147.054 215.411 147.054 215.394 147.43 214.985C147.341 214.775 147.175 214.52 147.745 214.398C147.828 214.454 148.033 214.52 148.038 214.592C148.049 214.946 148.005 215.317 147.978 215.798Z" fill="#6B322F"/>
<path d="M147.624 223.543C147.433 223.42 147.248 223.287 147.071 223.145C147.015 223.106 146.97 223.054 146.941 222.992C146.912 222.931 146.9 222.863 146.906 222.795C146.913 222.727 146.937 222.662 146.976 222.607C147.016 222.552 147.07 222.508 147.132 222.481C147.271 222.393 147.434 222.35 147.598 222.358C147.762 222.366 147.92 222.424 148.05 222.525C148.115 222.583 148.172 222.648 148.222 222.719C148.089 223.15 148.056 223.217 147.624 223.543Z" fill="#6B322F"/>
<path d="M147.933 220.049C148.641 220.452 148.021 220.812 147.844 221.221C147.938 221.382 148.248 221.575 147.878 221.775C147.275 221.697 147.258 221.669 147.546 221.255C147.441 221.017 147.335 220.768 147.236 220.546C147.236 220.187 147.579 220.093 147.961 220.043L147.933 220.049Z" fill="#6B322F"/>
<path d="M147.259 224.143L147.148 223.706L147.618 223.49L148.094 223.734C147.95 224.182 147.95 224.182 147.259 224.143Z" fill="#6B322F"/>
<path d="M147.259 203.204L147.148 202.767L147.618 202.551L148.094 202.794C147.95 203.242 147.95 203.242 147.259 203.204Z" fill="#6B322F"/>
<path d="M147.259 214.471C147.22 214.316 147.181 214.178 147.148 214.034L147.618 213.812L148.094 214.061C147.95 214.504 147.95 214.504 147.259 214.471Z" fill="#6B322F"/>
<path d="M147.325 221.851L147.829 221.768C148.133 222.116 148.133 222.116 147.701 222.36C147.358 222.31 147.198 222.177 147.325 221.851Z" fill="#6B322F"/>
<path d="M148.088 210.033C147.96 210.069 147.824 210.057 147.704 210C147.584 209.943 147.489 209.845 147.435 209.724L147.557 209.447C147.186 209.115 147.186 209.115 147.33 208.689C147.092 208.396 146.982 208.097 147.485 207.854C147.004 207.577 146.998 207.572 147.197 207.079C146.959 206.637 146.982 206.449 147.297 206.288C147.418 206.229 147.553 206.202 147.688 206.211C147.823 206.219 147.953 206.263 148.066 206.338C148.42 206.609 148.215 206.891 148.011 207.129L148.11 207.494L147.822 207.848C147.897 207.874 147.963 207.919 148.015 207.977C148.068 208.036 148.105 208.106 148.123 208.183C148.141 208.259 148.14 208.339 148.119 208.415C148.099 208.491 148.059 208.561 148.005 208.617C148.204 208.85 148.359 209.087 148.005 209.331C148.237 209.563 148.326 209.796 148.071 210.039L148.088 210.033Z" fill="#6B322F"/>
<path d="M147.978 205.775C147.978 205.775 148.077 205.869 148.16 205.957C148.011 206.322 148.011 206.322 147.441 206.322L147.214 206.024L147.535 205.703C147.054 205.387 147.054 205.371 147.43 204.961C147.341 204.751 147.175 204.497 147.745 204.375C147.828 204.43 148.033 204.497 148.038 204.569C148.049 204.939 148.005 205.288 147.978 205.775Z" fill="#6B322F"/>
<path d="M147.624 213.586C147.433 213.463 147.248 213.33 147.071 213.188C147.015 213.149 146.97 213.097 146.941 213.035C146.912 212.974 146.9 212.906 146.906 212.838C146.913 212.77 146.937 212.705 146.976 212.65C147.016 212.595 147.07 212.551 147.132 212.524C147.271 212.436 147.434 212.393 147.598 212.401C147.762 212.409 147.92 212.467 148.05 212.568C148.115 212.626 148.172 212.691 148.222 212.762C148.089 213.143 148.056 213.21 147.624 213.586Z" fill="#6B322F"/>
<path d="M147.933 210.039C148.641 210.443 148.021 210.802 147.844 211.212C147.938 211.372 148.248 211.566 147.878 211.765C147.275 211.687 147.258 211.66 147.546 211.245C147.441 211.007 147.335 210.758 147.236 210.537C147.236 210.177 147.579 210.083 147.961 210.033L147.933 210.039Z" fill="#6B322F"/>
<path d="M147.259 214.139L147.148 213.702L147.618 213.486L148.094 213.73C147.95 214.172 147.95 214.172 147.259 214.139Z" fill="#6B322F"/>
<path d="M147.259 204.463C147.22 204.308 147.181 204.17 147.148 204.026L147.618 203.805L148.094 204.054C147.95 204.496 147.95 204.496 147.259 204.463Z" fill="#6B322F"/>
<path d="M147.325 211.845L147.829 211.762C148.133 212.11 148.133 212.11 147.701 212.354C147.358 212.304 147.198 212.171 147.325 211.845Z" fill="#6B322F"/>
<path d="M147.325 203.296L147.829 203.213C148.133 203.567 148.133 203.567 147.701 203.805C147.358 203.761 147.198 203.628 147.325 203.296Z" fill="#6B322F"/>
<path d="M144.713 220.043C144.585 220.078 144.449 220.066 144.329 220.01C144.209 219.953 144.114 219.855 144.06 219.733L144.177 219.457C143.811 219.125 143.811 219.125 143.955 218.699C143.712 218.406 143.601 218.107 144.105 217.864C143.623 217.587 143.623 217.581 143.817 217.089C143.579 216.646 143.601 216.458 143.917 216.298C144.038 216.238 144.173 216.212 144.308 216.22C144.443 216.229 144.573 216.273 144.685 216.348C145.045 216.619 144.835 216.901 144.63 217.139L144.73 217.504L144.448 217.858C144.521 217.885 144.586 217.93 144.638 217.989C144.689 218.047 144.726 218.118 144.744 218.194C144.762 218.27 144.761 218.349 144.741 218.425C144.721 218.5 144.683 218.57 144.63 218.627C144.824 218.859 144.979 219.097 144.63 219.341C144.857 219.573 144.945 219.805 144.697 220.049L144.713 220.043Z" fill="#6B322F"/>
<path d="M144.586 215.798L144.769 215.981C144.619 216.346 144.619 216.346 144.044 216.346L143.823 216.047L144.138 215.726C143.662 215.411 143.657 215.394 144.033 214.985C143.95 214.775 143.784 214.52 144.348 214.398C144.431 214.454 144.641 214.52 144.641 214.592C144.653 214.946 144.614 215.317 144.586 215.798Z" fill="#6B322F"/>
<path d="M144.215 223.543C144.022 223.41 143.817 223.289 143.662 223.145C143.606 223.106 143.561 223.054 143.532 222.992C143.503 222.931 143.491 222.863 143.498 222.795C143.504 222.727 143.528 222.662 143.568 222.607C143.607 222.552 143.661 222.508 143.723 222.481C143.862 222.393 144.025 222.35 144.189 222.358C144.353 222.366 144.511 222.424 144.641 222.525C144.706 222.583 144.763 222.648 144.813 222.719C144.708 223.15 144.658 223.217 144.215 223.543Z" fill="#6B322F"/>
<path d="M144.536 220.049C145.244 220.452 144.625 220.812 144.453 221.221C144.542 221.382 144.852 221.575 144.481 221.775C143.878 221.697 143.861 221.669 144.149 221.255C144.049 221.017 143.939 220.768 143.845 220.546C143.845 220.187 144.182 220.093 144.569 220.043L144.536 220.049Z" fill="#6B322F"/>
<path d="M143.861 224.143L143.75 223.706L144.221 223.49L144.702 223.734C144.558 224.182 144.558 224.182 143.861 224.143Z" fill="#6B322F"/>
<path d="M143.861 203.204L143.75 202.767L144.221 202.551L144.702 202.794C144.558 203.242 144.558 203.242 143.861 203.204Z" fill="#6B322F"/>
<path d="M143.861 214.471C143.822 214.316 143.789 214.178 143.75 214.034L144.221 213.812L144.702 214.061C144.558 214.504 144.558 214.504 143.861 214.471Z" fill="#6B322F"/>
<path d="M143.928 221.851L144.431 221.768C144.735 222.116 144.735 222.116 144.304 222.36C143.961 222.31 143.8 222.177 143.928 221.851Z" fill="#6B322F"/>
<path d="M144.713 210.033C144.585 210.069 144.449 210.057 144.329 210C144.209 209.943 144.114 209.845 144.06 209.724L144.177 209.447C143.811 209.115 143.811 209.115 143.955 208.689C143.712 208.396 143.601 208.097 144.105 207.854C143.623 207.577 143.623 207.572 143.817 207.079C143.579 206.637 143.601 206.449 143.917 206.288C144.038 206.229 144.173 206.202 144.308 206.211C144.443 206.219 144.573 206.263 144.685 206.338C145.045 206.609 144.835 206.891 144.63 207.129L144.73 207.494L144.448 207.848C144.521 207.876 144.586 207.921 144.638 207.979C144.689 208.038 144.726 208.108 144.744 208.184C144.762 208.26 144.761 208.339 144.741 208.415C144.721 208.49 144.683 208.56 144.63 208.617C144.824 208.85 144.979 209.087 144.63 209.331C144.857 209.563 144.945 209.796 144.697 210.039L144.713 210.033Z" fill="#6B322F"/>
<path d="M144.586 205.775L144.769 205.957C144.619 206.322 144.619 206.322 144.044 206.322L143.823 206.024L144.138 205.703C143.662 205.387 143.657 205.371 144.033 204.961C143.95 204.751 143.784 204.497 144.348 204.375C144.431 204.43 144.641 204.497 144.641 204.569C144.653 204.939 144.614 205.288 144.586 205.775Z" fill="#6B322F"/>
<path d="M144.215 213.586C144.022 213.453 143.817 213.332 143.662 213.188C143.606 213.149 143.561 213.097 143.532 213.035C143.503 212.974 143.491 212.906 143.498 212.838C143.504 212.77 143.528 212.705 143.568 212.65C143.607 212.595 143.661 212.551 143.723 212.524C143.862 212.436 144.025 212.393 144.189 212.401C144.353 212.409 144.511 212.467 144.641 212.568C144.706 212.626 144.763 212.691 144.813 212.762C144.708 213.143 144.658 213.21 144.215 213.586Z" fill="#6B322F"/>
<path d="M144.536 210.039C145.244 210.443 144.625 210.802 144.453 211.212C144.542 211.372 144.852 211.566 144.481 211.765C143.878 211.687 143.861 211.66 144.149 211.245C144.049 211.007 143.939 210.758 143.845 210.537C143.845 210.177 144.182 210.083 144.569 210.033L144.536 210.039Z" fill="#6B322F"/>
<path d="M143.861 214.139L143.75 213.702L144.221 213.486L144.702 213.73C144.558 214.172 144.558 214.172 143.861 214.139Z" fill="#6B322F"/>
<path d="M143.861 204.463C143.822 204.308 143.789 204.17 143.75 204.026L144.221 203.805L144.702 204.054C144.558 204.496 144.558 204.496 143.861 204.463Z" fill="#6B322F"/>
<path d="M143.928 211.845L144.431 211.762C144.735 212.11 144.735 212.11 144.304 212.354C143.961 212.304 143.8 212.171 143.928 211.845Z" fill="#6B322F"/>
<path d="M143.928 203.296L144.431 203.213C144.735 203.567 144.735 203.567 144.304 203.805C143.961 203.761 143.8 203.628 143.928 203.296Z" fill="#6B322F"/>
</svg>
