<svg width="24" height="24" viewBox="0 0 24 24" fill="none" xmlns="http://www.w3.org/2000/svg">
<rect y="15" width="24" height="9" fill="white"/>
<path d="M2.11561 8.88C2.03854 8.84 2 8.775 2 8.685C2 8.595 2.01927 8.51 2.05781 8.43C3.25246 6.71 4.76504 5.38 6.59556 4.44C8.42607 3.5 10.3818 3.03 12.4628 3.03C14.5438 3.03 16.5044 3.49 18.3446 4.41C20.1847 5.33 21.7118 6.65 22.9257 8.37C22.9835 8.47 23.0076 8.55 22.9979 8.61C22.9883 8.67 22.9546 8.73 22.8968 8.79C22.839 8.85 22.7667 8.88 22.68 8.88C22.5933 8.88 22.5114 8.83 22.4343 8.73C21.2975 7.09 19.8475 5.83 18.0844 4.95C16.3214 4.07 14.4475 3.63 12.4628 3.63C10.4782 3.63 8.61876 4.075 6.88459 4.965C5.15041 5.855 3.70527 7.11 2.54915 8.73C2.47208 8.83 2.39982 8.89 2.33238 8.91C2.26494 8.93 2.19269 8.92 2.11561 8.88ZM15.9023 23.97C13.9176 23.45 12.2846 22.42 11.0032 20.88C9.72188 19.34 9.0812 17.47 9.0812 15.27C9.0812 14.33 9.41359 13.54 10.0784 12.9C10.7431 12.26 11.5379 11.94 12.4628 11.94C13.3877 11.94 14.1826 12.26 14.8473 12.9C15.5121 13.54 15.8445 14.33 15.8445 15.27C15.8445 16.03 16.1287 16.67 16.6971 17.19C17.2655 17.71 17.9255 17.97 18.677 17.97C19.4092 17.97 20.0498 17.71 20.599 17.19C21.1482 16.67 21.4227 16.03 21.4227 15.27C21.4227 12.81 20.5412 10.75 18.7781 9.09C17.015 7.43 14.9099 6.6 12.4628 6.6C10.0157 6.6 7.91064 7.43 6.14756 9.09C4.38449 10.75 3.50295 12.81 3.50295 15.27C3.50295 15.75 3.55594 16.375 3.66192 17.145C3.76789 17.915 3.9943 18.79 4.34113 19.77C4.37967 19.87 4.37967 19.945 4.34113 19.995C4.3026 20.045 4.25442 20.09 4.19662 20.13C4.11954 20.17 4.03765 20.18 3.95094 20.16C3.86424 20.14 3.80161 20.08 3.76308 19.98C3.51258 19.22 3.31508 18.445 3.17057 17.655C3.02605 16.865 2.95379 16.07 2.95379 15.27C2.95379 12.69 3.89796 10.485 5.78628 8.655C7.6746 6.825 9.90012 5.91 12.4628 5.91C15.0834 5.91 17.333 6.81 19.2117 8.61C21.0903 10.41 22.0297 12.63 22.0297 15.27C22.0297 16.19 21.7021 16.97 21.047 17.61C20.3919 18.25 19.6018 18.57 18.677 18.57C17.7328 18.57 16.9235 18.25 16.2491 17.61C15.5747 16.97 15.2375 16.19 15.2375 15.27C15.2375 14.49 14.9629 13.84 14.4138 13.32C13.8646 12.8 13.2143 12.54 12.4628 12.54C11.7114 12.54 11.0562 12.8 10.4974 13.32C9.93866 13.84 9.65926 14.49 9.65926 15.27C9.65926 17.35 10.2662 19.085 11.4801 20.475C12.6941 21.865 14.2066 22.84 16.0179 23.4C16.1335 23.44 16.2058 23.49 16.2347 23.55C16.2636 23.61 16.2684 23.68 16.2491 23.76C16.2298 23.86 16.1913 23.93 16.1335 23.97C16.0757 24.01 15.9986 24.01 15.9023 23.97ZM5.69957 2.37C5.60322 2.41 5.53097 2.415 5.4828 2.385C5.43462 2.355 5.39127 2.31 5.35273 2.25C5.3142 2.21 5.29493 2.15 5.29493 2.07C5.29493 1.99 5.32383 1.93 5.38164 1.89C6.47995 1.27 7.63124 0.8 8.83553 0.48C10.0398 0.16 11.2489 0 12.4628 0C13.7153 0 14.9437 0.16 16.148 0.48C17.3522 0.8 18.5035 1.25 19.6018 1.83C19.6982 1.87 19.7512 1.93 19.7608 2.01C19.7704 2.09 19.756 2.16 19.7175 2.22C19.6789 2.28 19.6259 2.33 19.5585 2.37C19.4911 2.41 19.4092 2.41 19.3128 2.37C18.253 1.83 17.1451 1.405 15.989 1.095C14.8329 0.785 13.6575 0.63 12.4628 0.63C11.2682 0.63 10.1024 0.775 8.96559 1.065C7.82875 1.355 6.74007 1.79 5.69957 2.37ZM9.57255 23.64C8.45497 22.44 7.58307 21.18 6.95684 19.86C6.33061 18.54 6.0175 17.01 6.0175 15.27C6.0175 13.49 6.64855 11.99 7.91064 10.77C9.17273 9.55 10.6901 8.94 12.4628 8.94C14.2355 8.94 15.7626 9.55 17.0439 10.77C18.3253 11.99 18.966 13.49 18.966 15.27C18.966 15.37 18.9419 15.445 18.8937 15.495C18.8456 15.545 18.7733 15.57 18.677 15.57C18.5806 15.57 18.5035 15.545 18.4457 15.495C18.3879 15.445 18.359 15.37 18.359 15.27C18.359 13.65 17.7762 12.29 16.6104 11.19C15.4447 10.09 14.0621 9.54 12.4628 9.54C10.8635 9.54 9.49066 10.09 8.34418 11.19C7.1977 12.29 6.62446 13.65 6.62446 15.27C6.62446 16.97 6.90867 18.42 7.47709 19.62C8.04552 20.82 8.88852 22.02 10.0061 23.22C10.0832 23.3 10.1169 23.375 10.1073 23.445C10.0976 23.515 10.0639 23.58 10.0061 23.64C9.96756 23.68 9.90494 23.715 9.81823 23.745C9.73152 23.775 9.64963 23.74 9.57255 23.64ZM18.4168 21.45C16.7212 21.45 15.252 20.865 14.0091 19.695C12.7663 18.525 12.1449 17.05 12.1449 15.27C12.1449 15.17 12.169 15.09 12.2172 15.03C12.2653 14.97 12.3376 14.94 12.4339 14.94C12.5303 14.94 12.6025 14.97 12.6507 15.03C12.6989 15.09 12.723 15.17 12.723 15.27C12.723 16.89 13.2962 18.225 14.4427 19.275C15.5892 20.325 16.9139 20.85 18.4168 20.85C18.571 20.85 18.754 20.84 18.966 20.82C19.1779 20.8 19.4092 20.77 19.6597 20.73C19.756 20.71 19.8331 20.725 19.8909 20.775C19.9487 20.825 19.9872 20.88 20.0065 20.94C20.0258 21.02 20.0209 21.09 19.992 21.15C19.9631 21.21 19.9005 21.25 19.8042 21.27C19.4573 21.37 19.1539 21.425 18.8937 21.435C18.6336 21.445 18.4746 21.45 18.4168 21.45Z" fill="#8E8E93"/>
<rect width="24" height="12" fill="white"/>
<path fill-rule="evenodd" clip-rule="evenodd" d="M12 1C6.20101 1 1.5 5.70101 1.5 11.5H0.5C0.5 5.14873 5.64873 0 12 0C18.3513 0 23.5 5.14873 23.5 11.5H22.5C22.5 5.70101 17.799 1 12 1Z" fill="#8E8E93"/>
<path d="M11.3251 8.81665H11.2357C10.9082 8.81665 10.7593 8.69181 10.7593 8.44213C10.7593 8.24447 10.8983 8.09883 11.0868 8.09883H11.4243C11.6427 8.09883 11.861 7.92198 11.861 7.64109V4.35371C11.861 4.11443 11.9801 4 12.1985 4C12.4268 4 12.536 4.11443 12.536 4.35371V7.54746C12.536 8.40052 12.129 8.81665 11.3251 8.81665Z" fill="#8E8E93"/>
<path d="M8.96278 5.91417C8.96278 6.22627 8.77419 6.42393 8.47643 6.42393C8.18859 6.42393 8 6.22627 8 5.91417V4.53056C8 4.21847 8.18859 4.0104 8.47643 4.0104C8.77419 4.0104 8.96278 4.20806 8.96278 4.53056V5.91417Z" fill="#8E8E93"/>
<path d="M16 5.91417C16 6.22627 15.8114 6.42393 15.5236 6.42393C15.2258 6.42393 15.0273 6.22627 15.0273 5.91417V4.53056C15.0273 4.20806 15.2258 4.0104 15.5236 4.0104C15.8114 4.0104 16 4.21847 16 4.53056V5.91417Z" fill="#8E8E93"/>
<path d="M14.9479 10.6788C14.1439 11.5215 13.0521 12 11.9603 12C10.8685 12 9.75682 11.5319 8.9727 10.6788C8.91315 10.6164 8.8536 10.5228 8.8536 10.3979C8.8536 10.1899 9.00248 10.0546 9.18114 10.0546C9.30025 10.0546 9.38958 10.0962 9.50868 10.2315C10.1141 10.8557 11.0273 11.303 11.9603 11.303C12.8933 11.303 13.8164 10.8557 14.4119 10.2315C14.5409 10.0858 14.6303 10.0546 14.7395 10.0546C14.9181 10.0546 15.067 10.1899 15.067 10.3979C15.067 10.5332 15.0074 10.6268 14.9479 10.6788Z" fill="#8E8E93"/>
<rect x="0.5" y="10.5" width="23" height="7" rx="1.5" fill="white"/>
<path fill-rule="evenodd" clip-rule="evenodd" d="M2.59763 12.0976C2.72781 11.9675 2.93886 11.9675 3.06904 12.0976L4.5 13.5286L5.93096 12.0976C6.06114 11.9675 6.27219 11.9675 6.40237 12.0976C6.53254 12.2278 6.53254 12.4389 6.40237 12.569L4.9714 14L6.40237 15.431C6.53254 15.5611 6.53254 15.7722 6.40237 15.9024C6.27219 16.0325 6.06114 16.0325 5.93096 15.9024L4.5 14.4714L3.06904 15.9024C2.93886 16.0325 2.72781 16.0325 2.59763 15.9024C2.46746 15.7722 2.46746 15.5611 2.59763 15.431L4.0286 14L2.59763 12.569C2.46746 12.4389 2.46746 12.2278 2.59763 12.0976Z" fill="#8E8E93"/>
<path fill-rule="evenodd" clip-rule="evenodd" d="M7.59763 12.0976C7.72781 11.9675 7.93886 11.9675 8.06904 12.0976L9.5 13.5286L10.931 12.0976C11.0611 11.9675 11.2722 11.9675 11.4024 12.0976C11.5325 12.2278 11.5325 12.4389 11.4024 12.569L9.9714 14L11.4024 15.431C11.5325 15.5611 11.5325 15.7722 11.4024 15.9024C11.2722 16.0325 11.0611 16.0325 10.931 15.9024L9.5 14.4714L8.06904 15.9024C7.93886 16.0325 7.72781 16.0325 7.59763 15.9024C7.46746 15.7722 7.46746 15.5611 7.59763 15.431L9.0286 14L7.59763 12.569C7.46746 12.4389 7.46746 12.2278 7.59763 12.0976Z" fill="#8E8E93"/>
<path fill-rule="evenodd" clip-rule="evenodd" d="M12.5976 12.0976C12.7278 11.9675 12.9389 11.9675 13.069 12.0976L14.5 13.5286L15.931 12.0976C16.0611 11.9675 16.2722 11.9675 16.4024 12.0976C16.5325 12.2278 16.5325 12.4389 16.4024 12.569L14.9714 14L16.4024 15.431C16.5325 15.5611 16.5325 15.7722 16.4024 15.9024C16.2722 16.0325 16.0611 16.0325 15.931 15.9024L14.5 14.4714L13.069 15.9024C12.9389 16.0325 12.7278 16.0325 12.5976 15.9024C12.4675 15.7722 12.4675 15.5611 12.5976 15.431L14.0286 14L12.5976 12.569C12.4675 12.4389 12.4675 12.2278 12.5976 12.0976Z" fill="#8E8E93"/>
<path fill-rule="evenodd" clip-rule="evenodd" d="M17.5976 12.0976C17.7278 11.9675 17.9389 11.9675 18.069 12.0976L19.5 13.5286L20.931 12.0976C21.0611 11.9675 21.2722 11.9675 21.4024 12.0976C21.5325 12.2278 21.5325 12.4389 21.4024 12.569L19.9714 14L21.4024 15.431C21.5325 15.5611 21.5325 15.7722 21.4024 15.9024C21.2722 16.0325 21.0611 16.0325 20.931 15.9024L19.5 14.4714L18.069 15.9024C17.9389 16.0325 17.7278 16.0325 17.5976 15.9024C17.4675 15.7722 17.4675 15.5611 17.5976 15.431L19.0286 14L17.5976 12.569C17.4675 12.4389 17.4675 12.2278 17.5976 12.0976Z" fill="#8E8E93"/>
<rect x="0.5" y="10.5" width="23" height="7" rx="1.5" stroke="#8E8E93"/>
</svg>
