<svg width="61" height="61" viewBox="0 0 61 61" fill="none" xmlns="http://www.w3.org/2000/svg">
<path d="M52.7501 31.2519C52.7501 29.7871 52.6175 28.3965 52.3901 27.043H30.9832V35.4052H43.2401C42.6907 38.1494 41.0804 40.4671 38.6935 42.0432V47.6056H46.0059C50.2873 43.7304 52.7501 38.0196 52.7501 31.2519Z" fill="#4285F4"/>
<path d="M30.9833 53C37.1213 53 42.2551 50.9975 46.0061 47.6044L38.6936 42.0419C36.6477 43.3769 34.0523 44.1927 30.9833 44.1927C25.0538 44.1927 20.0336 40.2805 18.2339 34.9961H10.6941V40.7255C14.4261 47.9938 22.0985 53 30.9833 53Z" fill="#34A853"/>
<path d="M18.2336 34.9949C17.76 33.6599 17.5137 32.2322 17.5137 30.7488C17.5137 29.2655 17.7789 27.8378 18.2336 26.5028V20.7734H10.6938C9.14038 23.7772 8.25 27.1518 8.25 30.7488C8.25 34.3459 9.14038 37.7205 10.6938 40.7242L18.2336 34.9949Z" fill="#FBBC05"/>
<path d="M30.9833 17.3073C34.3365 17.3073 37.3296 18.4383 39.6977 20.6448L46.1766 14.3035C42.2551 10.7065 37.1213 8.5 30.9833 8.5C22.0985 8.5 14.4261 13.5062 10.6941 20.7746L18.2339 26.5039C20.0336 21.2196 25.0538 17.3073 30.9833 17.3073Z" fill="#EA4335"/>
</svg>
